<svg width="19" height="19" viewBox="0 0 19 19" fill="none" xmlns="http://www.w3.org/2000/svg">
<path fill-rule="evenodd" clip-rule="evenodd" d="M16.8671 8.10539H17.1793C17.8353 8.11797 18.4128 8.54018 18.6228 9.16069C18.8328 9.78121 18.6301 10.4665 18.1162 10.8737V12.7442C18.1105 14.4763 17.0158 16.0182 15.3806 16.5973L16.1363 17.7383C16.3245 18.0244 16.2464 18.4085 15.9615 18.5987C15.8609 18.6691 15.7408 18.7061 15.618 18.7047C15.4091 18.7036 15.2145 18.5984 15.0996 18.4242L14.0316 16.8343H4.71342L3.64545 18.4242C3.53054 18.5984 3.336 18.7036 3.12708 18.7047C3.00429 18.7061 2.88416 18.6691 2.78358 18.5987C2.49861 18.4085 2.42056 18.0244 2.6087 17.7383L3.3644 16.6285C1.72921 16.0494 0.634523 14.5074 0.628897 12.7753V10.9049C0.0884387 10.5047 -0.132965 9.80302 0.0802357 9.16592C0.293436 8.52882 0.892878 8.10086 1.56571 8.10539H15.618V1.93283C15.6146 1.55547 15.309 1.25038 14.931 1.24699H13.3696C13.2316 1.24699 13.1198 1.35865 13.1198 1.49639V1.95777C14.2199 2.24133 14.9897 3.23022 14.9934 4.36445V4.98794C14.9934 5.33228 14.7138 5.61143 14.3689 5.61143H10.6216C10.2767 5.61143 9.99707 5.33228 9.99707 4.98794V4.36445C10.0008 3.23022 10.7706 2.24133 11.8707 1.95777V1.49639C11.869 1.09902 12.0264 0.71744 12.3079 0.436453C12.5893 0.155465 12.9716 -0.00165304 13.3696 1.31175e-05H14.931C16.0002 1.31175e-05 16.8671 0.865366 16.8671 1.93283V8.10539ZM12.4953 3.11746C11.8054 3.11746 11.2462 3.67576 11.2462 4.36445H13.7443C13.7443 3.67576 13.1851 3.11746 12.4953 3.11746ZM1.56571 9.35237H17.1793C17.3518 9.35237 17.4916 9.49194 17.4916 9.66411C17.4916 9.83629 17.3518 9.97586 17.1793 9.97586H1.56571C1.39325 9.97586 1.25344 9.83629 1.25344 9.66411C1.25344 9.49194 1.39325 9.35237 1.56571 9.35237ZM14.0191 15.5873C15.5906 15.5838 16.8636 14.3129 16.8671 12.7442V11.2228H1.87799V12.7442C1.88142 14.3129 3.15447 15.5838 4.72591 15.5873H14.0191Z" fill="#FF9029"/>
</svg>
