<svg width="21" height="17" viewBox="0 0 21 17" fill="none" xmlns="http://www.w3.org/2000/svg">
<path d="M6.3 8.5C8.33109 8.5 9.975 6.83652 9.975 4.78125C9.975 2.72598 8.33109 1.0625 6.3 1.0625C4.26891 1.0625 2.625 2.72598 2.625 4.78125C2.625 6.83652 4.26891 8.5 6.3 8.5ZM8.82 9.5625H8.54766C7.86516 9.89453 7.10719 10.0938 6.3 10.0938C5.49281 10.0938 4.73812 9.89453 4.05234 9.5625H3.78C1.69312 9.5625 0 11.2758 0 13.3875V14.3438C0 15.2236 0.705469 15.9375 1.575 15.9375H11.025C11.8945 15.9375 12.6 15.2236 12.6 14.3438V13.3875C12.6 11.2758 10.9069 9.5625 8.82 9.5625ZM15.75 8.5C17.4891 8.5 18.9 7.07227 18.9 5.3125C18.9 3.55273 17.4891 2.125 15.75 2.125C14.0109 2.125 12.6 3.55273 12.6 5.3125C12.6 7.07227 14.0109 8.5 15.75 8.5ZM17.325 9.5625H17.2003C16.7442 9.72188 16.2619 9.82812 15.75 9.82812C15.2381 9.82812 14.7558 9.72188 14.2997 9.5625H14.175C13.5056 9.5625 12.8887 9.7584 12.3473 10.0738C13.148 10.9471 13.65 12.1059 13.65 13.3875V14.6625C13.65 14.7355 13.6336 14.8053 13.6303 14.875H19.425C20.2945 14.875 21 14.1611 21 13.2812C21 11.226 19.3561 9.5625 17.325 9.5625Z" fill="#FF9029"/>
</svg>
