<svg width="355" height="213" viewBox="0 0 355 213" fill="none" xmlns="http://www.w3.org/2000/svg">
<g opacity="0.3">
<path d="M322.457 134.989C320.159 124.028 317.755 112.811 312.046 103.342C307.164 95.255 300.144 88.9106 293.23 82.6991C284.549 74.8989 275.798 67.0456 265.897 61.0838C256.388 55.3558 245.908 51.4345 236.919 44.8351C229.241 39.1922 222.89 31.7692 215.567 25.6215C195.849 9.06457 168.914 2.55553 144.351 8.41633C136.339 10.3292 128.528 13.5173 121.8 18.4907C113.458 24.6544 107.054 33.3154 99.0941 40.0211C88.7734 48.7193 76.118 53.8999 65.8291 62.6353C50.5417 75.6109 41.7757 95.2603 35.3339 114.835C29.1521 133.608 24.5462 153.135 15.7803 170.68H329.917C327.429 158.783 324.951 146.881 322.457 134.989Z" fill="#FF9536"/>
</g>
<g opacity="0.3">
<path d="M8.66455 170.681C12.0818 181.355 22.4609 188.895 33.3759 192.211C44.8003 195.686 56.9835 195.436 68.9226 195.936C86.566 196.669 104.14 199.097 121.312 203.167C135.522 206.536 149.551 211.047 164.101 212.36C203.877 215.941 241.743 195.458 281.455 191.244C292.205 190.102 303.062 190.16 313.823 189.14C320.154 188.539 326.898 187.349 331.456 182.96C334.666 179.868 336.141 174.687 334.804 170.686H8.66455V170.681Z" fill="#2D965F"/>
</g>
<path opacity="0.5" d="M337.792 39.5749C337.728 36.8757 337.304 33.7195 336.343 31.1955C335.059 27.8162 332.825 24.8725 330.4 22.237C329.015 20.7332 327.577 19.2827 325.874 18.1349C322.303 15.7332 317.564 15.0319 313.388 15.6854C305.381 16.9341 299.083 22.9862 291.41 25.1647C287.441 26.2912 283.265 26.5622 279.317 27.8268C273.538 29.6706 267.887 34.017 266.592 40.0319H337.797C337.797 39.8725 337.792 39.7184 337.792 39.5749Z" fill="#FF9536"/>
<path opacity="0.5" d="M111.362 44.1604C111.272 43.1189 110.986 41.9393 110.704 40.9298C110.275 39.3995 109.341 38.0764 108.396 36.8277C105.536 33.0392 101.307 30.6641 96.5949 30.0318C93.1405 29.5695 89.5747 30.154 86.184 29.2401C83.2337 28.443 80.6336 26.7161 77.8585 25.4993C72.4354 23.1189 66.6834 22.1306 61.011 24.3569C54.7549 26.8171 49.4009 32.3166 47.2943 38.7034C46.8274 40.1221 46.4082 41.5886 46.2065 43.0764C46.1588 43.4537 46.0845 43.8097 46.0845 44.1657H111.357C111.362 44.1657 111.362 44.1604 111.362 44.1604Z" fill="#FF9536"/>
<path d="M24.2491 140.064C23.4957 138.497 22.3336 137.11 21.2299 135.771C19.2719 133.39 17.144 131.238 14.8677 129.166C10.7075 125.377 7.23192 120.914 4.96084 115.733C3.96326 113.454 3.07711 111.074 2.36607 108.693C2.19626 108.119 1.96279 107.519 1.90442 106.913C1.89381 106.807 1.87789 106.196 1.78768 106.121C1.64972 106.01 1.70809 106.467 1.66564 106.642C1.55421 107.12 1.43747 107.588 1.33134 108.071C1.07134 109.283 0.779489 110.478 0.567238 111.701C-0.0429837 115.25 -0.106659 118.821 0.121511 122.413C0.296618 125.181 0.604383 127.986 1.22522 130.691C1.68156 132.668 2.19096 134.57 2.94445 136.456C3.55467 137.997 4.2551 139.405 5.12533 140.829C5.81515 141.95 6.56864 143.125 7.41764 144.129C9.89037 147.051 12.6125 149.533 16.0297 151.291C16.8151 151.695 17.6959 151.626 18.529 151.823C19.3461 152.014 20.4711 152.104 21.2829 151.865L25.8782 147.63C25.6341 145.022 25.4006 142.466 24.2491 140.064Z" fill="#2D965F"/>
<path d="M23.1666 149.793C23.1613 149.793 23.1613 149.793 23.156 149.793C21.7339 149.533 20.4764 148.72 19.431 147.96C17.4942 146.557 15.9077 144.936 14.6129 143.534C10.5165 139.102 7.24781 133.672 5.40653 128.241C4.7857 126.413 4.32405 124.883 3.95792 123.422C3.81995 122.869 3.70852 122.29 3.6024 121.738C3.46974 121.031 3.32647 120.298 3.12483 119.602C3.11422 119.57 3.13544 119.532 3.16728 119.527C3.19912 119.517 3.23626 119.538 3.24157 119.57C3.44321 120.271 3.58648 121.004 3.71914 121.716C3.82526 122.269 3.93139 122.843 4.06935 123.395C4.43548 124.851 4.89182 126.382 5.51266 128.204C7.34863 133.619 10.612 139.033 14.6925 143.449C15.9819 144.846 17.5632 146.461 19.4894 147.859C20.5241 148.608 21.7711 149.41 23.1666 149.665C23.1985 149.671 23.2197 149.703 23.2144 149.734C23.2197 149.772 23.1932 149.793 23.1666 149.793Z" fill="black"/>
<path d="M30.3458 143.353C30.383 141.801 30.1124 139.851 29.5923 138.385C28.1543 134.336 25.5702 130.973 23.3309 127.365C18.4226 119.453 14.7348 110.717 13.3286 101.456C12.5273 96.1744 12.2408 90.6005 12.8882 85.2817C13.1163 83.4007 13.4082 81.44 13.8858 79.6015C14.0556 78.9374 14.22 78.2732 14.3792 77.609C14.4217 77.4177 14.4854 77.2317 14.5384 77.0457C14.5543 76.9873 14.5596 76.8279 14.6074 76.8704C14.8037 77.0351 14.8568 77.7524 14.9205 77.9862C15.2282 79.1074 15.5678 80.2232 15.9499 81.3178C16.9634 84.2668 18.3589 87.1999 19.7545 89.9841C22.5031 95.4783 26.4988 100.308 29.4915 105.675C32.9777 111.934 35.1639 118.534 36.3631 125.569C36.5754 126.807 36.7399 128.039 36.8354 129.293C36.9097 130.25 37.0158 131.196 37.0158 132.157C37.0158 132.875 36.9946 133.613 36.9203 134.325C36.6232 137.163 35.8909 140.383 33.6941 142.413C33.0626 142.997 32.1924 143.72 31.2744 143.651C30.8977 143.624 30.3352 143.677 30.3458 143.353Z" fill="#52BA86"/>
<path d="M31.2269 143.534C31.2163 143.534 31.2057 143.534 31.1951 143.528C31.1633 143.512 31.1526 143.475 31.1686 143.443C32.9356 140.207 35.1377 133.188 30.0755 122.535C28.9134 120.09 27.5019 117.731 26.1329 115.446C25.5811 114.522 25.008 113.565 24.4614 112.62C21.8879 108.167 19.6858 103.194 17.9082 97.8322C17.1335 95.4942 16.6559 93.5973 16.4012 91.8598C16.3959 91.8279 16.4171 91.796 16.4543 91.7907C16.4914 91.7854 16.5179 91.812 16.5232 91.8439C16.7726 93.5707 17.2502 95.4624 18.0249 97.795C19.7972 103.146 21.9993 108.108 24.5676 112.556C25.1141 113.502 25.6872 114.458 26.239 115.383C27.6081 117.667 29.0248 120.032 30.1869 122.482C31.8584 125.999 32.9037 129.618 33.2115 132.944C33.5776 136.918 32.9303 140.468 31.2747 143.502C31.2694 143.523 31.2482 143.534 31.2269 143.534Z" fill="black"/>
<path d="M8.66455 170.681H171.058C171.233 169.878 170.946 168.986 170.798 168.146C170.426 166.106 169.673 164.182 169.068 162.195C166.203 152.774 161.91 143.258 154.688 136.339C147.381 129.331 138.371 128.348 130.035 123.141C127.382 121.483 125.307 117.301 123.222 114.915C121.147 112.54 115.873 109.389 112.949 107.992C106.242 104.782 98.4786 107.216 91.5433 105.287C87.1391 104.065 84.3745 100.526 80.5168 98.3638C73.7991 94.5965 67.3201 93.9854 59.7587 95.3351C52.8075 96.5784 46.6628 102.253 42.0304 107.237C34.9518 114.846 31.0093 124.74 26.5679 133.959C25.0928 137.025 23.6336 140.346 21.7021 143.157C20.0996 145.484 18.4122 147.769 16.9476 150.192C14.8729 153.614 13.1961 156.844 11.7581 160.58C10.9462 162.694 9.87969 164.756 9.3809 166.961C9.1315 168.082 8.66455 170.681 8.66455 170.681Z" fill="#FFD45A"/>
<path d="M320.276 161.159C318.535 158.879 318.159 155.457 318.684 152.732C318.997 151.122 319.772 149.57 320.478 148.103C321.634 145.702 323.348 143.603 324.993 141.525C325.916 140.362 326.834 139.209 327.981 138.247C331.849 134.99 337.065 132.716 341.963 131.557C345.168 130.797 348.611 130.489 351.885 130.951C352.676 131.063 353.599 131.09 354.358 131.329C354.401 131.339 355 131.493 355 131.499C355 131.531 354.581 131.759 354.539 131.786C353.96 132.131 353.398 132.54 352.883 132.976C351.169 134.442 349.614 136.132 348.447 138.077C345.725 142.599 344.085 147.731 341.029 152.057C338.519 155.606 334.831 158.598 331.064 160.702C330.368 161.09 329.641 161.43 328.915 161.743C326.527 162.769 322.202 163.683 320.276 161.159Z" fill="#FFD45A"/>
<path d="M319.841 160.521C319.836 160.521 319.83 160.521 319.825 160.521C319.793 160.516 319.772 160.479 319.777 160.447C319.984 159.549 320.435 158.714 320.87 157.907L321.003 157.662C321.804 156.164 322.627 154.777 323.513 153.412C327.312 147.577 332.56 142.402 338.683 138.449L339.193 138.119C340.843 137.046 342.552 135.941 344.345 135.261C344.377 135.25 344.414 135.266 344.425 135.298C344.435 135.33 344.42 135.367 344.388 135.378C342.605 136.052 340.901 137.152 339.257 138.22L338.747 138.55C332.64 142.498 327.408 147.657 323.614 153.481C322.727 154.841 321.905 156.228 321.109 157.721L320.976 157.965C320.547 158.768 320.101 159.591 319.894 160.478C319.894 160.505 319.867 160.521 319.841 160.521Z" fill="black"/>
<path d="M306.097 132.599C303.869 132.599 301.799 131.026 300.977 130.314C300.717 130.091 300.414 129.905 300.123 129.724C299.778 129.512 299.422 129.294 299.125 129.012C298.812 128.709 298.499 128.369 298.196 128.04C297.756 127.561 297.305 127.062 296.827 126.669C296.223 126.164 296.281 125.064 296.323 124.262C296.329 124.182 296.334 124.102 296.334 124.033C296.419 122.205 296.827 120.293 297.613 118.018C298.817 114.554 300.77 111.685 302.834 108.645C303.036 108.353 303.237 108.056 303.434 107.758L303.604 107.503C305.678 104.437 307.817 101.27 309.669 97.9865C311.839 94.1289 313.425 89.9047 314.519 85.0694C314.784 83.8791 315.06 82.6623 315.203 81.4615C315.267 80.9089 315.32 80.2872 315.352 79.6655V79.6549C315.32 79.1076 315.421 79.0279 315.458 79.0013C315.495 78.9748 315.537 78.9641 315.585 78.9748C315.781 79.0279 315.925 79.3042 316.052 79.5433C316.11 79.6602 316.169 79.7665 316.217 79.8196C317.023 80.7017 317.607 81.5146 318.111 82.4551C320.35 86.6475 321.74 90.3935 322.478 94.2352C323.056 97.2532 323.099 100.388 322.611 104.4C321.502 113.465 319.146 120.309 315.41 125.33C315.288 125.489 315.171 125.654 315.044 125.824C312.948 128.651 310.343 132.174 306.596 132.577C306.421 132.588 306.262 132.599 306.097 132.599ZM296.902 126.568C297.385 126.966 297.841 127.466 298.281 127.949C298.584 128.279 298.892 128.619 299.205 128.916C299.491 129.193 299.841 129.405 300.181 129.612C300.478 129.793 300.786 129.984 301.051 130.213C301.927 130.967 304.214 132.694 306.57 132.439C310.263 132.041 312.852 128.544 314.932 125.734C315.054 125.569 315.177 125.404 315.299 125.239C319.024 120.239 321.369 113.412 322.478 104.368C322.966 100.367 322.929 97.2426 322.351 94.2405C321.613 90.4094 320.228 86.674 317.994 82.4923C317.495 81.5625 316.917 80.7548 316.116 79.8834C316.057 79.8196 315.999 79.708 315.935 79.5858C315.829 79.3786 315.691 79.1182 315.548 79.081C315.537 79.0757 315.532 79.081 315.527 79.081C315.511 79.0917 315.442 79.1767 315.468 79.6337C315.468 79.6549 315.468 79.6602 315.468 79.6655C315.437 80.2819 315.383 80.9036 315.314 81.4615C315.171 82.6677 314.895 83.8898 314.63 85.0694C313.537 89.9259 311.945 94.1608 309.764 98.029C307.912 101.313 305.768 104.485 303.694 107.551L303.524 107.806C303.322 108.103 303.121 108.396 302.924 108.693C300.86 111.722 298.913 114.586 297.719 118.034C296.934 120.298 296.53 122.2 296.445 124.012C296.44 124.086 296.44 124.166 296.435 124.246C296.398 125.038 296.339 126.106 296.902 126.568Z" fill="#2D965F"/>
<path d="M300.08 129.66C300.075 129.66 300.069 129.66 300.064 129.66C300.032 129.655 300.006 129.628 300.011 129.591C300.016 129.559 300.048 129.533 300.08 129.538C300.122 129.517 300.191 129.299 300.213 129.225C300.223 129.187 300.234 129.156 300.244 129.134C300.377 128.784 300.542 128.449 300.706 128.125C300.786 127.96 300.871 127.801 300.945 127.631C301.852 125.691 303.131 123.89 304.59 121.908C309.881 114.713 315.627 106.196 316.795 96.148C316.8 96.1162 316.821 96.0896 316.864 96.0949C316.895 96.1002 316.922 96.1268 316.917 96.164C315.749 106.238 309.992 114.772 304.691 121.982C303.237 123.959 301.958 125.755 301.056 127.689C300.977 127.854 300.897 128.018 300.812 128.183C300.653 128.502 300.483 128.837 300.356 129.182C300.351 129.203 300.34 129.23 300.329 129.267C300.255 129.49 300.191 129.66 300.08 129.66Z" fill="#2D965F"/>
<path d="M275.194 112.524C274.276 111.456 273.968 110.085 273.554 108.784C272.042 103.996 274.027 98.5816 276.414 94.4158C277.417 92.6624 278.723 91.1533 279.922 89.5433C281.1 87.9599 282.326 86.4031 283.588 84.8834C285.085 83.0821 286.698 81.403 288.104 79.5168C290.12 76.8069 291.686 73.9482 293.187 70.9248C295.819 65.6272 296.87 60.2978 298 54.5433C298.329 52.8536 298.409 51.2064 298.478 49.4954C298.51 48.7037 298.515 47.8961 298.467 47.1097C298.457 46.929 298.499 46.4561 298.616 46.5943C299.189 47.2478 299.491 48.3105 299.921 49.0491C302.022 52.6304 303.37 56.6262 304.325 60.6697C305.015 63.5869 305.7 66.6793 306.045 69.6602C306.198 70.9992 306.119 72.3913 306.183 73.7357C306.342 77.1044 306.474 80.5476 305.726 83.8632C304.294 90.1916 300.107 95.6432 296.504 100.877C294.456 103.858 293.193 107.498 292.376 111.01C291.988 112.673 292.089 115.776 290.975 117.025C290.571 117.476 289.712 117.657 289.16 117.79C288.534 117.939 287.924 117.949 287.282 117.891C286.449 117.822 285.647 117.646 284.857 117.36C283.27 116.775 281.694 116.27 280.129 115.601C278.935 115.091 277.778 114.395 276.711 113.661C276.186 113.284 275.629 113.029 275.194 112.524Z" fill="#FF9536"/>
<path d="M281.593 116.159C281.572 116.159 281.551 116.148 281.54 116.121C280.988 114.963 281.121 113.401 281.243 112.019C281.269 111.711 281.296 111.419 281.312 111.148C281.561 106.807 282.898 102.29 284.973 98.7569C286.921 95.4413 289.16 92.2585 291.325 89.182C292.078 88.1086 292.864 86.9981 293.622 85.8982C293.893 85.505 294.174 85.1118 294.45 84.7133C295.416 83.3424 296.419 81.9237 297.194 80.4253C299.534 75.8769 300.818 70.8822 300.913 65.9779C300.913 65.946 300.94 65.9194 300.977 65.9194C301.009 65.9194 301.035 65.946 301.035 65.9832C300.94 70.9035 299.645 75.9195 297.3 80.4838C296.525 81.9928 295.517 83.4168 294.551 84.7877C294.275 85.1809 293.994 85.5741 293.723 85.9673C292.964 87.0672 292.184 88.1777 291.426 89.251C289.261 92.3276 287.021 95.505 285.079 98.8154C283.015 102.333 281.689 106.828 281.439 111.148C281.423 111.424 281.397 111.711 281.37 112.025C281.253 113.39 281.121 114.937 281.657 116.063C281.673 116.095 281.657 116.132 281.63 116.143C281.609 116.153 281.598 116.159 281.593 116.159Z" fill="black"/>
<path d="M334.343 165.94C333.669 159.644 332.937 151.945 327.222 147.938C323.21 145.127 317.331 143.321 314.63 138.895C312.794 135.887 312.173 132.545 311.154 129.24C309.849 124.989 307.79 120.68 304.293 117.763C297.448 112.051 286.883 111.992 278.85 108.544C273.087 106.073 269.946 102.242 264.958 99.0646C263.016 97.8265 260.84 97.1676 258.707 96.3706C258.028 96.1156 257.704 95.8446 256.967 95.6745C254.08 94.9997 250.917 94.4206 247.935 94.5428C243.138 94.7447 238.649 95.5417 234.128 97.2367C222.179 101.721 213.307 112.667 207.3 123.496C204.949 127.726 202.317 131.679 199.139 135.319C196.39 138.47 193.063 141.073 190.192 144.102C186.287 148.23 182.965 153.379 181.161 158.799C180.132 161.886 179.352 164.989 178.816 168.188C178.71 168.836 178.54 169.83 178.646 170.669H334.804C334.905 169.113 334.491 167.322 334.343 165.94Z" fill="#52BA86"/>
<path d="M137.278 136.568H84.1678C81.2918 136.568 78.957 134.23 78.957 131.35V59.3678C78.957 56.4878 81.2918 54.1499 84.1678 54.1499H137.278C140.154 54.1499 142.489 56.4878 142.489 59.3678V131.35C142.489 134.23 140.154 136.568 137.278 136.568Z" fill="#52BA86"/>
<path d="M133.112 91.8089C135.092 79.4245 126.672 67.7776 114.304 65.7946C101.937 63.8117 90.3055 72.2437 88.3253 84.628C86.3451 97.0123 94.7656 108.659 107.133 110.642C119.5 112.625 131.132 104.193 133.112 91.8089Z" fill="#FFD45A"/>
<path d="M110.721 65.4995V88.2094H133.4C133.4 75.6696 123.249 65.4995 110.721 65.4995Z" fill="#FF9029"/>
<path d="M287.965 57.5984H216.845C214.357 57.5984 212.346 55.5793 212.346 53.0926V4.50585C212.346 2.01382 214.362 0 216.845 0H287.965C290.454 0 292.465 2.01913 292.465 4.50585V53.0926C292.465 55.5846 290.454 57.5984 287.965 57.5984Z" fill="#FFD45A"/>
<path d="M269.431 51.2115H235.38C232.34 51.2115 229.873 48.7407 229.873 45.6961C229.873 42.6514 232.34 40.1807 235.38 40.1807H269.431C272.471 40.1807 274.939 42.6514 274.939 45.6961C274.939 48.7407 272.471 51.2115 269.431 51.2115Z" fill="#FF9029"/>
<path d="M279.03 34.5536H225.776C223.67 34.5536 221.966 32.848 221.966 30.7385V12.8161C221.966 10.7066 223.67 9.00098 225.776 9.00098H279.03C281.137 9.00098 282.84 10.7119 282.84 12.8161V30.7385C282.84 32.848 281.137 34.5536 279.03 34.5536Z" fill="#F7EBD0"/>
<path d="M219.621 170.68H145.323C140.897 170.68 137.31 167.088 137.31 162.657V29.1762C137.31 24.7448 140.897 21.1528 145.323 21.1528H219.621C224.046 21.1528 227.634 24.7448 227.634 29.1762V162.657C227.634 167.088 224.046 170.68 219.621 170.68Z" fill="#FF9029"/>
<path d="M186.086 162.657C186.086 164.654 184.467 166.275 182.472 166.275C180.477 166.275 178.858 164.654 178.858 162.657C178.858 160.659 180.477 159.038 182.472 159.038C184.467 159.038 186.086 160.659 186.086 162.657Z" fill="white"/>
<path d="M220.566 31.6099H144.378V154.633H220.566V31.6099Z" fill="white"/>
<path d="M188.022 27.6297H171.063C170.66 27.6297 170.336 27.3056 170.336 26.9018C170.336 26.498 170.66 26.1738 171.063 26.1738H188.022C188.426 26.1738 188.749 26.498 188.749 26.9018C188.755 27.3003 188.426 27.6297 188.022 27.6297Z" fill="white"/>
<path d="M193.88 27.6297H191.02C190.617 27.6297 190.293 27.3056 190.293 26.9018C190.293 26.498 190.617 26.1738 191.02 26.1738H193.88C194.284 26.1738 194.607 26.498 194.607 26.9018C194.607 27.3003 194.278 27.6297 193.88 27.6297Z" fill="white"/>
<path d="M220.566 31.6099H144.378V42.46H220.566V31.6099Z" fill="#FFD45A"/>
<path d="M208.213 37.0295C208.213 38.1134 207.332 38.9955 206.249 38.9955C205.167 38.9955 204.286 38.1134 204.286 37.0295C204.286 35.9455 205.167 35.0635 206.249 35.0635C207.337 35.0688 208.213 35.9455 208.213 37.0295Z" fill="#52BA86"/>
<path d="M199.972 38.9955C201.056 38.9955 201.935 38.1153 201.935 37.0295C201.935 35.9437 201.056 35.0635 199.972 35.0635C198.888 35.0635 198.009 35.9437 198.009 37.0295C198.009 38.1153 198.888 38.9955 199.972 38.9955Z" fill="#52BA86"/>
<path d="M193.695 38.9955C194.779 38.9955 195.658 38.1153 195.658 37.0295C195.658 35.9437 194.779 35.0635 193.695 35.0635C192.61 35.0635 191.731 35.9437 191.731 37.0295C191.731 38.1153 192.61 38.9955 193.695 38.9955Z" fill="#52BA86"/>
<path d="M217.525 35.0688H210.744V39.0008H217.525V35.0688Z" fill="white"/>
<path d="M216.909 35.6958H213.455V38.3685H216.909V35.6958Z" fill="#52BA86"/>
<path d="M210.68 126.716H154.263C152.29 126.716 150.692 125.117 150.692 123.14V120.606C150.692 118.629 152.29 117.03 154.263 117.03H210.68C212.654 117.03 214.251 118.629 214.251 120.606V123.14C214.251 125.112 212.654 126.716 210.68 126.716Z" fill="#F7EBD0"/>
<path d="M199.494 144.426H165.444C162.403 144.426 159.936 141.956 159.936 138.911C159.936 135.866 162.403 133.396 165.444 133.396H199.494C202.535 133.396 205.002 135.866 205.002 138.911C205.002 141.956 202.54 144.426 199.494 144.426Z" fill="#FF9029"/>
<path d="M210.743 89.6284H154.2V89.7506H210.743V89.6284Z" fill="black"/>
<path d="M210.743 95.3984H154.2V95.5206H210.743V95.3984Z" fill="black"/>
<path d="M210.743 101.169H154.2V101.291H210.743V101.169Z" fill="black"/>
<path d="M210.743 106.935H154.2V107.057H210.743V106.935Z" fill="black"/>
<path d="M198.104 65.9512H175.537V85.4889H198.104V65.9512Z" fill="#F4DCC9"/>
<path d="M198.104 79.3359H175.537V85.4943H198.104V79.3359Z" fill="#E0C7A5"/>
<path d="M189.938 75.0059H187.142V81.5308H189.938V75.0059Z" fill="#E6CFC1"/>
<path d="M189.789 74.751H186.993V81.276H189.789V74.751Z" fill="white"/>
<path d="M189.465 75.0645H187.321V80.9571H189.465V75.0645Z" fill="#7CC7E0"/>
<path opacity="0.49" d="M189.465 75.0645H187.321V78.7201H189.465V75.0645Z" fill="white"/>
<path d="M189.789 74.751H186.993V75.3727H189.789V74.751Z" fill="#E6CFC1"/>
<path d="M186.993 79.4321H189.789" stroke="white" stroke-width="0.0761" stroke-miterlimit="10"/>
<path d="M186.822 75.1348H189.942V74.4546H186.822V75.1348Z" fill="#FF9029"/>
<path d="M203.819 84.4424H175.537V85.4945H203.819V84.4424Z" fill="#E6CFC1"/>
<path d="M198.104 69.979H175.537V71.0895H198.104V69.979Z" fill="#E6CFC1"/>
<path d="M201.108 62.2852H174.343V70.7815H201.108V62.2852Z" fill="#FF9029"/>
<path d="M201.113 62.2852L174.343 62.9706V62.2852H201.113Z" fill="#FFB675"/>
<path d="M201.108 69.6919H174.343V70.7758H201.108V69.6919Z" fill="#DB7C27"/>
<path opacity="0.74" d="M189.932 69.6919C190.139 70.0532 190.346 70.4198 190.564 70.7758H201.112V69.6919H189.932Z" fill="#E6CFC1"/>
<path d="M185.395 74.814H180.561V84.4633H185.395V74.814Z" fill="white"/>
<path d="M185.082 75.1172H180.869V84.1661H185.082V75.1172Z" fill="#7CC7E0"/>
<path opacity="0.49" d="M185.082 75.1172H180.869V78.6454H185.082V75.1172Z" fill="white"/>
<path d="M185.395 74.814H180.561V75.3453H185.395V74.814Z" fill="#E6CFC1"/>
<path d="M182.997 74.814V84.4686" stroke="white" stroke-width="0.0928" stroke-miterlimit="10"/>
<path d="M180.391 75.1807H185.533V74.5377H180.391V75.1807Z" fill="#FF9029"/>
<path d="M180.561 81.8125H185.395" stroke="white" stroke-width="0.0928" stroke-miterlimit="10"/>
<path d="M181.511 79.2881H181.293V80.117H181.511V79.2881Z" fill="white"/>
<path d="M210.314 69.6602V85.4945H191.912V69.6602L201.113 64.1235L210.314 69.6602Z" fill="#FCEFE5"/>
<path d="M210.314 77.79H191.912V85.4893H210.314V77.79Z" fill="#F1D6B1"/>
<path d="M210.314 69.6602V70.6326L201.113 64.623L191.912 70.6326V69.6602L201.113 64.1235L210.314 69.6602Z" fill="#E6CFC1"/>
<path d="M211.778 69.2614L201.112 62.2954L190.441 69.2614L191.115 70.6482L201.112 64.1233L211.109 70.6482L211.778 69.2614Z" fill="#DB7C27"/>
<path d="M207.072 75.0059H195.663V81.5308H207.072V75.0059Z" fill="#E6CFC1"/>
<path d="M206.923 74.751H195.514V81.276H206.923V74.751Z" fill="white"/>
<path d="M206.599 75.0645H195.843V80.9571H206.599V75.0645Z" fill="#7CC7E0"/>
<path opacity="0.49" d="M206.599 75.0645H195.843V78.837H206.599V75.0645Z" fill="white"/>
<path d="M206.923 74.751H195.514V75.3727H206.923V74.751Z" fill="#E6CFC1"/>
<path d="M195.514 79.4321H206.928" stroke="white" stroke-width="0.0761" stroke-miterlimit="10"/>
<path d="M203.453 74.751V81.276" stroke="white" stroke-width="0.0761" stroke-miterlimit="10"/>
<path d="M198.963 74.751V81.276" stroke="white" stroke-width="0.0761" stroke-miterlimit="10"/>
<path d="M195.346 75.1348H207.079V74.4546H195.346V75.1348Z" fill="#FF9029"/>
<path d="M181.517 71.52H178.922V85.4946H175.537V70.7815H174.343V62.2852H178.922V66.5785H179.829L180.992 69.9791L181.013 70.0482L181.262 70.7815L181.368 71.0896L181.517 71.52Z" fill="#E6CFC1"/>
<path d="M174.773 50.0474H171.828V54.245H174.773V50.0474Z" fill="#FCEFE5"/>
<path d="M174.773 50.0474H171.828V50.9772H174.773V50.0474Z" fill="#E6CFC1"/>
<path d="M175.271 49.522H171.339V50.5369H175.271V49.522Z" fill="#E98730"/>
<path d="M176.364 56.5674V74.458H157.962V56.5674L167.163 51.0308L176.364 56.5674Z" fill="#FCEFE5"/>
<path d="M176.364 56.5674V57.5398L167.163 51.5302L157.962 57.5398V56.5674L167.163 51.0308L176.364 56.5674Z" fill="#E6CFC1"/>
<path d="M177.834 56.1745L167.163 49.2085L156.492 56.1745L157.166 57.556L167.163 51.031L177.16 57.556L177.834 56.1745Z" fill="#DB7C27"/>
<path d="M172.862 58.0073H168.696V64.5323H172.862V58.0073Z" fill="#E6CFC1"/>
<path d="M172.713 57.7524H168.548V64.2774H172.713V57.7524Z" fill="white"/>
<path d="M172.39 58.0664H168.877V63.9591H172.39V58.0664Z" fill="#7CC7E0"/>
<path opacity="0.49" d="M172.39 58.0664H168.877V61.839H172.39V58.0664Z" fill="white"/>
<path d="M172.713 57.7524H168.548V58.3741H172.713V57.7524Z" fill="#E6CFC1"/>
<path d="M168.548 62.4336H172.713" stroke="white" stroke-width="0.0761" stroke-miterlimit="10"/>
<path d="M170.633 57.7524V64.2774" stroke="white" stroke-width="0.0761" stroke-miterlimit="10"/>
<path d="M168.376 58.1372H172.865V57.4571H168.376V58.1372Z" fill="#E98730"/>
<path d="M165.704 58.0073H161.538V64.5323H165.704V58.0073Z" fill="#E6CFC1"/>
<path d="M165.555 57.7524H161.39V64.2774H165.555V57.7524Z" fill="white"/>
<path d="M165.226 58.0664H161.713V63.9591H165.226V58.0664Z" fill="#7CC7E0"/>
<path opacity="0.49" d="M165.226 58.0664H161.713V61.839H165.226V58.0664Z" fill="white"/>
<path d="M165.555 57.7524H161.39V58.3741H165.555V57.7524Z" fill="#E6CFC1"/>
<path d="M161.39 62.4336H165.555" stroke="white" stroke-width="0.0761" stroke-miterlimit="10"/>
<path d="M163.47 57.7524V64.2774" stroke="white" stroke-width="0.0761" stroke-miterlimit="10"/>
<path d="M161.212 58.1372H165.701V57.4571H161.212V58.1372Z" fill="#E98730"/>
<path d="M176.364 67.6089H155.824V85.4942H176.364V67.6089Z" fill="#FCEFE5"/>
<path d="M176.364 67.6089H155.824V72.662H176.364V67.6089Z" fill="#E6CFC1"/>
<path d="M176.364 77.9917H155.824V85.4944H176.364V77.9917Z" fill="#F1D6B1"/>
<path d="M176.364 85.2183H155.824V85.4946H176.364V85.2183Z" fill="#E6CFC1"/>
<path d="M172.549 76.8701H159.251V85.4939H172.549V76.8701Z" fill="white"/>
<path d="M171.981 77.2637H159.814V85.4943H171.981V77.2637Z" fill="#B7B0A8"/>
<path d="M171.981 84.8037H159.814V85.08H171.981V84.8037Z" fill="#D6CEC5"/>
<path d="M171.981 84.1924H159.814V84.4687H171.981V84.1924Z" fill="#D6CEC5"/>
<path d="M171.981 83.5864H159.814V83.8627H171.981V83.5864Z" fill="#D6CEC5"/>
<path d="M171.981 82.9805H159.814V83.2568H171.981V82.9805Z" fill="#D6CEC5"/>
<path d="M171.981 82.375H159.814V82.6513H171.981V82.375Z" fill="#D6CEC5"/>
<path d="M171.981 81.7637H159.814V82.04H171.981V81.7637Z" fill="#D6CEC5"/>
<path d="M171.981 81.1582H159.814V81.4345H171.981V81.1582Z" fill="#D6CEC5"/>
<path d="M171.981 80.5522H159.814V80.8286H171.981V80.5522Z" fill="#D6CEC5"/>
<path d="M171.981 79.9414H159.814V80.2177H171.981V79.9414Z" fill="#D6CEC5"/>
<path d="M171.981 79.3354H159.814V79.6118H171.981V79.3354Z" fill="#D6CEC5"/>
<path d="M171.981 78.73H159.814V79.0063H171.981V78.73Z" fill="#D6CEC5"/>
<path d="M171.981 78.124H159.814V78.4003H171.981V78.124Z" fill="#D6CEC5"/>
<path d="M171.981 77.5132H159.814V77.7895H171.981V77.5132Z" fill="#D6CEC5"/>
<path d="M173.52 75.8447H158.392V76.8702H173.52V75.8447Z" fill="#FF9029"/>
<path d="M178.959 71.5195H153.68L155.367 65.3877H157.962V66.5779H177.271L178.959 71.5195Z" fill="#FF9029"/>
<path d="M179.267 71.2803H153.165V72.3908H179.267V71.2803Z" fill="#DB7C27"/>
<path d="M138.35 28.4589V15.292C138.35 13.3048 136.742 11.6895 134.752 11.6895H104.374C102.389 11.6895 100.776 13.2994 100.776 15.292V33.4323C100.776 35.4196 102.384 37.0349 104.374 37.0349H122.951H134.758H149.923L138.35 28.4589Z" fill="#2D965F"/>
<path d="M229.666 134.686V121.52C229.666 119.532 231.274 117.917 233.263 117.917H296.138C298.122 117.917 299.735 119.527 299.735 121.52V139.66C299.735 141.647 298.127 143.262 296.138 143.262H245.07H233.263H218.098L229.666 134.686Z" fill="#F7EBD0"/>
<path d="M293.023 124.761H236.474V124.883H293.023V124.761Z" fill="black"/>
<path d="M293.023 130.531H236.474V130.653H293.023V130.531Z" fill="black"/>
<path d="M293.023 136.301H236.474V136.423H293.023V136.301Z" fill="black"/>
<path d="M317.856 164.692C316.529 160.808 315.155 156.706 313.027 153.295C307.604 144.618 299.109 139.145 289.696 140.797C283.769 141.839 278.197 145.234 273.305 149.124C270.773 151.137 268.609 153.815 266.04 155.744C263.467 157.668 260.633 158.263 257.794 159.405C255.645 160.271 253.666 161.451 251.804 162.971C249.384 164.942 247.352 167.599 246.073 170.68H319.782C319.214 168.651 318.535 166.679 317.856 164.692Z" fill="#2D965F"/>
<path d="M168.346 166.913C164.812 164.161 160.169 163.295 156.689 160.431C150.714 155.505 147.822 148.342 140.282 145.728C133.049 143.22 124.527 145.186 118.696 150.053C116.138 152.189 114.074 155.213 111.139 156.86C108.152 158.544 104.639 158.938 101.535 160.319C98.7175 161.573 95.9847 163.619 94.0851 166.047C93.1087 167.296 92.1855 168.959 91.5381 170.68H171.477C170.671 169.251 169.7 167.965 168.346 166.913Z" fill="#2D965F"/>
<path d="M76.2666 53.5605H23.4851C23.4532 53.5605 23.4267 53.5339 23.4214 53.5021C23.4214 53.3852 23.4214 53.2683 23.4267 53.162C23.4798 50.8613 23.8724 48.5924 24.5039 46.9293C25.3263 44.7667 26.7272 42.6519 28.9187 40.2714C29.9004 39.2034 30.9881 38.0929 32.2829 37.2215C34.7556 35.5584 38.2312 34.8729 41.5795 35.3936C44.88 35.909 47.8303 37.5403 50.685 39.1237C52.9774 40.3936 55.3493 41.7061 57.8804 42.4234C59.2441 42.8113 60.6661 43.0663 62.0405 43.3161C63.6324 43.603 65.272 43.8952 66.8427 44.4C69.1084 45.1227 71.1779 46.2916 72.8281 47.7794C74.6588 49.4319 75.8686 51.4032 76.3197 53.4914C76.325 53.5074 76.3197 53.5286 76.3091 53.5446C76.3037 53.5499 76.2825 53.5605 76.2666 53.5605ZM23.5434 53.4383H76.187C75.4866 50.3352 72.6636 46.382 66.8108 44.5116C65.2508 44.0121 63.6111 43.7199 62.0246 43.433C60.6449 43.1832 59.2228 42.9282 57.8485 42.5403C55.3068 41.8177 52.9296 40.4999 50.632 39.23C47.7878 37.6519 44.8428 36.0259 41.5636 35.5158C38.2418 34.9951 34.798 35.6753 32.3519 37.3224C31.0677 38.1885 29.9853 39.2937 29.0089 40.3564C26.828 42.7263 25.4325 44.8304 24.6153 46.9771C23.9892 48.6243 23.5965 50.8825 23.5434 53.1673C23.5487 53.2523 23.5487 53.3427 23.5434 53.4383Z" fill="#FF9536"/>
<g opacity="0.3">
<path d="M133.426 196.254C137.933 196.254 141.587 195.214 141.587 193.932C141.587 192.649 137.933 191.61 133.426 191.61C128.919 191.61 125.265 192.649 125.265 193.932C125.265 195.214 128.919 196.254 133.426 196.254Z" fill="#2D965F"/>
<path d="M154.9 187.083C154.9 188.454 151.918 189.559 148.241 189.559C144.564 189.559 141.582 188.449 141.582 187.083C141.582 185.717 144.564 184.607 148.241 184.607C151.918 184.607 154.9 185.717 154.9 187.083Z" fill="#2D965F"/>
<path d="M238.925 191.727C242.87 191.727 246.067 190.688 246.067 189.405C246.067 188.123 242.87 187.083 238.925 187.083C234.98 187.083 231.783 188.123 231.783 189.405C231.783 190.688 234.98 191.727 238.925 191.727Z" fill="#2D965F"/>
<path d="M65.2399 178.911C65.2399 180.527 60.0716 181.834 53.6934 181.834C47.3153 181.834 42.147 180.527 42.147 178.911C42.147 177.296 47.3153 175.989 53.6934 175.989C60.0716 175.989 65.2399 177.296 65.2399 178.911Z" fill="#2D965F"/>
</g>
<path d="M93.6529 8.37591C94.2003 6.06285 92.7715 3.7434 90.4616 3.19526C88.1517 2.64713 85.8354 4.07788 85.288 6.39093C84.7406 8.70399 86.1694 11.0235 88.4793 11.5716C90.7893 12.1197 93.1056 10.689 93.6529 8.37591Z" fill="#FFD45A"/>
<path d="M320.064 68.0871C316.397 68.0871 313.415 65.1009 313.415 61.4293C313.415 57.7577 316.397 54.7715 320.064 54.7715C323.73 54.7715 326.713 57.7577 326.713 61.4293C326.713 65.1009 323.73 68.0871 320.064 68.0871ZM320.064 54.8937C316.466 54.8937 313.537 57.8267 313.537 61.4293C313.537 65.0319 316.466 67.9649 320.064 67.9649C323.661 67.9649 326.585 65.0319 326.585 61.4293C326.591 57.8267 323.661 54.8937 320.064 54.8937Z" fill="#2D965F"/>
<path d="M32.999 89.2138C30.7545 89.2138 28.9238 87.3859 28.9238 85.133C28.9238 82.8854 30.7492 81.0522 32.999 81.0522C35.2436 81.0522 37.0743 82.8801 37.0743 85.133C37.0743 87.3859 35.2489 89.2138 32.999 89.2138ZM32.999 81.1798C30.8235 81.1798 29.0512 82.9545 29.0512 85.133C29.0512 87.3116 30.8235 89.0863 32.999 89.0863C35.1799 89.0863 36.9469 87.3116 36.9469 85.133C36.9522 82.9545 35.1799 81.1798 32.999 81.1798Z" fill="#FF9536"/>
<path d="M261.317 77.3117C261.317 77.3117 257.746 77.0407 257.667 74.0917C257.587 71.1427 260.452 70.3669 260.452 70.3669C260.452 70.3669 259.274 67.8058 261.079 66.2543C262.883 64.7027 265.43 66.5253 265.43 66.5253C265.43 66.5253 266.666 63.3053 269.861 63.7676C273.055 64.2352 273.288 66.8335 273.288 66.8335C273.288 66.8335 275.172 65.2022 277.762 65.9408C280.351 66.6794 279.173 70.096 279.173 70.096C279.173 70.096 282.272 69.4743 283.1 71.8441C283.922 74.2139 281.333 75.3244 281.333 75.3244C281.333 75.3244 283.413 75.9993 283.296 78.0928C283.179 80.1916 280.001 80.4307 280.001 80.4307C280.001 80.4307 282.357 81.2012 282.314 83.4329C282.277 85.6645 278.658 85.181 278.658 85.181C278.658 85.181 279.518 86.791 278.658 87.758C277.799 88.7304 275.363 87.2533 275.363 87.2533C275.363 87.2533 275.989 89.0864 274.737 89.6762C273.485 90.266 271.903 88.1938 271.903 88.1938L261.317 77.3117Z" fill="#4F342F"/>
<path d="M254.255 103.497C254.255 103.497 256.484 98.0184 258.107 95.2023C259.731 92.3861 263.52 91.5041 264.682 91.3394C264.682 91.3394 266.571 93.8048 263.26 98.6242C259.97 103.412 256.712 110.42 253.868 109.889C251.018 109.357 244.64 98.316 243.68 96.1906C243.68 96.1906 240.485 96.2118 237.997 93.8101C235.672 91.5678 234.197 89.8144 235.29 88.5338C235.959 87.7527 241.186 88.6985 243.239 91.0843C243.239 91.0843 242.905 87.9653 243.77 87.5349C244.629 87.1045 246.094 92.2055 245.898 94.926C245.898 94.9313 252.531 100.08 254.255 103.497Z" fill="#CC7646"/>
<path d="M240.279 90.7654C240.3 90.7654 240.316 90.7547 240.327 90.7388C240.342 90.7122 240.332 90.675 240.305 90.6591C239.276 90.0746 237.578 89.2776 235.53 88.4168L235.466 88.3902C235.439 88.3796 235.402 88.3902 235.392 88.4221C235.381 88.4487 235.392 88.4859 235.424 88.4965L235.487 88.5231C237.53 89.3838 239.223 90.1755 240.247 90.76C240.263 90.7653 240.268 90.7654 240.279 90.7654Z" fill="black"/>
<path d="M239.716 91.7589C239.737 91.7589 239.753 91.7483 239.764 91.727C239.78 91.7005 239.769 91.6633 239.742 91.6473C239.711 91.6314 236.591 89.9204 234.962 89.1553C234.935 89.1393 234.898 89.1553 234.887 89.1818C234.871 89.2084 234.887 89.2456 234.914 89.2562C236.537 90.0214 239.658 91.727 239.689 91.7483C239.7 91.7589 239.711 91.7589 239.716 91.7589Z" fill="black"/>
<path d="M239.312 92.7258C239.334 92.7258 239.355 92.7152 239.365 92.6939C239.381 92.6674 239.366 92.6302 239.339 92.6195C239.127 92.5133 238.697 92.2582 238.246 91.9872C237.837 91.7428 237.413 91.4878 237.126 91.3337C236.808 91.1636 235.094 90.1062 235.078 90.0956C235.052 90.0797 235.014 90.085 234.998 90.1169C234.983 90.1434 234.988 90.1806 235.02 90.1966C235.089 90.2391 236.755 91.2646 237.078 91.4346C237.365 91.5887 237.79 91.8438 238.193 92.0829C238.649 92.3539 239.079 92.6142 239.297 92.7205C239.297 92.7205 239.302 92.7258 239.312 92.7258Z" fill="black"/>
<path d="M239.233 92.9861C239.26 92.9861 239.281 92.9702 239.286 92.9489C239.546 92.1253 239.933 91.3549 240.432 90.6694C240.453 90.6428 240.443 90.6057 240.422 90.5897C240.395 90.5685 240.358 90.5791 240.342 90.6003C239.833 91.3017 239.44 92.0775 239.175 92.9117C239.164 92.9436 239.18 92.9755 239.212 92.9808C239.222 92.9808 239.228 92.9861 239.233 92.9861Z" fill="black"/>
<path d="M258.107 95.2023C256.484 98.0184 254.255 103.497 254.255 103.497C253.655 102.306 252.462 100.909 251.156 99.5912C250.546 100.819 249.474 102.407 247.797 103.226C249.936 106.467 252.382 109.607 253.868 109.889C256.717 110.42 259.97 103.417 263.26 98.6242C266.571 93.7995 264.682 91.3394 264.682 91.3394C263.515 91.5041 259.726 92.3808 258.107 95.2023Z" fill="#FFD45A"/>
<path d="M278.117 169.549C278.117 169.549 279.741 128.098 279.47 116.132C270.009 117.524 263.541 116.01 261.652 115.468C260.31 128.916 257.747 168.098 257.747 168.098C257.747 168.098 259.222 170.075 263.302 168.9C267.436 148.534 267.033 142.614 267.033 142.614L269.139 126.084L270.02 126.068L270.959 143.103C269.824 151.291 271.681 163.566 272.471 169.533C273.522 170.032 276.085 170.999 278.117 169.549Z" fill="#2F748C"/>
<path d="M257.746 168.093C257.746 168.093 247.288 175.574 248.168 178.231C249.049 180.888 262.511 172.657 262.511 172.657C262.798 171.35 263.058 170.101 263.302 168.895C259.221 170.064 257.746 168.093 257.746 168.093Z" fill="#FFD45A"/>
<path d="M251.576 173.12C249.501 175.064 247.792 177.089 248.169 178.231C249.05 180.888 262.512 172.657 262.512 172.657C262.613 172.2 262.708 171.754 262.804 171.308C259.965 172.875 257.094 174.395 254.202 175.861C253.746 174.639 252.759 173.656 251.576 173.12Z" fill="#F8F8F8"/>
<path d="M287.191 177.126C286.576 173.667 278.123 169.549 278.123 169.549C276.091 170.999 273.528 170.032 272.477 169.527C272.764 171.695 272.981 173.034 272.981 173.034C274.674 174.963 287.802 180.59 287.191 177.126Z" fill="#FFD45A"/>
<path d="M287.191 177.125C286.899 175.489 284.857 173.709 282.782 172.279C282.766 172.295 282.75 172.311 282.734 172.322C281.768 173.231 281.126 174.421 280.569 175.627C277.905 174.516 275.311 173.252 272.795 171.838C272.907 172.598 272.976 173.023 272.976 173.023C274.674 174.963 287.802 180.59 287.191 177.125Z" fill="#F8F8F8"/>
<path d="M261.17 166.302C259.992 166.196 258.973 165.951 257.922 165.415L257.747 168.087C257.747 168.087 259.222 170.064 263.303 168.89C263.494 167.944 263.674 167.03 263.844 166.142C262.979 166.355 262.05 166.382 261.17 166.302Z" fill="#2F748C"/>
<path d="M275.215 167.067C274.159 167.072 273.024 166.924 272.063 166.504C272.063 166.504 272.355 168.645 272.472 169.527C273.523 170.037 276.086 170.999 278.118 169.549L278.229 166.589C277.248 166.924 276.255 167.062 275.215 167.067Z" fill="#2F748C"/>
<path d="M270.959 126.132C270.949 126.132 270.938 126.132 270.933 126.127C270.901 126.111 270.8 126.116 270.742 126.122C270.71 126.122 270.683 126.127 270.662 126.127C270.429 126.127 270.195 126.116 269.967 126.111C269.309 126.084 268.64 126.1 267.993 126.111C267.6 126.122 267.197 126.127 266.799 126.127C266.767 126.127 266.741 126.1 266.741 126.068C266.741 126.037 266.767 126.01 266.799 126.01C267.197 126.01 267.6 126.005 267.993 125.994C268.64 125.983 269.309 125.967 269.972 125.994C270.2 126.005 270.434 126.01 270.662 126.01C270.678 126.01 270.704 126.01 270.731 126.005C270.842 125.994 270.933 125.989 270.991 126.026C271.018 126.042 271.028 126.079 271.012 126.106C270.996 126.122 270.975 126.132 270.959 126.132Z" fill="black"/>
<path d="M268.492 126.068C268.471 126.068 268.45 126.058 268.439 126.031C268.221 125.521 268.19 124.915 268.163 124.331C268.152 124.145 268.142 123.97 268.131 123.8C267.972 121.972 268.052 120.043 268.375 118.061C268.46 117.551 268.587 117.041 268.715 116.547C268.853 115.999 269.001 115.431 269.076 114.873C269.081 114.841 269.107 114.82 269.139 114.825C269.171 114.83 269.192 114.857 269.187 114.889C269.108 115.452 268.964 116.026 268.821 116.573C268.694 117.067 268.566 117.572 268.481 118.077C268.158 120.048 268.073 121.972 268.237 123.789C268.253 123.959 268.264 124.14 268.269 124.326C268.301 124.899 268.327 125.5 268.54 125.989C268.55 126.015 268.54 126.052 268.508 126.063C268.508 126.068 268.497 126.068 268.492 126.068Z" fill="black"/>
<path d="M269.707 126.037C269.68 126.037 269.659 126.021 269.654 125.994C269.452 125.197 269.436 124.336 269.426 123.502C269.426 123.343 269.42 123.189 269.415 123.035C269.367 120.808 269.526 118.784 269.898 117.014C269.951 116.77 269.983 116.499 270.015 116.212C270.078 115.649 270.147 115.064 270.375 114.607C270.391 114.581 270.423 114.57 270.45 114.581C270.476 114.597 270.487 114.629 270.476 114.655C270.259 115.096 270.19 115.67 270.126 116.223C270.094 116.51 270.062 116.786 270.009 117.036C269.643 118.794 269.479 120.813 269.532 123.029C269.537 123.183 269.537 123.337 269.542 123.497C269.553 124.326 269.569 125.181 269.765 125.962C269.771 125.994 269.755 126.026 269.723 126.031C269.717 126.037 269.712 126.037 269.707 126.037Z" fill="black"/>
<path d="M279.492 118.194C279.492 116.35 279.455 114.905 279.365 114.001C278.579 106.206 280.442 95.4199 279.115 93.0766C277.858 90.8503 270.11 90.9087 270.11 90.9087C270.11 90.9087 265.467 90.8024 262.793 91.8651C262.05 92.1627 261.461 92.5453 261.164 93.0501C259.503 95.8822 262.963 107.301 261.997 112.79C261.769 114.086 261.573 116.015 261.408 118.395C263.493 120.282 270.397 125.223 279.492 118.194Z" fill="#FFD45A"/>
<path d="M269.33 93.6666C271.655 93.8792 273.416 92.3489 274.318 91.1799C272.159 90.893 270.105 90.9089 270.105 90.9089C270.105 90.9089 268.529 90.8717 266.683 91.0524C266.778 91.8919 267.229 93.4807 269.33 93.6666Z" fill="#CC7646"/>
<path d="M267.569 88.9372C267.569 88.9372 263.133 88.6344 261.997 84.5695C260.761 80.154 260.825 73.4271 263.993 70.4994C267.155 67.5716 278.15 66.9287 279.402 74.9521C280.537 82.2156 277.778 86.8331 272.705 89.0382V91.408C272.705 91.408 270.742 94.2454 267.526 91.8012L267.569 88.9372Z" fill="#CC7646"/>
<mask id="mask0_500_2860" style="mask-type:luminance" maskUnits="userSpaceOnUse" x="261" y="68" width="19" height="25">
<path d="M267.569 88.9372C267.569 88.9372 263.133 88.6344 261.997 84.5695C260.761 80.154 260.825 73.4271 263.993 70.4994C267.155 67.5716 278.15 66.9287 279.402 74.9521C280.537 82.2156 277.778 86.8331 272.705 89.0382V91.408C272.705 91.408 270.742 94.2454 267.526 91.8012L267.569 88.9372Z" fill="white"/>
</mask>
<g mask="url(#mask0_500_2860)">
<path d="M274.43 83.4964C274.43 84.8992 273.294 86.0363 271.893 86.0363C270.492 86.0363 269.357 84.8992 269.357 83.4964C269.357 82.0936 270.492 80.9565 271.893 80.9565C273.294 80.9565 274.43 82.0936 274.43 83.4964Z" fill="#C65C40"/>
</g>
<mask id="mask1_500_2860" style="mask-type:luminance" maskUnits="userSpaceOnUse" x="261" y="68" width="19" height="25">
<path d="M267.569 88.9372C267.569 88.9372 263.133 88.6344 261.997 84.5695C260.761 80.154 260.825 73.4271 263.993 70.4994C267.155 67.5716 278.15 66.9287 279.402 74.9521C280.537 82.2156 277.778 86.8331 272.705 89.0382V91.408C272.705 91.408 270.742 94.2454 267.526 91.8012L267.569 88.9372Z" fill="white"/>
</mask>
<g mask="url(#mask1_500_2860)">
<path d="M264.693 83.241C264.693 84.6438 263.557 85.7809 262.157 85.7809C260.756 85.7809 259.62 84.6438 259.62 83.241C259.62 81.8383 260.756 80.7012 262.157 80.7012C263.557 80.7012 264.693 81.8383 264.693 83.241Z" fill="#C65C40"/>
</g>
<path d="M265.52 84.1128C265.51 84.1128 265.499 84.1074 265.489 84.1021C265.398 84.0384 265.329 83.9268 265.266 83.8258C265.244 83.794 265.223 83.7621 265.207 83.7302C265.059 83.5177 264.831 83.0819 264.915 82.795C264.942 82.71 265.085 82.6356 265.282 82.5453C265.335 82.5187 265.382 82.4975 265.398 82.4868C265.653 82.3115 266.009 82.0299 266.242 81.6685C266.667 81.0256 266.879 80.1329 266.826 79.2137C266.767 78.1829 266.285 77.1574 265.568 76.5357C265.048 76.0841 264.427 75.8768 263.785 75.93C263.451 75.9565 263.17 76.015 262.899 76.185C262.873 76.201 262.835 76.1956 262.82 76.1691C262.804 76.1425 262.809 76.1053 262.835 76.0894C263.148 75.8981 263.472 75.8449 263.775 75.8184C264.454 75.7599 265.101 75.9778 265.642 76.4507C266.38 77.0936 266.879 78.1457 266.937 79.2084C266.99 80.1542 266.773 81.0734 266.332 81.7323C266.083 82.1096 265.717 82.4018 265.457 82.5825C265.43 82.5984 265.382 82.625 265.324 82.6515C265.239 82.6941 265.038 82.7844 265.022 82.8322C264.947 83.0766 265.17 83.4858 265.298 83.6664C265.319 83.693 265.34 83.7302 265.361 83.7674C265.42 83.8577 265.483 83.964 265.552 84.0118C265.579 84.0277 265.584 84.0649 265.568 84.0915C265.558 84.1021 265.536 84.1128 265.52 84.1128Z" fill="black"/>
<path d="M268.471 76.9074C268.455 76.9074 268.444 76.9021 268.433 76.8914C268.412 76.8702 268.412 76.833 268.433 76.8117C269.373 75.8287 270.694 75.4834 271.967 75.8872C272.275 75.9828 272.503 76.1741 272.726 76.3548C272.843 76.4504 272.965 76.5514 273.103 76.6364C273.129 76.6523 273.135 76.6895 273.119 76.7161C273.103 76.7427 273.066 76.748 273.039 76.732C272.901 76.6417 272.774 76.5407 272.652 76.4398C272.429 76.2591 272.222 76.0838 271.936 75.9935C270.704 75.6056 269.426 75.9403 268.518 76.8861C268.502 76.8967 268.486 76.9074 268.471 76.9074Z" fill="black"/>
<path d="M272.493 80.3397C272.992 79.1176 272.578 77.8211 271.565 77.4386C270.551 77.0613 269.325 77.7414 268.827 78.9635C268.328 80.1856 268.742 81.4821 269.755 81.8647C270.769 82.242 271.994 81.5618 272.493 80.3397Z" fill="white"/>
<mask id="mask2_500_2860" style="mask-type:luminance" maskUnits="userSpaceOnUse" x="268" y="77" width="5" height="5">
<path d="M272.493 80.3397C272.992 79.1176 272.578 77.8211 271.565 77.4386C270.551 77.0613 269.325 77.7414 268.827 78.9635C268.328 80.1856 268.742 81.4821 269.755 81.8647C270.769 82.242 271.994 81.5618 272.493 80.3397Z" fill="white"/>
</mask>
<g mask="url(#mask2_500_2860)">
<path d="M271.336 80.021C271.315 81.105 270.535 81.9711 269.585 81.9552C268.641 81.9392 267.887 81.0412 267.909 79.9573C267.93 78.8733 268.71 78.0072 269.66 78.0232C270.61 78.0391 271.358 78.9371 271.336 80.021Z" fill="#3D2D27"/>
</g>
<path d="M262.39 79.5274C262.262 78.215 262.979 77.0832 263.992 77.0035C265.006 76.9238 265.94 77.9174 266.067 79.2299C266.194 80.5423 265.478 81.6741 264.464 81.7538C263.446 81.8388 262.517 80.8399 262.39 79.5274Z" fill="white"/>
<mask id="mask3_500_2860" style="mask-type:luminance" maskUnits="userSpaceOnUse" x="262" y="76" width="5" height="6">
<path d="M262.39 79.5274C262.262 78.215 262.979 77.0832 263.992 77.0035C265.006 76.9238 265.94 77.9174 266.067 79.2299C266.194 80.5423 265.478 81.6741 264.464 81.7538C263.446 81.8388 262.517 80.8399 262.39 79.5274Z" fill="white"/>
</mask>
<g mask="url(#mask3_500_2860)">
<path d="M265.223 79.9683C265.202 81.0523 264.422 81.9184 263.472 81.9024C262.522 81.8865 261.774 80.9885 261.795 79.9045C261.817 78.8206 262.597 77.9545 263.546 77.9704C264.491 77.9917 265.239 78.8844 265.223 79.9683Z" fill="#3D2D27"/>
</g>
<path d="M267.823 85.9191C268.253 85.9191 268.847 85.7597 269.213 85.3984C269.234 85.3771 269.234 85.3399 269.213 85.3187C269.192 85.2974 269.155 85.2974 269.133 85.3187C268.842 85.6109 268.3 85.8075 267.823 85.8075C267.818 85.8075 267.812 85.8075 267.807 85.8075C267.775 85.8075 267.749 85.8341 267.749 85.866C267.749 85.8978 267.775 85.9244 267.807 85.9244C267.812 85.9191 267.818 85.9191 267.823 85.9191Z" fill="black"/>
<path d="M267.235 85.1703C267.527 85.1703 267.818 85.1278 268.089 85.0374C268.694 84.8408 269.235 84.4104 269.575 83.8685C269.591 83.8419 269.585 83.8047 269.559 83.7888C269.532 83.7728 269.495 83.7781 269.479 83.8047C269.156 84.3254 268.636 84.7346 268.057 84.9258C267.473 85.1171 266.815 85.0959 266.248 84.8674C266.221 84.8568 266.184 84.8674 266.173 84.8993C266.163 84.9312 266.173 84.963 266.205 84.9737C266.529 85.1012 266.879 85.1703 267.235 85.1703Z" fill="black"/>
<path d="M275.655 82.8111C275.623 82.8111 275.597 82.7845 275.597 82.7526C275.597 81.4986 276.361 79.7771 277.496 79.2085C277.523 79.1926 277.56 79.2085 277.571 79.2351C277.587 79.2616 277.571 79.2988 277.544 79.3095C276.446 79.8568 275.708 81.5305 275.708 82.7473C275.713 82.7845 275.687 82.8111 275.655 82.8111Z" fill="black"/>
<path d="M261.249 74.3573C261.249 74.3573 262.04 70.7228 264.884 69.5751C268.71 67.0034 278.479 66.9662 279.683 74.6761C280.84 82.0565 278.489 87.099 272.705 89.0385C272.705 89.0385 273.676 88.4646 274.801 87.1947C275.926 85.9248 276.112 84.9046 276.112 84.9046C279.386 83.8259 279.704 78.6134 277.943 78.0767C276.186 77.5347 275.178 80.133 275.178 80.133C275.178 80.133 273.772 78.3424 273.735 74.7823C273.735 74.7823 272.281 75.9938 270.938 75.218C269.596 74.4423 271.251 72.4975 271.251 72.4975C271.251 72.4975 268.524 75.3243 266.693 74.4582C264.863 73.5868 266.173 71.4136 266.173 71.4136C266.173 71.4136 264.231 74.166 261.249 74.3573Z" fill="#4F342F"/>
<path d="M299.125 128.996C301.173 130.845 304.956 132.53 306.018 131.164C306.893 130.038 305.912 127.795 304.532 126.036C303.481 124.697 301.645 123.879 301.645 123.879C301.645 123.879 305.45 123.683 304.07 122.471C302.685 121.265 297.475 121.966 297.475 121.966C294.837 113.087 289.006 107.907 289.006 107.907C289.006 107.907 287.547 103.396 284.193 97.7102C280.786 91.9344 276.998 91.7378 276.998 91.7378C276.998 91.7378 276.764 94.4317 277.831 98.3531C278.897 102.274 283.928 110.239 285.509 112.54C288.873 117.445 295.304 124.177 295.304 124.177C295.304 124.177 296.498 126.621 299.125 128.996Z" fill="#CC7646"/>
<path d="M306.283 129.532C306.294 129.532 306.304 129.522 306.315 129.516C306.336 129.495 306.336 129.458 306.31 129.437C306.278 129.405 303.02 126.652 302.473 126.291C302.468 126.28 302.463 126.275 302.457 126.27L302.452 126.275C302.425 126.259 302.404 126.249 302.399 126.249C302.378 126.254 302.367 126.27 302.362 126.291C302.356 126.312 302.367 126.339 302.383 126.349C302.388 126.355 302.394 126.36 302.399 126.36C302.616 126.525 305.36 128.714 306.235 129.516C306.251 129.527 306.267 129.532 306.283 129.532Z" fill="black"/>
<path d="M306.06 131.138C306.07 131.138 306.081 131.127 306.092 131.122C306.113 131.1 306.113 131.063 306.086 131.042C305.593 130.59 304.813 129.953 303.985 129.283C303.12 128.582 302.229 127.854 301.655 127.333C301.634 127.312 301.597 127.312 301.576 127.339C301.555 127.36 301.555 127.397 301.581 127.418C302.154 127.944 303.046 128.672 303.916 129.374C304.738 130.043 305.518 130.675 306.012 131.127C306.023 131.138 306.038 131.143 306.06 131.138Z" fill="black"/>
<path d="M304.967 131.7C304.983 131.7 304.994 131.69 305.004 131.679C305.02 131.652 305.015 131.615 304.988 131.599C303.832 130.802 302.553 129.697 300.86 128.177C300.839 128.156 300.802 128.156 300.78 128.183C300.759 128.204 300.759 128.241 300.786 128.262C302.478 129.787 303.763 130.898 304.925 131.695C304.935 131.695 304.951 131.7 304.967 131.7Z" fill="black"/>
<path d="M300.568 128.448C300.579 128.448 300.589 128.443 300.594 128.438C301.523 127.657 302.346 126.642 302.855 125.653C302.871 125.627 302.86 125.59 302.828 125.579C302.802 125.563 302.765 125.574 302.754 125.606C302.255 126.583 301.443 127.582 300.52 128.353C300.494 128.374 300.494 128.411 300.515 128.432C300.525 128.448 300.547 128.454 300.568 128.448Z" fill="black"/>
<path d="M291.919 111.18C290.285 109.049 289.001 107.907 289.001 107.907C289.001 107.907 287.542 103.396 284.188 97.7102C280.782 91.9344 276.993 91.7378 276.993 91.7378C276.993 91.7378 276.584 94.4264 277.651 98.3478C278.717 102.269 283.923 110.234 285.504 112.54C286.04 113.321 286.656 114.15 287.308 114.99C288.141 113.789 289.664 112.046 291.919 111.18Z" fill="#FFD45A"/>
<path d="M83.2657 77.896C83.2657 77.896 86.1523 77.0724 86.0037 72.8482C85.8498 68.624 72.685 64.2297 68.1056 69.1606C68.1056 69.1606 65.4737 68.3742 64.2533 71.0257C63.0328 73.6771 59.4989 102.471 64.0888 105.292C64.0888 105.292 65.4737 106.169 67.6493 106.291C67.6493 106.291 66.2856 105.42 65.9566 103.475C65.9566 103.475 68.1481 107.328 75.6989 106.663C75.6989 106.663 79.5937 107.965 82.146 105.431C82.146 105.431 82.1991 106.015 81.7958 106.934C81.7958 106.934 92.2704 101.036 83.2657 77.896Z" fill="#232228"/>
<path d="M95.3261 130.425C97.0294 132.598 100.473 134.91 101.752 133.741C102.808 132.779 102.224 130.404 101.163 128.438C100.356 126.94 98.685 125.818 98.685 125.818C98.685 125.818 102.474 126.275 101.317 124.851C100.16 123.422 94.9016 123.225 94.9016 123.225C92.0627 117.582 87.7646 110.856 87.7646 110.856C87.7646 110.856 87.0801 104.373 86.5336 98.1988C86.003 93.2413 81.7049 92.3965 81.7049 92.3965C81.7049 92.3965 80.7073 94.405 81.084 98.4486C81.4661 102.492 82.5857 111.132 83.7478 113.672C86.2205 119.081 92.3811 125.032 92.3811 125.032C92.3811 125.032 93.1452 127.636 95.3261 130.425Z" fill="#FFA05F"/>
<path d="M102.293 132.184C102.304 132.184 102.32 132.179 102.33 132.174C102.357 132.152 102.362 132.121 102.341 132.094C102.314 132.057 99.5764 128.789 99.0988 128.337C99.0988 128.327 99.0935 128.321 99.0882 128.311L99.0776 128.316C99.051 128.295 99.0351 128.284 99.0298 128.284C99.0086 128.289 98.9927 128.3 98.9821 128.321C98.9768 128.343 98.9821 128.369 98.9927 128.385C98.998 128.39 99.0033 128.396 99.0086 128.401C99.1943 128.603 101.524 131.233 102.251 132.168C102.261 132.179 102.277 132.184 102.293 132.184Z" fill="black"/>
<path d="M101.794 133.73C101.805 133.73 101.821 133.725 101.831 133.72C101.858 133.698 101.863 133.667 101.842 133.64C101.433 133.109 100.77 132.349 100.07 131.546C99.3374 130.707 98.5786 129.841 98.1116 129.224C98.0904 129.198 98.0585 129.193 98.032 129.214C98.0055 129.235 98.0002 129.267 98.0214 129.293C98.4937 129.91 99.2525 130.781 99.9847 131.621C100.685 132.423 101.343 133.178 101.752 133.709C101.762 133.72 101.778 133.73 101.794 133.73Z" fill="black"/>
<path d="M100.622 134.091C100.638 134.091 100.654 134.086 100.665 134.076C100.686 134.054 100.686 134.017 100.665 133.996C99.6616 133.013 98.5898 131.706 97.1836 129.915C97.1624 129.888 97.1305 129.888 97.104 129.904C97.0775 129.926 97.0775 129.958 97.0934 129.984C98.5049 131.78 99.5767 133.087 100.585 134.076C100.596 134.086 100.606 134.091 100.622 134.091Z" fill="black"/>
<path d="M96.8438 130.138C96.8544 130.138 96.865 130.138 96.8703 130.133C97.921 129.522 98.908 128.666 99.5765 127.779C99.5978 127.752 99.5925 127.72 99.5659 127.699C99.5394 127.678 99.5076 127.683 99.4863 127.71C98.8284 128.587 97.852 129.431 96.8173 130.037C96.7908 130.053 96.7801 130.09 96.7961 130.117C96.8014 130.127 96.8226 130.138 96.8438 130.138Z" fill="black"/>
<path d="M86.8312 101.498C86.7303 100.415 86.6242 99.2987 86.5287 98.1935C85.9981 93.236 81.7 92.3911 81.7 92.3911C81.7 92.3911 80.7024 94.3996 81.0791 98.4432C81.1747 99.4581 81.3179 100.755 81.493 102.179C82.6392 101.716 84.5229 101.212 86.8312 101.498Z" fill="white"/>
<path d="M81.573 169.022C81.573 169.022 87.4258 127.561 83.011 113.852C76.2986 115.271 69.5808 114.41 66.3652 113.82C65.0333 116.498 63.7174 120.526 63.6219 126.052C63.4202 137.439 64.8635 169.702 64.8635 169.702C64.8635 169.702 66.8215 171.281 70.3131 170.595C71.2311 164.729 73.0458 151.142 71.5547 143.565L74.054 123.576L76.4896 143.337C76.4896 143.337 72.6425 148.443 77.121 170.207C78.1876 170.34 80.2358 170.372 81.573 169.022Z" fill="#2F748C"/>
<path d="M78.4472 123.656C76.9774 123.582 75.3961 123.561 73.4646 123.593C73.4328 123.593 73.4062 123.566 73.4062 123.534C73.4062 123.502 73.4328 123.476 73.4646 123.476C75.3961 123.444 76.9827 123.465 78.4525 123.54C78.4844 123.54 78.5056 123.566 78.5056 123.598C78.5003 123.63 78.4791 123.656 78.4472 123.656Z" fill="black"/>
<path d="M73.9369 123.524C73.8998 123.524 73.8786 123.492 73.8786 123.465C73.9688 122.158 73.9263 120.803 73.8892 119.491C73.8733 118.97 73.8573 118.428 73.852 117.902C73.8308 116.504 73.8573 115.086 73.8786 113.715C73.9051 112.153 73.9316 110.537 73.8945 108.949C73.8945 108.917 73.921 108.89 73.9476 108.89C73.9794 108.89 74.0059 108.917 74.0059 108.943C74.0431 110.532 74.0165 112.147 73.99 113.709C73.9688 115.08 73.9422 116.499 73.9635 117.891C73.9688 118.417 73.9847 118.954 74.0006 119.475C74.0378 120.787 74.0802 122.147 73.99 123.46C73.9953 123.502 73.9688 123.524 73.9369 123.524Z" fill="black"/>
<path d="M75.3112 123.534C75.3059 123.534 75.3059 123.534 75.3006 123.534C75.2687 123.529 75.2475 123.497 75.2581 123.465C75.3643 122.976 75.3643 122.418 75.3643 121.882C75.3643 121.669 75.3643 121.462 75.3749 121.26C75.4067 120.32 75.412 119.363 75.4173 118.439C75.4226 117.737 75.4226 117.009 75.4385 116.292C75.4492 115.787 75.4545 115.272 75.4598 114.778C75.4651 113.959 75.4757 113.109 75.5128 112.28C75.5181 112.105 75.5287 111.924 75.5447 111.744C75.5818 111.074 75.6243 110.383 75.5394 109.746C75.5341 109.714 75.5553 109.687 75.5871 109.682C75.619 109.677 75.6455 109.698 75.6508 109.73C75.7357 110.378 75.6932 111.074 75.6561 111.749C75.6455 111.93 75.6349 112.11 75.6296 112.286C75.5924 113.114 75.5871 113.965 75.5765 114.783C75.5712 115.282 75.5659 115.793 75.5553 116.297C75.5394 117.009 75.5341 117.737 75.5341 118.439C75.5288 119.363 75.5234 120.32 75.4916 121.26C75.4863 121.462 75.4863 121.664 75.481 121.876C75.481 122.418 75.4757 122.982 75.3696 123.486C75.3589 123.513 75.3377 123.534 75.3112 123.534Z" fill="black"/>
<path d="M83.5097 115.691C82.9048 113.024 82.0293 111.053 80.8088 110.123C80.8088 110.123 85.8179 96.9399 84.2897 94.0334C84.0191 93.518 83.446 93.1035 82.7191 92.7741C80.0978 91.5838 75.4548 91.4776 75.4548 91.4776C75.4548 91.4776 67.7182 91.0525 66.3598 93.2204C64.9271 95.4999 69.2093 109.655 69.2093 109.655C69.2093 109.655 67.3044 111.43 65.7178 115.266C68.3762 116.61 75.9058 119.644 83.5097 115.691Z" fill="#FF9029"/>
<path d="M78.3521 89.1345C78.3521 89.1345 82.7881 88.8316 83.9237 84.7668C85.16 80.3513 85.0963 73.6244 81.9285 70.6966C78.7659 67.7689 67.7713 67.126 66.5191 75.1493C65.3835 82.4129 68.1428 87.0303 73.2156 89.2354V92.5723C73.2156 92.5723 75.1789 95.4097 78.3945 92.9655L78.3521 89.1345Z" fill="#FFA05F"/>
<mask id="mask4_500_2860" style="mask-type:luminance" maskUnits="userSpaceOnUse" x="66" y="68" width="19" height="26">
<path d="M78.3521 89.1345C78.3521 89.1345 82.7881 88.8316 83.9237 84.7668C85.16 80.3513 85.0963 73.6244 81.9285 70.6966C78.7659 67.7689 67.7713 67.126 66.5191 75.1493C65.3835 82.4129 68.1428 87.0303 73.2156 89.2354V92.5723C73.2156 92.5723 75.1789 95.4097 78.3945 92.9655L78.3521 89.1345Z" fill="white"/>
</mask>
<g mask="url(#mask4_500_2860)">
<path d="M71.4912 83.6937C71.4912 85.0964 72.6268 86.2335 74.0276 86.2335C75.4285 86.2335 76.564 85.0964 76.564 83.6937C76.564 82.2909 75.4285 81.1538 74.0276 81.1538C72.6268 81.1591 71.4912 82.2909 71.4912 83.6937Z" fill="#F48656"/>
</g>
<mask id="mask5_500_2860" style="mask-type:luminance" maskUnits="userSpaceOnUse" x="66" y="68" width="19" height="26">
<path d="M78.3521 89.1345C78.3521 89.1345 82.7881 88.8316 83.9237 84.7668C85.16 80.3513 85.0963 73.6244 81.9285 70.6966C78.7659 67.7689 67.7713 67.126 66.5191 75.1493C65.3835 82.4129 68.1428 87.0303 73.2156 89.2354V92.5723C73.2156 92.5723 75.1789 95.4097 78.3945 92.9655L78.3521 89.1345Z" fill="white"/>
</mask>
<g mask="url(#mask5_500_2860)">
<path d="M81.228 83.4437C81.228 84.8464 82.3636 85.9835 83.7644 85.9835C85.1653 85.9835 86.3008 84.8464 86.3008 83.4437C86.3008 82.0409 85.1653 80.9038 83.7644 80.9038C82.3636 80.9038 81.228 82.0409 81.228 83.4437Z" fill="#F48656"/>
</g>
<path d="M80.4005 84.31C80.3846 84.31 80.3634 84.2994 80.3528 84.2835C80.3369 84.2569 80.3422 84.2197 80.3687 84.2038C80.4377 84.1559 80.5014 84.0497 80.5597 83.9593C80.581 83.9221 80.6022 83.8903 80.6234 83.8637C80.7508 83.683 80.9736 83.2739 80.8993 83.0295C80.8834 82.9817 80.6818 82.8913 80.5969 82.8488C80.5332 82.8222 80.4854 82.7957 80.4589 82.7797C80.1936 82.5991 79.8275 82.3068 79.5834 81.9296C79.1483 81.2707 78.9254 80.3462 78.9838 79.4057C79.0421 78.3483 79.5409 77.2909 80.2785 76.648C80.825 76.1751 81.4724 75.9572 82.1463 76.0156C82.4488 76.0422 82.7725 76.0954 83.0855 76.2866C83.1121 76.3026 83.1227 76.3398 83.1014 76.3663C83.0855 76.3929 83.0484 76.4035 83.0219 76.3823C82.7459 76.2122 82.47 76.1591 82.1357 76.1272C81.4883 76.0688 80.8728 76.2813 80.3528 76.733C79.6364 77.3547 79.1536 78.3802 79.0952 79.411C79.0421 80.3302 79.2544 81.2229 79.6789 81.8658C79.9177 82.2271 80.2679 82.5088 80.5226 82.6841C80.5385 82.6947 80.5916 82.7213 80.6446 82.7425C80.841 82.8329 80.9842 82.9073 81.0108 82.9923C81.0957 83.2792 80.8675 83.7149 80.7189 83.9275C80.6977 83.954 80.6818 83.9859 80.6606 84.0231C80.5969 84.1241 80.5279 84.2356 80.4377 84.2994C80.4218 84.31 80.4112 84.31 80.4005 84.31Z" fill="black"/>
<path d="M77.4498 77.1047C77.4339 77.1047 77.418 77.0994 77.4073 77.0888C76.5 76.1376 75.2212 75.8082 73.9901 76.1961C73.7036 76.2864 73.4913 76.4565 73.2738 76.6424C73.1517 76.7434 73.0244 76.8443 72.8864 76.9347C72.8599 76.9506 72.8227 76.9453 72.8068 76.9187C72.7909 76.8922 72.7962 76.855 72.8227 76.839C72.9554 76.754 73.0774 76.6531 73.1995 76.5574C73.4223 76.3767 73.6505 76.1908 73.9583 76.0898C75.2318 75.686 76.553 76.0314 77.4922 77.0144C77.5135 77.0356 77.5135 77.0728 77.4922 77.0941C77.4763 77.0994 77.4657 77.1047 77.4498 77.1047Z" fill="black"/>
<path d="M76.2775 78.6985C76.251 78.6985 76.2298 78.6826 76.2245 78.656C76.2139 78.6241 76.2351 78.5923 76.2616 78.5869C76.8188 78.4275 76.7869 77.6677 76.7869 77.6571C76.7869 77.6252 76.8082 77.5986 76.84 77.5986C76.8718 77.5986 76.8984 77.6199 76.8984 77.6518C76.8984 77.6624 76.9355 78.5072 76.2882 78.6932C76.2882 78.6985 76.2828 78.6985 76.2775 78.6985Z" fill="black"/>
<path d="M82.9792 78.5765C82.9527 78.5765 82.9314 78.5605 82.9261 78.534C82.9155 78.5021 82.9367 78.4702 82.9633 78.4649C83.5204 78.3055 83.4886 77.5456 83.4886 77.535C83.4886 77.5031 83.5098 77.4766 83.5417 77.4766C83.5735 77.4766 83.6 77.4978 83.6 77.5297C83.6 77.5403 83.6372 78.3852 82.9898 78.5712C82.9898 78.5765 82.9845 78.5765 82.9792 78.5765Z" fill="black"/>
<path d="M73.4276 80.537C72.9288 79.3149 73.3427 78.0184 74.3562 77.6358C75.3697 77.2586 76.5955 77.9387 77.0943 79.1608C77.5931 80.3829 77.1792 81.6794 76.1657 82.062C75.1522 82.4445 73.9264 81.7591 73.4276 80.537Z" fill="white"/>
<mask id="mask6_500_2860" style="mask-type:luminance" maskUnits="userSpaceOnUse" x="73" y="77" width="5" height="6">
<path d="M73.4276 80.537C72.9288 79.3149 73.3427 78.0184 74.3562 77.6358C75.3697 77.2586 76.5955 77.9387 77.0943 79.1608C77.5931 80.3829 77.1792 81.6794 76.1657 82.062C75.1522 82.4445 73.9264 81.7591 73.4276 80.537Z" fill="white"/>
</mask>
<g mask="url(#mask6_500_2860)">
<path d="M74.5789 80.2178C74.6001 81.3018 75.3801 82.1679 76.3299 82.1519C77.2745 82.136 78.0279 81.238 78.0067 80.1541C77.9855 79.0701 77.2055 78.204 76.2556 78.2199C75.3111 78.2412 74.5629 79.1339 74.5789 80.2178Z" fill="#75421C"/>
</g>
<path d="M83.5313 79.7296C83.6586 78.4171 82.9423 77.2854 81.9288 77.2057C80.9153 77.1259 79.9814 78.1196 79.854 79.432C79.7267 80.7444 80.443 81.8762 81.4565 81.9559C82.4753 82.0356 83.4039 81.042 83.5313 79.7296Z" fill="white"/>
<mask id="mask7_500_2860" style="mask-type:luminance" maskUnits="userSpaceOnUse" x="79" y="77" width="5" height="5">
<path d="M83.5313 79.7296C83.6586 78.4171 82.9423 77.2854 81.9288 77.2057C80.9153 77.1259 79.9814 78.1196 79.854 79.432C79.7267 80.7444 80.443 81.8762 81.4565 81.9559C82.4753 82.0356 83.4039 81.042 83.5313 79.7296Z" fill="white"/>
</mask>
<g mask="url(#mask7_500_2860)">
<path d="M80.6972 80.1705C80.7184 81.2544 81.4985 82.1205 82.4483 82.1046C83.3928 82.0886 84.1463 81.1907 84.1251 80.1067C84.1038 79.0227 83.3238 78.1566 82.374 78.1726C81.4295 78.1885 80.676 79.0812 80.6972 80.1705Z" fill="#75421C"/>
</g>
<path d="M77.9332 86.6852C77.9809 86.6905 78.0287 86.6905 78.0764 86.6905C78.1083 86.6905 78.1348 86.6639 78.1348 86.632C78.1348 86.6001 78.1083 86.5789 78.0764 86.5736C77.5936 86.5736 77.047 86.3717 76.7552 86.0794C76.734 86.0582 76.6968 86.0582 76.6756 86.0794C76.6544 86.1007 76.6544 86.1379 76.6756 86.1591C76.9993 86.4939 77.514 86.6586 77.9332 86.6852Z" fill="black"/>
<path d="M80.0767 84.6871C80.0767 84.6871 77.6252 85.1068 76.2721 83.3853C76.2721 83.3853 76.1395 85.4469 77.4926 85.9198C79.3604 86.5787 80.0767 84.6871 80.0767 84.6871Z" fill="#421C0D"/>
<mask id="mask8_500_2860" style="mask-type:luminance" maskUnits="userSpaceOnUse" x="76" y="83" width="5" height="4">
<path d="M80.0767 84.6871C80.0767 84.6871 77.6252 85.1068 76.2721 83.3853C76.2721 83.3853 76.1395 85.4469 77.4926 85.9198C79.3604 86.5787 80.0767 84.6871 80.0767 84.6871Z" fill="white"/>
</mask>
<g mask="url(#mask8_500_2860)">
<path d="M76.2721 83.3853C76.7709 84.0229 77.4236 84.3683 78.0444 84.5489C78.2249 84.9634 78.331 85.4894 78.1771 86.0633C77.9648 86.0579 77.7367 86.0154 77.4873 85.9251C76.1395 85.4416 76.2721 83.3853 76.2721 83.3853Z" fill="#ED765F"/>
</g>
<mask id="mask9_500_2860" style="mask-type:luminance" maskUnits="userSpaceOnUse" x="76" y="83" width="5" height="4">
<path d="M80.0767 84.6871C80.0767 84.6871 77.6252 85.1068 76.2721 83.3853C76.2721 83.3853 76.1395 85.4469 77.4926 85.9198C79.3604 86.5787 80.0767 84.6871 80.0767 84.6871Z" fill="white"/>
</mask>
<g mask="url(#mask9_500_2860)">
<path d="M76.1074 83.9113C76.1074 83.9113 76.4576 84.347 77.036 84.7083C77.8585 85.2237 79.0842 85.4203 79.5989 84.5649L76.187 82.8008L76.1074 83.9113Z" fill="white"/>
</g>
<path d="M70.2653 83.0081C70.2334 83.0081 70.2069 82.9815 70.2069 82.9496C70.2069 81.7328 69.4693 80.0591 68.3709 79.5118C68.3444 79.4958 68.3338 79.4639 68.3444 79.4374C68.3603 79.4108 68.3922 79.4002 68.4187 79.4108C69.5542 79.9794 70.3183 81.7009 70.3183 82.9549C70.3183 82.9868 70.2971 83.0081 70.2653 83.0081Z" fill="black"/>
<path d="M81.2862 70.0165C77.4604 67.4448 67.4422 67.1632 66.2376 74.8731C65.0809 82.2535 67.4315 87.296 73.2154 89.2355L69.8141 85.0962C66.5401 84.0176 66.2217 78.8051 67.9834 78.2684C69.7398 77.7264 70.748 80.3247 70.748 80.3247C70.748 80.3247 74.0962 77.7689 73.8521 71.7593C73.8521 71.7593 78.6543 75.5585 84.4063 75.9198C84.4063 75.9198 84.9741 72.0516 81.2862 70.0165Z" fill="#232228"/>
<path d="M46.8591 129.336C44.8109 131.185 41.0275 132.87 39.9662 131.504C39.0907 130.378 40.0724 128.135 41.452 126.377C42.5026 125.038 44.3386 124.219 44.3386 124.219C44.3386 124.219 40.534 124.023 41.9136 122.811C43.2986 121.605 48.5093 122.306 48.5093 122.306C51.1466 113.428 56.9782 108.247 56.9782 108.247C56.9782 108.247 58.3684 103.693 61.791 98.0502C64.8951 92.928 67.8666 92.1895 67.8666 92.1895C67.8666 92.1895 69.2197 94.7771 68.1532 98.6985C67.0866 102.62 62.0563 110.585 60.475 112.886C57.1108 117.79 50.6796 124.522 50.6796 124.522C50.6796 124.522 49.4857 126.966 46.8591 129.336Z" fill="#FFA05F"/>
<path d="M39.701 129.873C39.6903 129.873 39.6797 129.862 39.6691 129.857C39.6479 129.835 39.6479 129.798 39.6744 129.777C39.7063 129.745 42.9643 126.993 43.5109 126.631C43.5162 126.621 43.5215 126.615 43.5268 126.61L43.5321 126.615C43.5586 126.599 43.5798 126.589 43.5852 126.589C43.6064 126.594 43.617 126.61 43.6223 126.631C43.6276 126.653 43.617 126.679 43.6011 126.69C43.5958 126.695 43.5905 126.7 43.5852 126.7C43.3676 126.865 40.6242 129.054 39.7487 129.857C39.7381 129.873 39.7169 129.878 39.701 129.873Z" fill="black"/>
<path d="M39.929 131.483C39.9184 131.483 39.9078 131.472 39.8971 131.467C39.8759 131.446 39.8759 131.409 39.9025 131.387C40.3959 130.936 41.176 130.298 42.0037 129.628C42.8687 128.927 43.7601 128.199 44.3332 127.678C44.3544 127.657 44.3916 127.657 44.4128 127.684C44.434 127.705 44.434 127.742 44.4075 127.763C43.8344 128.289 42.943 129.017 42.0727 129.719C41.2502 130.388 40.4702 131.021 39.9767 131.472C39.9661 131.483 39.9449 131.488 39.929 131.483Z" fill="black"/>
<path d="M41.0222 132.041C41.0063 132.041 40.9956 132.03 40.985 132.019C40.9691 131.993 40.9744 131.956 41.0009 131.94C42.1577 131.143 43.4365 130.037 45.1292 128.518C45.1505 128.497 45.1876 128.497 45.2088 128.523C45.23 128.544 45.2301 128.582 45.2035 128.603C43.5108 130.128 42.2267 131.238 41.0646 132.035C41.0487 132.041 41.0381 132.046 41.0222 132.041Z" fill="black"/>
<path d="M45.4208 128.794C45.4102 128.794 45.3996 128.789 45.3943 128.783C44.4657 128.002 43.6432 126.987 43.1338 125.999C43.1179 125.973 43.1285 125.935 43.1603 125.925C43.1868 125.909 43.224 125.919 43.2346 125.951C43.7334 126.929 44.5452 127.928 45.4685 128.698C45.4951 128.72 45.4951 128.757 45.4738 128.778C45.4579 128.789 45.4367 128.799 45.4208 128.794Z" fill="black"/>
<path d="M64.8632 169.708C64.8632 169.708 56.2246 173.433 55.4498 176.86C54.6751 180.287 68.0522 175.282 69.8405 173.427C69.8405 173.427 70.0368 172.359 70.3127 170.601C66.8212 171.286 64.8632 169.708 64.8632 169.708Z" fill="#FF9536"/>
<path d="M61.3769 175.383C61.3133 175.367 61.2708 175.314 61.2284 175.26C60.5332 174.405 59.6842 173.677 58.7397 173.108C57.1213 174.261 55.7364 175.579 55.4498 176.854C54.6751 180.282 68.0522 175.276 69.8405 173.422C69.8405 173.422 69.9572 172.795 70.1323 171.716C67.3147 172.992 64.4493 174.166 61.5892 175.345C61.5202 175.377 61.4459 175.404 61.3769 175.383Z" fill="#F8F8F8"/>
<path d="M81.5726 169.023C80.2354 170.367 78.1872 170.341 77.1206 170.208C77.3753 171.435 77.6512 172.721 77.959 174.06C77.959 174.06 90.2855 180.766 91.2884 178.152C92.2859 175.543 81.5726 169.023 81.5726 169.023Z" fill="#FF9536"/>
<path d="M87.8021 173.396C86.8257 173.927 85.9608 174.676 85.3188 175.585C82.464 174.384 80.1611 173.098 77.4761 171.892C77.63 172.599 77.7891 173.321 77.9589 174.06C77.9589 174.06 90.2854 180.76 91.2883 178.151C91.7181 177.02 89.9458 175.149 87.8021 173.396Z" fill="#F8F8F8"/>
<path d="M67.8719 92.1895C67.8719 92.1895 64.9057 92.928 61.7962 98.0502C61.377 98.7463 60.9844 99.4211 60.6235 100.08C61.8599 100.42 64.0408 101.291 66.1155 103.465C67.0441 101.674 67.8082 99.9737 68.1531 98.6985C69.225 94.7771 67.8719 92.1895 67.8719 92.1895Z" fill="white"/>
</svg>
