<svg width="19" height="19" viewBox="0 0 19 19" fill="none" xmlns="http://www.w3.org/2000/svg">
<path fill-rule="evenodd" clip-rule="evenodd" d="M17.3686 8.68431H18.0366C18.4056 8.68431 18.7047 8.98339 18.7047 9.35233V15.3645C18.7047 15.7335 18.4056 16.0326 18.0366 16.0326H17.3686V18.0366C17.3686 18.4056 17.0695 18.7047 16.7006 18.7047H14.0285C13.6596 18.7047 13.3605 18.4056 13.3605 18.0366V16.0326H5.34419V18.0366C5.34419 18.4056 5.04511 18.7047 4.67617 18.7047H2.00407C1.63513 18.7047 1.33605 18.4056 1.33605 18.0366V16.0326H0.668024C0.299084 16.0326 0 15.7335 0 15.3645V9.35233C0 8.98339 0.299084 8.68431 0.668024 8.68431H1.33605V1.96399C1.33605 0.879308 2.21536 0 3.30004 0H15.4046C16.4893 0 17.3686 0.879308 17.3686 1.96399V8.68431ZM3.30004 1.33605C2.95323 1.33605 2.67209 1.61719 2.67209 1.96399V8.68431H3.67413V5.93205C3.67413 5.56311 3.97321 5.26403 4.34215 5.26403H14.3625C14.7314 5.26403 15.0305 5.56311 15.0305 5.93205V8.68431H16.0326V1.96399C16.0326 1.61719 15.7514 1.33605 15.4046 1.33605H3.30004ZM5.01018 8.68431V6.60007H8.68431V8.68431H5.01018ZM13.6945 6.60007H10.0204V8.68431H13.6945V6.60007ZM2.00407 10.0204H17.3686V11.1092H1.33605V10.0204H2.00407ZM2.67209 17.3686H4.00814V16.0326H2.67209V17.3686ZM16.0326 17.3686H14.6965V16.0326H16.0326V17.3686ZM1.33605 12.4453V14.6965H17.3686V12.4453H1.33605Z" fill="#FF9029"/>
</svg>
