<svg width="122" height="143" viewBox="0 0 122 143" fill="none" xmlns="http://www.w3.org/2000/svg">
<path d="M106.701 59.0175C106.701 58.7908 106.701 58.5847 106.701 58.3786C106.701 54.7981 106.696 51.2124 106.701 47.6318C106.706 45.9471 107.923 44.5922 109.572 44.4016C111.253 44.2058 112.769 45.2671 113.14 46.9208C113.212 47.23 113.218 47.5648 113.218 47.8842C113.223 68.5794 113.223 89.2694 113.218 109.965C113.218 112.149 111.877 113.478 109.686 113.478C76.5032 113.478 43.3256 113.478 10.1429 113.478C8.47246 113.478 7.18867 112.473 6.83292 110.892C6.5081 109.434 7.266 107.857 8.67354 107.275C9.21489 107.054 9.85421 106.976 10.4523 106.971C18.9181 106.951 27.3839 106.961 35.8549 106.961C59.2158 106.961 82.5767 106.961 105.932 106.961C106.159 106.961 106.386 106.961 106.649 106.961C106.649 93.1642 106.649 79.3983 106.649 65.6067C93.1616 65.6067 79.6688 65.6067 66.1091 65.6067C66.1091 66.2559 66.1039 66.8947 66.1091 67.5335C66.1246 70.4289 66.1555 73.3243 66.1607 76.2196C66.1761 81.0573 66.1658 85.9 66.1864 90.7376C66.1968 93.8803 66.2535 97.023 66.2535 100.166C66.2535 102.803 63.7065 104.411 61.4483 103.216C60.3552 102.633 59.7572 101.701 59.7417 100.444C59.7159 98.5376 59.7056 96.6366 59.7005 94.7304C59.6747 85.9464 59.6541 77.1624 59.6231 68.3836C59.5973 60.6506 59.5612 52.9125 59.5303 45.1795C59.5097 39.9606 59.4942 34.7418 59.4684 29.5178C59.453 26.0505 59.422 22.5833 59.422 19.1161C59.422 17.859 59.9892 16.8699 61.0925 16.2568C62.1959 15.6437 63.3353 15.6746 64.4077 16.3341C65.3976 16.9472 65.9235 17.8642 65.939 19.044C65.9544 20.4144 65.9544 21.7899 65.9596 23.1603C65.9751 27.4828 65.9854 31.8104 66.0008 36.1328C66.0266 43.603 66.0524 51.0681 66.0782 58.5383C66.0782 58.6877 66.0885 58.8372 66.0988 59.0175C79.6379 59.0175 93.1461 59.0175 106.701 59.0175Z" fill="#160678"/>
<path d="M11.9425 39.8011C10.4112 40.8005 8.9779 41.733 7.54974 42.6707C6.73513 43.2013 5.92567 43.7422 5.11105 44.2626C3.53338 45.2724 1.502 44.8654 0.527551 43.3456C-0.462362 41.8 -0.0241213 39.8165 1.5484 38.7861C16.0104 29.3376 30.4776 19.889 44.9396 10.4456C49.9304 7.18445 54.9212 3.9233 59.912 0.662155C61.2835 -0.234274 62.5724 -0.218818 63.9026 0.698218C82.7161 13.6552 101.524 26.6071 120.338 39.5641C122.323 40.9345 122.565 43.3352 120.874 44.8705C119.755 45.8906 118.116 45.9627 116.76 45.0354C113.79 43.0004 110.831 40.9551 107.861 38.9098C92.6771 28.4514 77.4881 17.9931 62.3095 7.51932C61.9589 7.27718 61.7165 7.26172 61.3556 7.49871C49.0848 15.5305 36.8037 23.552 24.5278 31.5786C22.6769 32.7893 20.8362 34.0052 18.9698 35.1901C18.5883 35.4323 18.4543 35.695 18.4543 36.1484C18.4646 57.2402 18.4646 78.332 18.4646 99.429C18.4646 101.907 16.0671 103.509 13.8553 102.494C12.6849 101.959 12.0662 100.995 11.9528 99.7175C11.9322 99.5114 11.9476 99.3002 11.9476 99.089C11.9476 79.5942 11.9476 60.1046 11.9476 40.6099C11.9425 40.3832 11.9425 40.1514 11.9425 39.8011Z" fill="white"/>
<path d="M29.4776 84.1794C29.4776 88.2391 29.4776 92.2112 29.4776 96.2452C29.7251 96.2452 29.9519 96.2452 30.1736 96.2452C37.3247 96.2452 44.4758 96.2452 51.6269 96.2452C53.5139 96.2452 54.8389 97.291 55.1535 99.0117C55.4989 100.892 53.9934 102.752 52.0858 102.757C43.4085 102.767 34.7365 102.767 26.0593 102.757C24.4094 102.757 23.038 101.397 22.94 99.7124C22.9297 99.5784 22.9349 99.4445 22.9349 99.3105C22.9349 87.0387 22.9349 74.7721 22.9349 62.5003C22.9349 60.7796 23.8887 59.4916 25.4458 59.1258C25.719 59.064 26.0129 59.0537 26.2965 59.0537C34.819 59.0485 43.3415 59.0485 51.8641 59.0537C53.7872 59.0537 55.1947 60.4241 55.1999 62.356C55.2102 68.5125 55.2102 74.6639 55.1999 80.8204C55.1947 82.8142 53.7717 84.1794 51.7248 84.1794C44.5531 84.1846 37.3866 84.1794 30.2149 84.1794C29.9829 84.1794 29.756 84.1794 29.4776 84.1794ZM29.4776 77.5953C35.8862 77.5953 42.2588 77.5953 48.6262 77.5953C48.6262 73.5665 48.6262 69.579 48.6262 65.6017C42.2227 65.6017 35.8656 65.6017 29.4776 65.6017C29.4776 69.5996 29.4776 73.5717 29.4776 77.5953Z" fill="white"/>
<path d="M52.8328 142.937C50.2034 142.891 47.2542 141.793 45.0837 139.073C41.8716 135.034 42.6862 129.14 46.8366 126.049C50.6932 123.174 56.5244 123.154 60.35 126.065C63.0774 128.141 64.2735 130.964 63.9281 134.364C63.5569 138.079 61.4636 140.567 58.1175 142.066C56.6894 142.7 55.1736 142.942 52.8328 142.937ZM53.5753 138.785C56.777 138.79 58.9064 136.693 58.9115 133.524C58.9167 130.222 56.8698 128.048 53.7454 128.038C50.3787 128.027 48.239 130.068 48.2338 133.293C48.2235 136.677 50.2704 138.779 53.5753 138.785Z" fill="#160678"/>
<path d="M27.8329 135.152C27.8329 137.672 27.8329 140.18 27.8329 142.726C26.1728 142.726 24.5435 142.726 22.873 142.726C22.873 136.564 22.873 130.387 22.873 124.179C24.5126 124.179 26.1418 124.179 27.8123 124.179C27.8123 126.595 27.8123 128.985 27.8123 131.412C30.3799 131.412 32.9062 131.412 35.479 131.412C35.479 129.011 35.479 126.621 35.479 124.189C37.1494 124.189 38.7735 124.189 40.4285 124.189C40.4285 130.366 40.4285 136.533 40.4285 142.731C38.8045 142.731 37.1804 142.731 35.5151 142.731C35.5151 140.211 35.5151 137.708 35.5151 135.152C32.9578 135.152 30.4314 135.152 27.8329 135.152Z" fill="#160678"/>
<path d="M66.6503 124.173C68.295 124.173 69.9036 124.173 71.5792 124.173C71.5792 124.4 71.5792 124.606 71.5792 124.807C71.5792 128.233 71.574 131.664 71.5844 135.09C71.5844 135.544 71.6256 136.007 71.7287 136.445C72.1206 138.053 73.59 138.928 75.5079 138.727C77.6321 138.506 78.6581 137.388 78.6684 135.224C78.6839 131.757 78.6736 128.29 78.6736 124.828C78.6736 124.622 78.6736 124.415 78.6736 124.178C80.3492 124.178 81.9784 124.178 83.6438 124.178C83.6541 124.379 83.6695 124.565 83.6695 124.75C83.6695 128.104 83.6747 131.453 83.6695 134.807C83.6695 136.605 83.3963 138.326 82.2517 139.809C80.8287 141.664 78.8695 142.54 76.6267 142.833C74.5953 143.101 72.5897 142.952 70.7027 142.071C68.2021 140.902 66.774 138.882 66.6863 136.167C66.5523 132.195 66.6503 128.212 66.6503 124.173Z" fill="#160778"/>
<path d="M86.5316 137.203C88.3052 137.203 90.0169 137.203 91.7286 137.203C92.3783 139.058 93.8013 139.769 95.5233 139.094C96.1059 138.867 96.5338 138.481 96.6215 137.826C96.7091 137.157 96.5029 136.564 95.9048 136.276C94.9871 135.833 94.0281 135.472 93.0691 135.122C91.9297 134.704 90.7284 134.421 89.6251 133.931C86.3408 132.473 85.9748 129.429 87.1245 127.059C87.7174 125.833 88.7847 125.07 90.0272 124.612C92.7804 123.597 95.5542 123.602 98.2662 124.735C100.334 125.596 101.514 127.347 101.55 129.444C99.7923 129.444 98.0393 129.444 96.2812 129.444C95.7038 127.909 94.6313 127.28 93.1774 127.631C92.3783 127.826 91.9246 128.285 91.8317 128.996C91.7441 129.686 92.0174 130.299 92.7495 130.614C93.8992 131.103 95.0954 131.484 96.2709 131.917C97.1628 132.247 98.0702 132.54 98.9261 132.937C103.133 134.885 102.339 139.599 99.6428 141.479C97.8486 142.731 95.8326 143.03 93.7188 142.932C92.3422 142.87 90.9965 142.612 89.7488 141.989C87.934 141.077 86.7327 139.702 86.5316 137.605C86.5264 137.486 86.5316 137.373 86.5316 137.203Z" fill="#160778"/>
<path d="M117.301 124.184C117.301 125.399 117.301 126.574 117.301 127.805C114.816 127.805 112.347 127.805 109.856 127.805C109.856 129.062 109.856 130.258 109.856 131.51C112.032 131.51 114.193 131.51 116.389 131.51C116.389 132.715 116.389 133.869 116.389 135.075C114.218 135.075 112.058 135.075 109.862 135.075C109.862 136.435 109.862 137.738 109.862 139.093C112.326 139.093 114.796 139.093 117.296 139.093C117.296 140.33 117.296 141.52 117.296 142.736C113.156 142.736 109.026 142.736 104.876 142.736C104.876 136.548 104.876 130.386 104.876 124.184C109.006 124.184 113.13 124.184 117.301 124.184Z" fill="#160678"/>
<path d="M20.1457 136.487C16.4336 136.487 12.7575 136.487 9.08654 136.487C9.0453 137.914 10.1229 139.084 11.5768 139.223C12.7626 139.336 13.8144 139.12 14.5208 138.027C14.5826 137.93 14.7631 137.852 14.892 137.852C16.5315 137.842 18.1659 137.847 19.9498 137.847C19.7023 138.398 19.5373 138.898 19.2744 139.341C18.336 140.943 16.9337 141.984 15.1807 142.53C13.041 143.195 10.8911 143.164 8.7875 142.381C5.32281 141.093 3.74514 138.002 4.10089 134.426C4.51851 130.269 7.67385 127.997 11.4891 127.785C13.4483 127.677 15.3199 127.966 17.0316 129.006C19.6095 130.578 20.6716 133.586 20.1457 136.487ZM9.11232 133.911C11.1179 133.911 13.1184 133.911 15.1188 133.911C15.2271 132.592 14.098 131.526 12.5358 131.438C10.6178 131.33 9.16388 132.365 9.11232 133.911Z" fill="white"/>
</svg>
