<svg width="31" height="24" viewBox="0 0 31 24" fill="none" xmlns="http://www.w3.org/2000/svg">
<g clip-path="url(#clip0_496_2239)">
<path d="M7.04548 23.1954V11.2493L3.33093 7.85987L0 5.979V21.0872C0 22.2537 0.947559 23.1954 2.11369 23.1954H7.04548Z" fill="#4285F4"/>
<path d="M23.9545 23.1952H28.8863C30.0559 23.1952 30.9999 22.25 30.9999 21.0871V5.979L27.2271 8.13331L23.9545 11.2491V23.1952Z" fill="#34A853"/>
<path d="M7.04548 11.2494L6.54004 6.5817L7.04548 2.11426L15.5 8.43866L23.9545 2.11426L24.5199 6.34051L23.9545 11.2494L15.5 17.5738L7.04548 11.2494Z" fill="#EA4335"/>
<path d="M23.9545 2.11405V11.2492L30.9999 5.97894V3.16808C30.9999 0.561096 28.0162 -0.925073 25.9273 0.638393L23.9545 2.11405Z" fill="#FBBC04"/>
<path d="M0 5.97899L3.24035 8.403L7.04548 11.2492V2.11411L5.07262 0.638448C2.98012 -0.925138 0 0.561151 0 3.16801V5.97887V5.97899Z" fill="#C5221F"/>
</g>
<defs>
<clipPath id="clip0_496_2239">
<rect width="31" height="23.3101" fill="white"/>
</clipPath>
</defs>
</svg>
