<svg width="347" height="294" viewBox="0 0 347 294" fill="none" xmlns="http://www.w3.org/2000/svg">
<path d="M316.444 162.823C311.671 171.353 305.536 178.244 298.486 183.942C264.341 211.498 208.607 210.775 180.908 230.667C147.487 254.668 47.9944 269.341 17.3207 200.657C14.8416 195.119 12.9591 189.539 11.6061 183.942C5.5554 158.865 10.2111 133.679 20.4973 112.081C36.3804 78.7435 65.6508 53.8767 89.6603 51.0195C136.99 45.3805 149.327 62.3225 177.824 66.6589C206.33 70.9952 242.214 39.3382 285.334 42.809C301.04 44.0695 313.133 53.7255 320.798 67.8942C334.227 92.6181 334.185 131.133 316.444 162.823Z" fill="url(#paint0_linear_500_2327)"/>
<path d="M316.444 162.823C311.671 171.353 305.536 178.244 298.486 183.942C264.341 211.498 208.607 210.775 180.908 230.667C147.487 254.668 47.9944 269.341 17.3207 200.657C14.8416 195.119 12.9591 189.539 11.6061 183.942C5.5554 158.865 10.2111 133.679 20.4973 112.081C24.7496 109.796 30.9684 108.039 39.9772 108.207C64.6507 108.653 70.9283 130.494 70.9283 130.494C70.9283 130.494 82.8785 116.325 96.0976 117.325C109.325 118.325 110.325 138.99 110.325 138.99C110.325 138.99 139.999 106.468 171.328 119.569C201.464 132.158 204.162 158.504 204.321 160.512C204.254 158.941 203.893 142.478 220.364 138.99C237.668 135.326 242.348 146.772 242.348 146.772C242.348 146.772 250.903 65.0035 320.798 67.886C334.227 92.6183 334.185 131.133 316.444 162.823Z" fill="url(#paint1_linear_500_2327)"/>
<path d="M162.773 165.908C162.773 165.908 172.109 161.765 178.555 163.655C185.001 165.546 184 173.631 184 173.631C184 173.631 185.891 170.378 189.446 173.631C193.001 176.883 191.228 180.438 191.228 180.438C191.228 180.438 203.447 175.807 207.119 184.068C210.783 192.329 189.337 193.438 189.337 193.438C189.337 193.438 159.672 191.22 160.781 187.993C161.89 184.774 162.773 165.908 162.773 165.908Z" fill="url(#paint2_linear_500_2327)"/>
<path d="M70.827 165.908C70.827 165.908 61.4904 161.765 55.0447 163.655C48.599 165.546 49.599 173.631 49.599 173.631C49.599 173.631 47.7082 170.378 44.1534 173.631C40.5986 176.883 42.3718 180.438 42.3718 180.438C42.3718 180.438 30.1527 175.807 26.4803 184.068C22.8162 192.329 44.2627 193.438 44.2627 193.438C44.2627 193.438 73.928 191.22 72.8187 187.993C71.7178 184.774 70.827 165.908 70.827 165.908Z" fill="url(#paint3_linear_500_2327)"/>
<path d="M298.485 183.942C295.829 186.085 293.039 188.06 290.14 189.884C269.047 203.17 242.272 208.607 218.826 215.078C204.128 219.129 190.749 223.6 180.9 230.667C172.815 236.466 160.873 241.718 146.982 245.399C140.595 247.08 133.796 248.433 126.771 249.341C111.963 251.257 96.1475 251.24 81.0543 248.324C66.1628 245.45 51.9773 239.777 40.1448 230.373C30.7914 222.936 22.917 213.179 17.3117 200.657C14.8326 195.119 12.9502 189.539 11.5972 183.942H298.485Z" fill="url(#paint4_linear_500_2327)"/>
<path d="M151.436 232.557C147.117 236.801 146.192 241.264 146.982 245.398C140.596 247.079 133.797 248.432 126.771 249.34C111.964 251.256 96.148 251.239 81.0549 248.323C87.7863 238.701 108.502 231.608 116.762 222.784C126.544 212.346 66.987 219.893 69.2056 205.892C71.4326 191.892 80.3153 192.387 80.3153 192.387L100.989 194.177C100.989 194.177 97.4338 203.901 122.771 207.01C148.109 210.111 165.437 218.775 151.436 232.557Z" fill="url(#paint5_linear_500_2327)"/>
<path opacity="0.45" d="M290.14 189.883C269.047 203.17 242.272 208.607 218.826 215.078C204.128 219.128 190.749 223.599 180.9 230.667C172.815 236.465 160.874 241.718 146.982 245.399C140.595 247.079 133.797 248.432 126.771 249.34C111.964 251.256 96.1477 251.239 81.0546 248.323C66.1631 245.449 51.9775 239.776 40.145 230.373C52.3305 235.902 70.3314 240.617 96.0721 240.289C156.747 239.524 160.302 210.851 207.523 206.851C237.247 204.329 268.585 198.506 290.14 189.883Z" fill="url(#paint6_linear_500_2327)"/>
<path d="M183.539 186.43H96.837C95.6016 186.43 94.6016 185.43 94.6016 184.195V183.942C94.6016 182.707 95.6016 181.707 96.837 181.707H183.539C184.774 181.707 185.774 182.707 185.774 183.942V184.195C185.774 185.43 184.774 186.43 183.539 186.43Z" fill="#101D38"/>
<path d="M175.101 149.327V181.707H125.217L120.771 118.107L120.174 109.518L119.939 106.123L122.216 107.905L137.889 120.183L175.101 149.327Z" fill="url(#paint7_linear_500_2327)"/>
<path d="M187.807 158.143L186.547 159.765C185.782 160.748 184.362 160.925 183.379 160.16L175.101 153.689L136.679 123.629L126.594 115.746C125.771 115.116 124.628 115.116 123.813 115.746L120.762 118.116L98.0636 135.781L83.836 146.857C82.8528 147.621 81.4325 147.445 80.6678 146.462L79.4072 144.831C78.6509 143.857 78.819 142.453 79.7854 141.68L96.9459 128.015L120.165 109.527L122.208 107.905L123.813 106.628C124.636 105.972 125.804 105.972 126.628 106.628L139.385 116.78L187.429 155C188.396 155.765 188.564 157.16 187.807 158.143Z" fill="#101D38"/>
<path opacity="0.45" d="M139.393 116.771C138.881 117.838 138.351 118.989 137.889 120.183C137.444 121.292 137.032 122.452 136.679 123.628C135.704 126.922 135.242 130.351 135.931 133.385C138.158 143.167 130.821 138.881 131.158 150.529C131.343 157.058 130.645 170.572 133.922 181.707H125.208L120.762 118.107L98.0636 135.772C97.6686 133.032 97.2905 130.435 96.9375 128.006L120.157 109.518L119.922 106.123L122.191 107.896L123.796 106.619C124.62 105.963 125.788 105.963 126.611 106.619L139.393 116.771Z" fill="url(#paint8_linear_500_2327)"/>
<path d="M125.217 98.568V189.438H54.104V98.568L61.2556 93.0047C61.2556 92.9963 61.264 92.9963 61.2724 92.9963L89.6604 70.9028L125.217 98.568Z" fill="url(#paint9_linear_500_2327)"/>
<path d="M135.46 101.073L134.191 102.695C133.426 103.678 132.006 103.854 131.023 103.09L91.0378 71.9873C90.2226 71.357 89.0797 71.357 88.2645 71.9873L48.2878 103.09C47.3046 103.854 45.8843 103.678 45.1196 102.695L43.859 101.073C43.1027 100.098 43.2624 98.6944 44.2372 97.9213L88.2645 62.8608C89.0881 62.2053 90.2562 62.2053 91.0798 62.8608L135.082 97.9213C136.048 98.686 136.216 100.098 135.46 101.073Z" fill="#101D38"/>
<path d="M102.66 152.437H76.6587V191.22H102.66V152.437Z" fill="url(#paint10_linear_500_2327)"/>
<path d="M100.988 154.218H78.3232V189.447H100.988V154.218Z" fill="url(#paint11_linear_500_2327)"/>
<path d="M133.007 194.161H46.3052C45.0699 194.161 44.0698 193.161 44.0698 191.926V191.674C44.0698 190.439 45.0699 189.438 46.3052 189.438H133.007C134.242 189.438 135.242 190.439 135.242 191.674V191.926C135.242 193.161 134.242 194.161 133.007 194.161Z" fill="#101D38"/>
<path d="M97.7944 174.496C97.7944 174.975 97.4079 175.353 96.9373 175.353C96.4582 175.353 96.0801 174.967 96.0801 174.496C96.0801 174.017 96.4666 173.639 96.9373 173.639C97.4163 173.63 97.7944 174.017 97.7944 174.496Z" fill="#101D38"/>
<path d="M119.938 152.437H107.467V186.077H119.938V152.437Z" fill="url(#paint12_linear_500_2327)"/>
<path d="M118.829 153.772H108.577V184.749H118.829V153.772Z" fill="url(#paint13_linear_500_2327)"/>
<path d="M114.149 153.772H113.258V184.749H114.149V153.772Z" fill="url(#paint14_linear_500_2327)"/>
<path d="M108.577 169.698V168.816H118.829V169.698H108.577Z" fill="url(#paint15_linear_500_2327)"/>
<path d="M72.0459 152.437H59.5747V186.077H72.0459V152.437Z" fill="url(#paint16_linear_500_2327)"/>
<path d="M70.9362 153.772H60.6836V184.749H70.9362V153.772Z" fill="url(#paint17_linear_500_2327)"/>
<path d="M66.2555 153.772H65.3647V184.749H66.2555V153.772Z" fill="url(#paint18_linear_500_2327)"/>
<path d="M60.6836 169.698V168.816H70.9362V169.698H60.6836Z" fill="url(#paint19_linear_500_2327)"/>
<path d="M89.6596 141.881C93.2194 141.881 96.1053 138.995 96.1053 135.435C96.1053 131.876 93.2194 128.99 89.6596 128.99C86.0997 128.99 83.2139 131.876 83.2139 135.435C83.2139 138.995 86.0997 141.881 89.6596 141.881Z" fill="url(#paint20_linear_500_2327)"/>
<path d="M89.6597 140.377C92.3888 140.377 94.6011 138.165 94.6011 135.436C94.6011 132.707 92.3888 130.495 89.6597 130.495C86.9306 130.495 84.7183 132.707 84.7183 135.436C84.7183 138.165 86.9306 140.377 89.6597 140.377Z" fill="url(#paint21_linear_500_2327)"/>
<path d="M89.6596 98.1477C93.2194 98.1477 96.1053 95.2619 96.1053 91.702C96.1053 88.1422 93.2194 85.2563 89.6596 85.2563C86.0997 85.2563 83.2139 88.1422 83.2139 91.702C83.2139 95.2619 86.0997 98.1477 89.6596 98.1477Z" fill="url(#paint22_linear_500_2327)"/>
<path d="M89.6597 96.6436C92.3888 96.6436 94.6011 94.4312 94.6011 91.7021C94.6011 88.9731 92.3888 86.7607 89.6597 86.7607C86.9306 86.7607 84.7183 88.9731 84.7183 91.7021C84.7183 94.4312 86.9306 96.6436 89.6597 96.6436Z" fill="url(#paint23_linear_500_2327)"/>
<path opacity="0.45" d="M125.216 98.5684V104.333C124.485 104.224 123.745 104.216 122.998 104.325C114.964 105.56 117.997 97.1062 109.888 97.997C101.77 98.8878 105.106 90.6605 97.1055 91.7109C89.1052 92.753 91.7776 84.7694 80.0039 86.551C74.4742 87.383 67.3226 90.2235 61.2803 93.0051L89.6682 70.9116L125.216 98.5684Z" fill="url(#paint24_linear_500_2327)"/>
<path opacity="0.45" d="M125.217 175.816V189.439H54.104V184.253C55.7427 183.556 57.9025 183.186 60.6842 183.741C68.6593 185.321 70.2392 175.32 79.996 178.413C89.7444 181.497 94.8287 168.328 102.249 174.497C109.67 180.657 117.746 171.295 124.502 175.354C124.738 175.505 124.981 175.656 125.217 175.816Z" fill="url(#paint25_linear_500_2327)"/>
<path d="M168.083 156.58H129.166V181.715H168.083V156.58Z" fill="url(#paint26_linear_500_2327)"/>
<path d="M168.083 158.739H129.166V159.403H168.083V158.739Z" fill="url(#paint27_linear_500_2327)"/>
<path d="M168.083 162.16H129.166V162.824H168.083V162.16Z" fill="url(#paint28_linear_500_2327)"/>
<path d="M168.083 165.58H129.166V166.244H168.083V165.58Z" fill="url(#paint29_linear_500_2327)"/>
<path d="M168.083 168.992H129.166V169.656H168.083V168.992Z" fill="url(#paint30_linear_500_2327)"/>
<path d="M168.083 172.412H129.166V173.076H168.083V172.412Z" fill="url(#paint31_linear_500_2327)"/>
<path d="M168.083 175.824H129.166V176.488H168.083V175.824Z" fill="url(#paint32_linear_500_2327)"/>
<path d="M168.083 179.244H129.166V179.908H168.083V179.244Z" fill="url(#paint33_linear_500_2327)"/>
<path d="M140.192 153.772V146.772H159.075V153.772H140.192Z" fill="url(#paint34_linear_500_2327)"/>
<path d="M140.94 153.142V147.394H158.327V153.142H140.94Z" fill="url(#paint35_linear_500_2327)"/>
<path d="M140.94 150.52V150.024H158.327V150.52H140.94Z" fill="url(#paint36_linear_500_2327)"/>
<path d="M149.386 147.394H149.882V153.142H149.386V147.394Z" fill="url(#paint37_linear_500_2327)"/>
<path d="M26.3203 169.328H23.2109V198.556H26.3203V169.328Z" fill="#101D38"/>
<path d="M49.5486 169.328H1.57991C0.705918 169.328 0 168.622 0 167.748V143.965C0 143.091 0.705918 142.385 1.57991 142.385H49.557C50.431 142.385 51.1369 143.091 51.1369 143.965V167.748C51.1285 168.622 50.4226 169.328 49.5486 169.328Z" fill="url(#paint38_linear_500_2327)"/>
<path d="M8.5971 159.773H5.84906L5.39526 161.084H3.94141L6.42052 154.176H8.03404L10.5132 161.084H9.0509L8.5971 159.773ZM8.21892 158.664L7.21888 155.773L6.21883 158.664H8.21892Z" fill="white"/>
<path d="M15.5726 159.991H17.85V161.092H14.1943V154.193H15.581V159.991H15.5726Z" fill="white"/>
<path d="M20.3453 160.697C19.8074 160.395 19.3788 159.975 19.0595 159.437C18.7401 158.899 18.5889 158.294 18.5889 157.613C18.5889 156.941 18.7485 156.336 19.0595 155.798C19.3704 155.26 19.8074 154.84 20.3453 154.537C20.8831 154.235 21.4798 154.083 22.1269 154.083C22.7823 154.083 23.3706 154.235 23.9085 154.537C24.4463 154.84 24.8749 155.26 25.1858 155.798C25.4968 156.336 25.6564 156.941 25.6564 157.613C25.6564 158.294 25.4968 158.899 25.1858 159.437C24.8749 159.975 24.4463 160.395 23.9085 160.697C23.3706 161 22.7739 161.151 22.1269 161.151C21.4798 161.151 20.8915 161 20.3453 160.697ZM23.2278 159.638C23.5471 159.454 23.7908 159.185 23.9673 158.832C24.1438 158.479 24.2362 158.075 24.2362 157.613C24.2362 157.151 24.1438 156.747 23.9673 156.403C23.7908 156.058 23.5387 155.789 23.2278 155.605C22.9168 155.42 22.547 155.327 22.1269 155.327C21.7067 155.327 21.3453 155.42 21.026 155.605C20.7066 155.789 20.4545 156.058 20.278 156.403C20.1015 156.747 20.0091 157.151 20.0091 157.613C20.0091 158.075 20.1015 158.479 20.278 158.832C20.4545 159.185 20.7066 159.454 21.026 159.638C21.3453 159.823 21.7151 159.916 22.1269 159.916C22.5386 159.916 22.9084 159.823 23.2278 159.638Z" fill="white"/>
<path d="M28.2449 154.185V158.454C28.2449 158.924 28.371 159.277 28.6147 159.529C28.8584 159.773 29.2029 159.899 29.6399 159.899C30.0853 159.899 30.4299 159.773 30.6736 159.529C30.9173 159.286 31.0434 158.924 31.0434 158.454V154.185H32.4384V158.445C32.4384 159.034 32.3123 159.529 32.0602 159.933C31.8081 160.336 31.4636 160.639 31.0434 160.849C30.6232 161.059 30.1442 161.151 29.6231 161.151C29.1105 161.151 28.6399 161.05 28.2281 160.849C27.8163 160.647 27.4802 160.336 27.2365 159.933C26.9928 159.529 26.8667 159.034 26.8667 158.445V154.185H28.2449Z" fill="white"/>
<path d="M35.3548 155.302V157.033H37.6742V158.134H35.3548V159.966H37.9768V161.092H33.9766V154.185H37.9768V155.311H35.3548V155.302Z" fill="white"/>
<path d="M42.9851 161.084L41.464 158.395H40.8085V161.084H39.4219V154.185H42.0102C42.5481 154.185 43.0019 154.277 43.3716 154.462C43.7498 154.647 44.0271 154.907 44.2204 155.227C44.4053 155.546 44.5062 155.907 44.5062 156.302C44.5062 156.756 44.3717 157.168 44.1112 157.529C43.8507 157.899 43.4557 158.151 42.9347 158.286L44.5818 161.084H42.9851ZM40.8169 157.361H41.9766C42.3548 157.361 42.6321 157.269 42.817 157.092C43.0019 156.907 43.0943 156.655 43.0943 156.336C43.0943 156.017 43.0019 155.773 42.817 155.596C42.6321 155.42 42.3548 155.336 41.9766 155.336H40.8169V157.361Z" fill="white"/>
<path d="M106.19 103.93H73.1128V124.225H106.19V103.93Z" fill="url(#paint39_linear_500_2327)"/>
<path d="M105.148 105.09H74.1636V123.066H105.148V105.09Z" fill="url(#paint40_linear_500_2327)"/>
<path d="M82.0541 105.09H80.7852V123.066H82.0541V105.09Z" fill="url(#paint41_linear_500_2327)"/>
<path d="M90.29 105.09H89.021V123.066H90.29V105.09Z" fill="url(#paint42_linear_500_2327)"/>
<path d="M98.5253 105.09H97.2563V123.066H98.5253V105.09Z" fill="url(#paint43_linear_500_2327)"/>
<path d="M105.148 113.351H74.1636V114.813H105.148V113.351Z" fill="url(#paint44_linear_500_2327)"/>
<path d="M313.376 228.154C312.528 228.927 310.754 229.793 309.847 231.768C309.133 233.331 308.301 233.524 307.443 233.734C306.695 233.911 305.922 234.096 305.183 235.188C304.191 236.659 304.183 238.482 303.88 239.524C303.779 239.903 303.636 240.171 303.401 240.289C303.241 240.39 303.04 240.424 302.762 240.356C302.023 240.18 295.132 234.138 287.081 223.784C277.123 210.96 265.391 191.505 261.382 168.336C260.987 166.042 260.66 163.714 260.424 161.353C259.407 151.167 260.155 142.713 261.945 135.738C263.483 129.738 265.777 124.813 268.374 120.821C271.904 115.376 275.971 111.644 279.375 109.174C283.568 106.131 286.762 105.014 286.762 105.014C286.762 105.014 289.342 110.804 289.552 121.25C289.644 125.317 289.367 130.099 288.426 135.519C285.098 154.848 282.593 164.521 285.257 177.017C287.93 189.522 313.099 225.692 313.763 227.028C313.981 227.44 313.788 227.784 313.376 228.154Z" fill="url(#paint45_linear_500_2327)"/>
<path opacity="0.45" d="M287.081 223.775C276.139 209.682 263.055 187.58 260.424 161.335C259.407 151.15 260.155 142.696 261.945 135.721L273.929 128.67C273.929 128.67 276.425 141.671 272.425 151.679C268.425 161.68 266.097 164.537 269.257 172.697C272.425 180.841 273.593 176.345 272.425 185.849C271.257 195.354 279.089 189.345 278.257 198.354C277.425 207.354 284.812 203.48 284.131 211.187C283.82 214.741 285.173 219.456 287.081 223.775Z" fill="url(#paint46_linear_500_2327)"/>
<path d="M279.022 119.082C276.736 132.914 268.408 152.571 261.382 168.319C256.466 179.354 252.197 188.472 251.096 192.337C247.928 203.506 247.432 259.181 247.264 261.425C247.239 261.862 247.046 262.206 246.768 262.492C245.608 263.677 242.709 263.82 241.432 265.089C239.852 266.677 238.188 265.761 236.356 264.593C234.877 263.652 232.969 264.82 231.885 264.492C231.625 264.408 231.415 264.24 231.272 263.929C230.524 262.341 223.448 223.28 225.885 199.06C227.969 178.354 241.449 131.385 245.323 118.183C245.978 115.939 246.365 114.67 246.365 114.67L279.114 107.829C279.224 108.249 279.316 108.695 279.392 109.157C279.829 111.888 279.661 115.266 279.022 119.082Z" fill="url(#paint47_linear_500_2327)"/>
<path opacity="0.25" d="M255.113 116.174C255.113 116.174 237.869 179.732 235.196 198.842C232.524 217.952 236.339 264.601 236.339 264.601" stroke="white" stroke-width="0.5564" stroke-miterlimit="10"/>
<path d="M253.458 277.408C249.911 269.526 241.676 277.089 239.18 279.677C236.675 282.257 231.759 281.089 224.759 286.005C218.145 290.653 220.204 292.418 220.456 292.602C219.927 292.3 219.557 291.939 219.431 291.51C218.683 289.098 219.683 283.669 225.364 277.929C230.322 272.904 231.633 267.635 231.885 264.492C232.969 264.82 234.877 263.651 236.356 264.593C238.188 265.761 239.852 266.677 241.432 265.088C242.709 263.819 245.609 263.677 246.768 262.492C247.768 266.727 250.735 270.458 251.76 272.593C252.407 273.912 253.349 275.677 253.458 277.408Z" fill="#101D38"/>
<path d="M250.516 281.846C245.6 284.266 237.095 288.602 232.599 291.518C228.918 293.913 222.926 294.006 220.481 292.628C220.481 292.628 220.473 292.619 220.464 292.611C220.212 292.434 218.153 290.67 224.767 286.014C231.776 281.098 236.683 282.266 239.188 279.686C241.684 277.097 249.928 269.526 253.466 277.417C253.567 279.056 252.911 280.669 250.516 281.846Z" fill="#223860"/>
<path d="M322.822 236.078C319.427 234.725 316.469 238.137 315.317 242.398C313.763 248.171 307.981 249.28 305.754 257.289C303.695 264.626 305.409 265.407 305.704 265.491C304.704 265.273 303.964 264.18 303.401 262.491C302.04 258.357 304.09 243.953 303.401 240.28C303.636 240.162 303.779 239.885 303.88 239.515C304.182 238.465 304.191 236.641 305.183 235.179C305.922 234.095 306.695 233.91 307.443 233.725C308.3 233.523 309.132 233.322 309.847 231.759C310.754 229.784 312.519 228.927 313.376 228.145C314.603 229.792 316.628 232.086 319.326 233.389C321.267 234.347 322.301 235.137 322.822 236.078Z" fill="#101D38"/>
<path d="M303.401 240.281L303.88 239.516C303.779 239.886 303.636 240.163 303.401 240.281Z" fill="url(#paint48_linear_500_2327)"/>
<path d="M323.1 241.507C322.764 246.071 316.545 253.18 311.881 260.181C309.158 264.265 307.183 265.778 305.755 265.5C305.755 265.5 305.738 265.5 305.704 265.492C305.402 265.408 303.696 264.618 305.755 257.29C307.99 249.281 313.772 248.172 315.318 242.398C316.469 238.138 319.427 234.717 322.823 236.079C323.52 237.348 323.293 238.894 323.1 241.507Z" fill="#223860"/>
<path opacity="0.25" d="M267.105 155.15C267.105 155.15 270.711 179.949 279.627 200.177C288.543 220.397 305.183 235.179 305.183 235.179" stroke="white" stroke-width="0.5564" stroke-miterlimit="10"/>
<path d="M182.253 93.6681C181.496 93.6681 180.875 93.0546 180.875 92.2899V66.7845C180.875 66.0281 181.488 65.4062 182.253 65.4062C183.009 65.4062 183.631 66.0197 183.631 66.7845V92.2899C183.631 93.0546 183.017 93.6681 182.253 93.6681Z" fill="#101D38"/>
<path d="M182.261 45.5229C177.84 45.5229 174.26 50.3047 174.26 56.1957C174.26 62.0868 177.849 66.8601 182.261 66.8601C186.673 66.8601 190.261 62.0868 190.261 56.1957C190.253 50.3047 186.673 45.5229 182.261 45.5229ZM182.261 64.776C178.706 64.776 175.823 60.9355 175.823 56.1873C175.823 51.4476 178.706 47.5987 182.261 47.5987C185.807 47.5987 188.69 51.4392 188.69 56.1873C188.69 60.9355 185.807 64.776 182.261 64.776Z" fill="#101D38"/>
<path d="M236.432 32.4137C236.432 32.4137 236.155 32.8591 235.701 33.523V33.5314C234.28 35.708 231.255 40.2376 231.087 39.5317C230.885 38.6157 228.532 37.7081 228.532 37.7081C228.532 37.7081 228.036 38.3215 227.28 39.33C226.532 40.33 224.583 40.9687 222.255 39.8846C219.918 38.8005 218.17 36.7416 218.17 36.7416C218.17 36.7416 216.649 37.4139 216.229 36.8845C215.817 36.3634 216.288 33.3549 215.372 32.2708C214.456 31.1867 213.145 26.3966 213.145 26.3966C220.423 28.8001 230.768 26.2873 230.768 26.2873C230.768 26.2873 230.885 24.3293 232.432 23.9595C233.978 23.5813 234.558 24.5393 234.81 26.3966C235.062 28.2538 233.062 28.8253 233.306 29.6572C233.449 30.1447 234.482 30.9934 235.323 31.6237C235.633 31.859 235.902 32.0523 236.104 32.1952C236.306 32.3296 236.432 32.4137 236.432 32.4137Z" fill="url(#paint49_linear_500_2327)"/>
<path d="M239.323 19.6058C238.474 25.6397 236.121 29.3206 235.323 31.6232C234.482 30.9929 233.44 30.1441 233.306 29.6567C233.062 28.8248 235.062 28.2533 234.81 26.3961C234.558 24.5388 233.978 23.5808 232.432 23.959C230.886 24.3371 230.768 26.2868 230.768 26.2868C230.768 26.2868 220.423 28.7995 213.145 26.3961C208.153 27.2785 202.204 20.9336 203.767 14.9922C205.321 9.04228 211.876 8.99186 215.204 11.1012C218.54 13.219 229.045 6.10097 232.491 10.6558C235.432 8.44562 240.424 11.7147 239.323 19.6058Z" fill="#101D38"/>
<path d="M218.288 31.0266C218.574 31.5476 218.532 32.1275 218.196 32.3124C217.86 32.4973 217.355 32.22 217.07 31.6989C216.784 31.1779 216.826 30.598 217.162 30.4131C217.498 30.2199 218.002 30.4972 218.288 31.0266Z" fill="#1C0D2B"/>
<path d="M221.901 37.1869C221.901 37.1869 223.817 34.8338 223.817 33.3716C225.053 34.8927 225.179 37.9768 221.901 37.1869Z" fill="white"/>
<path d="M215.943 30.1019C215.943 30.1019 216.498 29.2951 217.641 29.3792" stroke="#1C0D2B" stroke-width="0.5564" stroke-miterlimit="10"/>
<path opacity="0.45" d="M232.784 25.7152C232.515 25.5556 232.036 27.3288 232.448 27.3792C232.868 27.438 234.036 26.4716 232.784 25.7152Z" fill="url(#paint50_linear_500_2327)"/>
<path d="M236.793 87.8783C236.356 88.6094 235.877 89.3322 235.372 90.0297C235.364 90.0549 235.347 90.0801 235.322 90.1053C235.263 90.1893 235.204 90.2734 235.129 90.3574C230.297 96.9712 222.842 102.047 213.144 102.669C206.001 103.114 199.673 100.274 194.9 97.0216C194.891 97.0132 194.875 97.0048 194.866 97.0048C189.101 93.0886 185.597 88.5842 185.597 88.5842C185.597 88.5842 178.386 85.7101 177.596 82.3402C176.798 78.9619 178.059 74.2978 178.092 72.7935C178.126 71.2977 179.471 69.9195 180.639 69.7178C181.05 71.2136 183.261 72.8776 183.714 72.5078C184.177 72.1296 183.101 70.5077 183.387 70.3817C183.681 70.264 187.345 71.7179 187.849 72.1297C188.345 72.5498 191.429 79.7519 195.765 82.5083C200.093 85.2563 214.094 87.5001 217.607 84.8361C220.103 82.2142 221.691 78.0375 222.708 73.6255C226.506 74.3062 233.893 77.0543 236.793 87.8783Z" fill="url(#paint51_linear_500_2327)"/>
<path opacity="0.45" d="M235.129 90.3579C230.297 96.9717 222.842 102.048 213.145 102.669C206.001 103.115 199.673 100.274 194.9 97.0221C197.572 98.2154 201.295 99.4508 206.035 100.064C216.556 101.409 232.557 93.3917 235.129 90.3579Z" fill="url(#paint52_linear_500_2327)"/>
<path d="M287.509 106.501C287.492 106.644 287.476 106.77 287.442 106.904V106.913C286.593 110.997 281.559 112.283 275.509 113.258C269.248 114.258 271.593 115.922 268.256 117.67C264.92 119.417 263.752 116.669 259.584 115.501C255.415 114.333 253.407 118.586 250.163 117.67C246.911 116.753 247.499 116.333 246.331 114.669C245.163 113.005 245.667 111.753 246.751 105.417C247.238 102.551 246.953 97.9543 246.138 93.0801C245.137 87.1638 243.322 80.8526 241.087 76.8356C240.356 80.5669 238.91 84.3738 236.784 87.8781C233.885 77.0457 226.498 74.2977 222.683 73.617C224.498 65.8183 224.54 57.2968 224.775 55.3892C224.96 53.8093 225.12 52.3218 225.758 50.4225C226.33 48.6998 227.296 46.6493 229.002 43.9096C229.196 43.5987 229.406 43.2962 229.616 42.9852C233.448 37.5144 240.742 32.1864 240.742 32.1864C244.684 31.3292 249.213 32.3292 253.835 34.3461C254.037 34.4302 254.247 34.5226 254.449 34.6151C255.466 35.0857 256.499 35.5899 257.516 36.1529C271.038 43.4306 284.165 57.4985 284.165 57.4985C284.165 57.4985 284.156 57.5153 284.148 57.5573C284.055 57.8935 283.492 59.6919 282.148 61.5659C282.005 61.7592 281.854 61.9609 281.702 62.1542C281.534 62.3727 281.358 62.5744 281.156 62.7845C281.013 62.9442 280.862 63.1038 280.711 63.2551C280.635 63.3223 280.568 63.398 280.492 63.4568C280.307 63.6333 280.106 63.8013 279.895 63.9694C279.694 64.1375 279.475 64.2972 279.248 64.4568C279.173 64.5157 279.097 64.5661 279.013 64.6165C278.811 64.7594 278.584 64.8854 278.358 65.0199C278.324 65.0451 278.282 65.0703 278.248 65.0871C278.341 65.272 278.467 65.5745 278.61 65.9779C279.005 67.104 279.576 69.0201 280.232 71.432C280.324 71.7513 280.408 72.0875 280.501 72.432C280.845 73.7262 281.215 75.138 281.585 76.6339C281.719 77.1297 281.837 77.634 281.971 78.1466C282.4 79.8778 282.837 81.693 283.274 83.5334L283.324 83.6931C285.669 93.5927 287.82 104.173 287.509 106.501Z" fill="url(#paint53_linear_500_2327)"/>
<path d="M240.76 32.1865C240.76 32.1865 233.465 37.5145 229.633 42.9854C229.633 42.9854 227.843 40.002 229.364 38.0776C230.877 36.1615 235.541 29.4385 240.76 32.1865Z" fill="url(#paint54_linear_500_2327)"/>
<path opacity="0.45" d="M248.76 87.3826C247.819 89.0045 246.919 91.0634 246.155 93.0803C245.155 87.1641 243.339 80.8529 241.104 76.8359C241.104 76.8359 243.995 61.0452 242.659 57.7173C247.768 59.6081 243.886 64.2722 246.777 68.1632C249.659 72.0541 245.667 73.6088 246.777 78.4998C247.869 83.3908 251.533 82.6345 248.76 87.3826Z" fill="url(#paint55_linear_500_2327)"/>
<path opacity="0.45" d="M242.65 57.7176C242.65 57.7176 239.112 45.5742 225.767 50.4231" stroke="white" stroke-width="0.5564" stroke-miterlimit="10"/>
<path d="M305.04 132.393C303.771 135.948 299.653 137.452 299.258 137.452C298.872 137.452 299.872 130.671 299.317 128.948C298.544 135.671 298.594 137.225 297.762 137.831C296.93 138.444 295.989 138.057 295.989 136.889C295.989 135.73 297.594 128.872 296.594 126.939C295.435 127.948 296.065 129.948 294.796 129.502C293.544 129.065 293.376 126.116 294.098 124.006C294.821 121.889 296.098 121.401 296.216 119.678C296.283 118.678 293.754 106.493 289.518 94.5007C287.392 88.5256 284.854 82.601 281.988 78.147C281.476 76.0965 280.98 74.1552 280.518 72.4324C280.425 72.0879 280.341 71.7517 280.249 71.4324C279.593 69.0205 279.022 67.1044 278.627 65.9783C278.476 65.5749 278.358 65.2808 278.266 65.0875C278.299 65.0707 278.341 65.0539 278.375 65.0203C278.652 64.869 278.921 64.701 279.173 64.5245C279.182 64.5245 279.182 64.5161 279.19 64.5161C279.442 64.348 279.686 64.1715 279.913 63.9698C280.131 63.8017 280.325 63.6337 280.509 63.4572C281.585 62.4571 282.383 61.3394 282.938 60.3562C283.047 60.1629 283.165 59.9612 283.257 59.7764C283.93 58.4738 284.182 57.5073 284.182 57.5073C285.602 59.0536 287.434 61.4907 289.35 64.3816C294.048 71.4744 299.258 81.3068 300.199 87.6264C301.536 96.5176 302.872 115.073 303.427 116.964C303.981 118.838 306.326 128.839 305.04 132.393Z" fill="url(#paint56_linear_500_2327)"/>
<path opacity="0.45" d="M289.72 86.2142C289.274 89.0967 289.341 91.996 289.518 94.4919C287.392 88.5168 284.854 82.5922 281.988 78.1382C281.475 76.0877 280.98 74.1464 280.517 72.4236C280.425 72.0791 280.341 71.7429 280.249 71.4236C279.593 69.0117 279.022 67.0956 278.627 65.9695L278.375 65.0115C278.652 64.8518 278.921 64.6922 279.173 64.5157C279.181 64.5157 279.181 64.5073 279.19 64.5073C279.442 64.3308 279.685 64.1543 279.912 63.961C280.131 63.793 280.324 63.6249 280.509 63.4484C281.585 62.4484 282.383 61.3307 282.938 60.3474C283.047 60.1541 283.165 59.9524 283.257 59.7676C283.929 58.465 284.182 57.4985 284.182 57.4985C285.602 59.0448 287.434 61.4819 289.35 64.3728C289.862 67.6923 289.904 70.7765 288.972 73.3901C287.089 78.7265 290.694 80.0206 289.72 86.2142Z" fill="url(#paint57_linear_500_2327)"/>
<path opacity="0.45" d="M278.374 65.012L278.265 64.6086C278.265 64.6086 273.61 45.2127 257.542 36.145C271.063 43.4227 284.19 57.4906 284.19 57.4906C284.19 57.4906 282.862 62.4992 278.374 65.012Z" fill="url(#paint58_linear_500_2327)"/>
<path opacity="0.45" d="M289.552 121.233C286.997 121.342 283.266 119.687 279.022 119.082C273.946 118.359 271.912 120.309 268.383 120.804C266.61 121.065 264.441 120.947 261.324 119.947C251.987 116.955 255.542 120.393 249.785 119.947C247.768 119.788 246.331 119.056 245.314 118.191C245.97 115.947 246.357 114.678 246.357 114.678C247.525 116.342 246.936 116.762 250.189 117.678C253.432 118.594 255.433 114.342 259.609 115.51C263.769 116.678 264.937 119.426 268.282 117.678C271.61 115.93 269.274 114.266 275.534 113.266C281.585 112.291 286.619 111.014 287.468 106.921C288.233 109.409 289.409 114.291 289.552 121.233Z" fill="url(#paint59_linear_500_2327)"/>
<path d="M43.3889 57.4901C47.204 57.4901 50.2968 54.3973 50.2968 50.5822C50.2968 46.7671 47.204 43.6743 43.3889 43.6743C39.5737 43.6743 36.481 46.7671 36.481 50.5822C36.481 54.3973 39.5737 57.4901 43.3889 57.4901Z" fill="url(#paint60_linear_500_2327)"/>
<path d="M340.092 182.261C343.907 182.261 347 179.168 347 175.353C347 171.538 343.907 168.445 340.092 168.445C336.277 168.445 333.184 171.538 333.184 175.353C333.184 179.168 336.277 182.261 340.092 182.261Z" fill="url(#paint61_linear_500_2327)"/>
<path d="M284.131 13.8158C287.946 13.8158 291.039 10.723 291.039 6.9079C291.039 3.09277 287.946 0 284.131 0C280.316 0 277.223 3.09277 277.223 6.9079C277.223 10.723 280.316 13.8158 284.131 13.8158Z" fill="url(#paint62_linear_500_2327)"/>
<defs>
<linearGradient id="paint0_linear_500_2327" x1="170.016" y1="272.429" x2="169.349" y2="27.0778" gradientUnits="userSpaceOnUse">
<stop stop-color="#9BC9FF"/>
<stop offset="1" stop-color="#F9FFFF"/>
</linearGradient>
<linearGradient id="paint1_linear_500_2327" x1="176.25" y1="60.7656" x2="159.582" y2="248.779" gradientUnits="userSpaceOnUse">
<stop stop-color="white"/>
<stop offset="1" stop-color="white" stop-opacity="0"/>
</linearGradient>
<linearGradient id="paint2_linear_500_2327" x1="188.6" y1="155.37" x2="180.378" y2="204.707" gradientUnits="userSpaceOnUse">
<stop stop-color="#58DD91"/>
<stop offset="1" stop-color="#F9FFFF"/>
</linearGradient>
<linearGradient id="paint3_linear_500_2327" x1="45.0006" y1="155.37" x2="53.2234" y2="204.707" gradientUnits="userSpaceOnUse">
<stop stop-color="#58DD91"/>
<stop offset="1" stop-color="#F9FFFF"/>
</linearGradient>
<linearGradient id="paint4_linear_500_2327" x1="153.954" y1="168.873" x2="163.732" y2="303.99" gradientUnits="userSpaceOnUse">
<stop stop-color="#58DD91"/>
<stop offset="1" stop-color="#F9FFFF"/>
</linearGradient>
<linearGradient id="paint5_linear_500_2327" x1="110.939" y1="216.498" x2="189.167" y2="402.733" gradientUnits="userSpaceOnUse">
<stop stop-color="#58DD91"/>
<stop offset="1" stop-color="#F9FFFF"/>
</linearGradient>
<linearGradient id="paint6_linear_500_2327" x1="201.977" y1="291.843" x2="137.972" y2="149.833" gradientUnits="userSpaceOnUse">
<stop/>
<stop offset="1" stop-opacity="0"/>
</linearGradient>
<linearGradient id="paint7_linear_500_2327" x1="119.94" y1="143.915" x2="175.101" y2="143.915" gradientUnits="userSpaceOnUse">
<stop stop-color="#FF9D5A"/>
<stop offset="1" stop-color="#FF9029"/>
</linearGradient>
<linearGradient id="paint8_linear_500_2327" x1="70.8811" y1="117.684" x2="152.054" y2="156.687" gradientUnits="userSpaceOnUse">
<stop/>
<stop offset="1" stop-opacity="0"/>
</linearGradient>
<linearGradient id="paint9_linear_500_2327" x1="54.0981" y1="130.172" x2="125.215" y2="130.172" gradientUnits="userSpaceOnUse">
<stop stop-color="#FF9D5A"/>
<stop offset="1" stop-color="#FF9029"/>
</linearGradient>
<linearGradient id="paint10_linear_500_2327" x1="80.8053" y1="127.937" x2="86.0279" y2="153.828" gradientUnits="userSpaceOnUse">
<stop stop-color="#FF9D5A"/>
<stop offset="1" stop-color="#FF8022"/>
</linearGradient>
<linearGradient id="paint11_linear_500_2327" x1="99.6394" y1="202.104" x2="69.9706" y2="112.098" gradientUnits="userSpaceOnUse">
<stop stop-color="#9BC9FF"/>
<stop offset="1" stop-color="#F9FFFF"/>
</linearGradient>
<linearGradient id="paint12_linear_500_2327" x1="98.1888" y1="137.24" x2="108.634" y2="158.797" gradientUnits="userSpaceOnUse">
<stop stop-color="#FF9D5A"/>
<stop offset="1" stop-color="#FF8022"/>
</linearGradient>
<linearGradient id="paint13_linear_500_2327" x1="128.595" y1="208.918" x2="107.482" y2="152.691" gradientUnits="userSpaceOnUse">
<stop stop-color="#9BC9FF"/>
<stop offset="1" stop-color="#F9FFFF"/>
</linearGradient>
<linearGradient id="paint14_linear_500_2327" x1="106.457" y1="153.914" x2="184.017" y2="318.148" gradientUnits="userSpaceOnUse">
<stop stop-color="#9BC9FF"/>
<stop offset="1" stop-color="#F9FFFF"/>
</linearGradient>
<linearGradient id="paint15_linear_500_2327" x1="118.917" y1="166.795" x2="63.0959" y2="193.157" gradientUnits="userSpaceOnUse">
<stop stop-color="#9BC9FF"/>
<stop offset="1" stop-color="#F9FFFF"/>
</linearGradient>
<linearGradient id="paint16_linear_500_2327" x1="51.9201" y1="136.887" x2="64.6988" y2="166.666" gradientUnits="userSpaceOnUse">
<stop stop-color="#FF9D5A"/>
<stop offset="1" stop-color="#FF8022"/>
</linearGradient>
<linearGradient id="paint17_linear_500_2327" x1="80.7025" y1="208.918" x2="59.5898" y2="152.691" gradientUnits="userSpaceOnUse">
<stop stop-color="#9BC9FF"/>
<stop offset="1" stop-color="#F9FFFF"/>
</linearGradient>
<linearGradient id="paint18_linear_500_2327" x1="58.5644" y1="153.914" x2="136.126" y2="318.148" gradientUnits="userSpaceOnUse">
<stop stop-color="#9BC9FF"/>
<stop offset="1" stop-color="#F9FFFF"/>
</linearGradient>
<linearGradient id="paint19_linear_500_2327" x1="71.0253" y1="166.795" x2="15.2036" y2="193.157" gradientUnits="userSpaceOnUse">
<stop stop-color="#9BC9FF"/>
<stop offset="1" stop-color="#F9FFFF"/>
</linearGradient>
<linearGradient id="paint20_linear_500_2327" x1="80.8914" y1="111.225" x2="90.6698" y2="138.227" gradientUnits="userSpaceOnUse">
<stop stop-color="#FF9D5A"/>
<stop offset="1" stop-color="#FF8022"/>
</linearGradient>
<linearGradient id="paint21_linear_500_2327" x1="103.548" y1="181.051" x2="82.4355" y2="111.713" gradientUnits="userSpaceOnUse">
<stop stop-color="#9BC9FF"/>
<stop offset="1" stop-color="#F9FFFF"/>
</linearGradient>
<linearGradient id="paint22_linear_500_2327" x1="80.8914" y1="67.4922" x2="90.6698" y2="94.494" gradientUnits="userSpaceOnUse">
<stop stop-color="#FF9D5A"/>
<stop offset="1" stop-color="#FF8022"/>
</linearGradient>
<linearGradient id="paint23_linear_500_2327" x1="103.548" y1="137.317" x2="82.4355" y2="67.9792" gradientUnits="userSpaceOnUse">
<stop stop-color="#9BC9FF"/>
<stop offset="1" stop-color="#F9FFFF"/>
</linearGradient>
<linearGradient id="paint24_linear_500_2327" x1="103.972" y1="56.6091" x2="90.1937" y2="110.613" gradientUnits="userSpaceOnUse">
<stop/>
<stop offset="1" stop-opacity="0"/>
</linearGradient>
<linearGradient id="paint25_linear_500_2327" x1="90.5156" y1="213.274" x2="89.1822" y2="165.715" gradientUnits="userSpaceOnUse">
<stop/>
<stop offset="1" stop-opacity="0"/>
</linearGradient>
<linearGradient id="paint26_linear_500_2327" x1="172.698" y1="216.156" x2="151.586" y2="174.931" gradientUnits="userSpaceOnUse">
<stop stop-color="#9BC9FF"/>
<stop offset="1" stop-color="#F9FFFF"/>
</linearGradient>
<linearGradient id="paint27_linear_500_2327" x1="150.507" y1="107.214" x2="148.285" y2="168.329" gradientUnits="userSpaceOnUse">
<stop stop-color="#9BC9FF"/>
<stop offset="1" stop-color="#F9FFFF"/>
</linearGradient>
<linearGradient id="paint28_linear_500_2327" x1="150.507" y1="110.631" x2="148.285" y2="171.746" gradientUnits="userSpaceOnUse">
<stop stop-color="#9BC9FF"/>
<stop offset="1" stop-color="#F9FFFF"/>
</linearGradient>
<linearGradient id="paint29_linear_500_2327" x1="150.507" y1="114.048" x2="148.285" y2="175.163" gradientUnits="userSpaceOnUse">
<stop stop-color="#9BC9FF"/>
<stop offset="1" stop-color="#F9FFFF"/>
</linearGradient>
<linearGradient id="paint30_linear_500_2327" x1="150.507" y1="117.466" x2="148.285" y2="178.579" gradientUnits="userSpaceOnUse">
<stop stop-color="#9BC9FF"/>
<stop offset="1" stop-color="#F9FFFF"/>
</linearGradient>
<linearGradient id="paint31_linear_500_2327" x1="150.507" y1="120.881" x2="148.285" y2="181.997" gradientUnits="userSpaceOnUse">
<stop stop-color="#9BC9FF"/>
<stop offset="1" stop-color="#F9FFFF"/>
</linearGradient>
<linearGradient id="paint32_linear_500_2327" x1="150.507" y1="124.298" x2="148.285" y2="185.414" gradientUnits="userSpaceOnUse">
<stop stop-color="#9BC9FF"/>
<stop offset="1" stop-color="#F9FFFF"/>
</linearGradient>
<linearGradient id="paint33_linear_500_2327" x1="150.507" y1="127.713" x2="148.285" y2="188.831" gradientUnits="userSpaceOnUse">
<stop stop-color="#9BC9FF"/>
<stop offset="1" stop-color="#F9FFFF"/>
</linearGradient>
<linearGradient id="paint34_linear_500_2327" x1="136.211" y1="126.526" x2="147.767" y2="146.972" gradientUnits="userSpaceOnUse">
<stop stop-color="#FF9D5A"/>
<stop offset="1" stop-color="#FF8022"/>
</linearGradient>
<linearGradient id="paint35_linear_500_2327" x1="127.372" y1="158.628" x2="158.929" y2="146.778" gradientUnits="userSpaceOnUse">
<stop stop-color="#9BC9FF"/>
<stop offset="1" stop-color="#F9FFFF"/>
</linearGradient>
<linearGradient id="paint36_linear_500_2327" x1="158.243" y1="146.203" x2="66.0673" y2="189.734" gradientUnits="userSpaceOnUse">
<stop stop-color="#9BC9FF"/>
<stop offset="1" stop-color="#F9FFFF"/>
</linearGradient>
<linearGradient id="paint37_linear_500_2327" x1="151.014" y1="153.196" x2="136.218" y2="121.867" gradientUnits="userSpaceOnUse">
<stop stop-color="#9BC9FF"/>
<stop offset="1" stop-color="#F9FFFF"/>
</linearGradient>
<linearGradient id="paint38_linear_500_2327" x1="0.00168075" y1="155.86" x2="51.1289" y2="155.86" gradientUnits="userSpaceOnUse">
<stop stop-color="#FF9D5A"/>
<stop offset="1" stop-color="#FF9029"/>
</linearGradient>
<linearGradient id="paint39_linear_500_2327" x1="71.7494" y1="97.7508" x2="78.5391" y2="103.941" gradientUnits="userSpaceOnUse">
<stop stop-color="#FF9D5A"/>
<stop offset="1" stop-color="#FF8022"/>
</linearGradient>
<linearGradient id="paint40_linear_500_2327" x1="109.63" y1="164.953" x2="82.0724" y2="94.7609" gradientUnits="userSpaceOnUse">
<stop stop-color="#9BC9FF"/>
<stop offset="1" stop-color="#F9FFFF"/>
</linearGradient>
<linearGradient id="paint41_linear_500_2327" x1="84.9002" y1="141.431" x2="77.1122" y2="80.25" gradientUnits="userSpaceOnUse">
<stop stop-color="#9BC9FF"/>
<stop offset="1" stop-color="#F9FFFF"/>
</linearGradient>
<linearGradient id="paint42_linear_500_2327" x1="93.1376" y1="141.431" x2="85.3496" y2="80.25" gradientUnits="userSpaceOnUse">
<stop stop-color="#9BC9FF"/>
<stop offset="1" stop-color="#F9FFFF"/>
</linearGradient>
<linearGradient id="paint43_linear_500_2327" x1="101.375" y1="141.431" x2="93.5865" y2="80.2501" gradientUnits="userSpaceOnUse">
<stop stop-color="#9BC9FF"/>
<stop offset="1" stop-color="#F9FFFF"/>
</linearGradient>
<linearGradient id="paint44_linear_500_2327" x1="97.4018" y1="137.518" x2="74.6367" y2="68.623" gradientUnits="userSpaceOnUse">
<stop stop-color="#9BC9FF"/>
<stop offset="1" stop-color="#F9FFFF"/>
</linearGradient>
<linearGradient id="paint45_linear_500_2327" x1="267.554" y1="70.665" x2="296.445" y2="253.789" gradientUnits="userSpaceOnUse">
<stop stop-color="#3152AF"/>
<stop offset="1" stop-color="#4FA2F1"/>
</linearGradient>
<linearGradient id="paint46_linear_500_2327" x1="251.162" y1="169.7" x2="295.165" y2="179.478" gradientUnits="userSpaceOnUse">
<stop/>
<stop offset="1" stop-opacity="0"/>
</linearGradient>
<linearGradient id="paint47_linear_500_2327" x1="237.602" y1="75.3907" x2="266.493" y2="258.514" gradientUnits="userSpaceOnUse">
<stop stop-color="#3152AF"/>
<stop offset="1" stop-color="#4FA2F1"/>
</linearGradient>
<linearGradient id="paint48_linear_500_2327" x1="303.734" y1="239.98" x2="304.333" y2="240.509" gradientUnits="userSpaceOnUse">
<stop stop-color="#3B1C5E"/>
<stop offset="1" stop-color="#1C0D2B"/>
</linearGradient>
<linearGradient id="paint49_linear_500_2327" x1="222.532" y1="35.1744" x2="230.449" y2="14.9229" gradientUnits="userSpaceOnUse">
<stop stop-color="#FFD0B0"/>
<stop offset="1" stop-color="#FF9271"/>
</linearGradient>
<linearGradient id="paint50_linear_500_2327" x1="229.958" y1="26.0274" x2="235.347" y2="27.083" gradientUnits="userSpaceOnUse">
<stop/>
<stop offset="1" stop-opacity="0"/>
</linearGradient>
<linearGradient id="paint51_linear_500_2327" x1="198.59" y1="86.0669" x2="284.152" y2="60.7318" gradientUnits="userSpaceOnUse">
<stop stop-color="#FFD0B0"/>
<stop offset="1" stop-color="#FF9271"/>
</linearGradient>
<linearGradient id="paint52_linear_500_2327" x1="226.617" y1="132.496" x2="205.783" y2="62.8246" gradientUnits="userSpaceOnUse">
<stop/>
<stop offset="1" stop-opacity="0"/>
</linearGradient>
<linearGradient id="paint53_linear_500_2327" x1="343.256" y1="134.604" x2="143.243" y2="5.92868" gradientUnits="userSpaceOnUse">
<stop stop-color="#9BC9FF"/>
<stop offset="1" stop-color="#F9FFFF"/>
</linearGradient>
<linearGradient id="paint54_linear_500_2327" x1="232.197" y1="30.0679" x2="253.198" y2="83.405" gradientUnits="userSpaceOnUse">
<stop stop-color="#9BC9FF"/>
<stop offset="1" stop-color="#F9FFFF"/>
</linearGradient>
<linearGradient id="paint55_linear_500_2327" x1="219.622" y1="78.7112" x2="277.848" y2="70.933" gradientUnits="userSpaceOnUse">
<stop/>
<stop offset="1" stop-opacity="0"/>
</linearGradient>
<linearGradient id="paint56_linear_500_2327" x1="319.891" y1="99.4288" x2="217.217" y2="93.7618" gradientUnits="userSpaceOnUse">
<stop stop-color="#FFD0B0"/>
<stop offset="1" stop-color="#FF9271"/>
</linearGradient>
<linearGradient id="paint57_linear_500_2327" x1="262.318" y1="73.7275" x2="301.988" y2="77.3944" gradientUnits="userSpaceOnUse">
<stop/>
<stop offset="1" stop-opacity="0"/>
</linearGradient>
<linearGradient id="paint58_linear_500_2327" x1="246.955" y1="51.1307" x2="302.515" y2="49.6862" gradientUnits="userSpaceOnUse">
<stop/>
<stop offset="1" stop-opacity="0"/>
</linearGradient>
<linearGradient id="paint59_linear_500_2327" x1="280.097" y1="95.3427" x2="260.929" y2="131.012" gradientUnits="userSpaceOnUse">
<stop/>
<stop offset="1" stop-opacity="0"/>
</linearGradient>
<linearGradient id="paint60_linear_500_2327" x1="81.2925" y1="200.349" x2="35.9558" y2="21.2248" gradientUnits="userSpaceOnUse">
<stop stop-color="#9BC9FF"/>
<stop offset="1" stop-color="#F9FFFF"/>
</linearGradient>
<linearGradient id="paint61_linear_500_2327" x1="431.333" y1="305.238" x2="317.993" y2="143.894" gradientUnits="userSpaceOnUse">
<stop stop-color="#9BC9FF"/>
<stop offset="1" stop-color="#F9FFFF"/>
</linearGradient>
<linearGradient id="paint62_linear_500_2327" x1="375.374" y1="136.788" x2="262.032" y2="-24.5573" gradientUnits="userSpaceOnUse">
<stop stop-color="#9BC9FF"/>
<stop offset="1" stop-color="#F9FFFF"/>
</linearGradient>
</defs>
</svg>
