<svg width="351" height="223" viewBox="0 0 351 223" fill="none" xmlns="http://www.w3.org/2000/svg">
<mask id="mask0_500_2447" style="mask-type:luminance" maskUnits="userSpaceOnUse" x="0" y="0" width="351" height="223">
<path d="M150.552 2.58203C179.093 -3.34598 241.739 4.29434 256.478 37.8196C271.212 71.3449 277.086 76.3367 315.136 87.3315C364.593 101.621 364.409 173.608 305.143 181.173C280.891 184.267 319.708 202.382 309.785 212.035C299.793 221.758 251.717 228.102 211.164 214.699C183.431 205.531 165.252 195.518 115.106 199.173C64.9599 202.828 4.02408 199.523 0.164791 146.882C-2.69726 107.834 32.0912 40.9288 75.7001 21.4225C119.304 1.91613 112.393 10.5077 150.552 2.58203Z" fill="white"/>
</mask>
<g mask="url(#mask0_500_2447)">
<path d="M165.052 11.1034C193.593 5.17541 222.248 22.6841 236.982 56.2093C251.716 89.7346 291.017 72.7968 327.935 87.1662C383.535 108.805 358.639 177.253 310.124 183.346C261.614 189.439 280.641 223.08 232.35 237.099C184.059 251.118 168.323 187.877 118.172 191.537C68.0262 195.192 4.01387 199.528 0.159572 146.887C-2.70248 107.839 33.6865 72.0608 77.2905 52.5544C120.904 33.0481 126.898 19.0291 165.052 11.1034Z" fill="url(#paint0_linear_500_2447)"/>
<path d="M-13.4472 180.002C5.3506 177.979 12.062 169.257 25.4847 154.748C38.9124 140.233 51.5673 124.662 75.5108 142.331C99.4544 160.005 115.38 151.503 125.906 125.268C136.437 99.0375 158.77 105.772 168.388 109.852C177.862 113.873 190.616 114.168 201.357 103.609C212.097 93.0495 225.175 83.2813 243.3 94.4964C274.279 113.672 269.537 152.84 296.672 142.962C310.533 137.915 315.789 120.046 331.136 118.344C348.184 116.456 358.72 129.939 364.713 144.184C366.528 148.494 375.862 186.406 375.887 186.406C375.872 186.406 -20.1636 186.406 -20.1636 186.406L-13.4472 180.002Z" fill="url(#paint1_linear_500_2447)"/>
<path d="M-50.2155 148.068C-38.7424 133.759 -21.4105 131.125 -1.79493 139.126C17.8206 147.127 28.2367 134.205 52.1403 121.277C76.044 108.355 93.2064 112.66 114.657 144.048C136.107 175.435 152.656 140.969 179.626 137.894C206.597 134.815 209.045 147.127 225.594 160.665C242.143 174.204 247.264 161.897 260.332 155.128C273.401 148.359 299.449 143.437 313.395 182.209H-64.3064C-64.3114 182.204 -71.666 174.819 -50.2155 148.068Z" fill="url(#paint2_linear_500_2447)"/>
<path d="M338.072 175.075H6.35791V231.296H338.072V175.075Z" fill="url(#paint3_linear_500_2447)"/>
<path d="M48.1763 178.014L266.814 178.089C279.469 178.089 294.777 183.346 287.946 191.157C284.5 195.092 262.736 200.099 254.853 205.386C241.3 214.478 260.931 224.547 260.931 224.547L96.2877 221.989C96.2877 221.989 70.0655 199.533 110.947 193.085C170.028 183.767 134.307 180.412 100.79 180.412C75.4456 180.412 48.1763 178.014 48.1763 178.014Z" fill="#8F9BAA"/>
<path d="M5.55469 121.042H74.6479C74.6479 121.042 71.731 119.15 68.9886 117.082C66.2462 115.014 63.5038 116.912 61.6141 115.705C59.7293 114.499 59.0412 111.059 54.5836 110.022C50.126 108.991 49.6124 112.431 47.0395 110.022C44.4667 107.614 45.6683 103.138 40.0938 103.138C34.5193 103.138 34.3498 109.021 31.0938 109.091C27.8378 109.161 23.5497 106.953 21.1514 109.091C18.7531 111.229 19.4362 116.737 15.153 115.705C10.8699 114.674 5.55469 121.042 5.55469 121.042Z" fill="url(#paint4_linear_500_2447)"/>
<path d="M248.989 39.767H166.647C166.647 39.767 170.123 37.509 173.389 35.0457C176.66 32.5823 179.926 34.8404 182.174 33.4035C184.423 31.9665 185.241 27.866 190.551 26.6343C195.861 25.4026 196.475 29.5082 199.541 26.6343C202.608 23.7604 201.177 18.4282 207.818 18.4282C214.46 18.4282 214.664 25.4377 218.543 25.5228C222.428 25.6079 227.533 22.9744 230.396 25.5228C233.258 28.0712 232.44 34.6351 237.546 33.4035C242.656 32.1768 248.989 39.767 248.989 39.767Z" fill="url(#paint5_linear_500_2447)"/>
<path d="M237.925 110.137C237.925 110.137 247.877 95.5928 255.526 99.0225C263.175 102.452 262.148 96.1686 269.153 91.0417C276.159 85.9148 277.669 91.6125 283.064 91.0417C288.46 90.4709 288.599 87.0513 293.57 86.0299C301.478 84.4027 304.036 88.3631 308.334 94.4663C312.079 99.7835 312.593 99.0275 317.703 97.6005C322.814 96.1736 324.609 105.296 328.109 104.725C331.615 104.154 338.426 106.152 339.278 110.142H237.925V110.137Z" fill="url(#paint6_linear_500_2447)"/>
<path d="M175.498 66.9842C175.498 66.9842 165.546 52.4395 157.897 55.8691C150.248 59.2988 151.275 53.0153 144.27 47.8884C137.264 42.7614 135.754 48.4591 130.358 47.8884C124.963 47.3176 124.824 43.898 119.853 42.8766C111.945 41.2494 109.387 45.2097 105.089 51.313C101.344 56.6302 100.83 55.8741 95.7196 54.4472C90.6088 53.0203 88.8138 62.1426 85.3135 61.5718C81.8083 61.0011 74.9972 62.9988 74.1445 66.9892H175.498V66.9842Z" fill="url(#paint7_linear_500_2447)"/>
</g>
<mask id="mask1_500_2447" style="mask-type:luminance" maskUnits="userSpaceOnUse" x="0" y="0" width="351" height="223">
<path d="M150.552 2.58203C179.093 -3.34598 241.739 4.29434 256.478 37.8196C271.212 71.3449 277.086 76.3367 315.136 87.3315C364.593 101.621 364.409 173.608 305.143 181.173C280.891 184.267 319.708 202.382 309.785 212.035C299.793 221.758 251.717 228.102 211.164 214.699C183.431 205.531 165.252 195.518 115.106 199.173C64.9599 202.828 4.02408 199.523 0.164791 146.882C-2.69726 107.834 32.0912 40.9288 75.7001 21.4225C119.304 1.91613 112.393 10.5077 150.552 2.58203Z" fill="white"/>
</mask>
<g mask="url(#mask1_500_2447)">
<path d="M279.465 178.635C279.465 179.972 224.712 181.053 157.174 181.053C89.6365 181.053 40.458 179.997 40.458 178.66C40.458 177.323 89.6315 176.222 157.174 176.222C224.717 176.222 279.465 177.303 279.465 178.635Z" fill="#E6CFC1"/>
</g>
<mask id="mask2_500_2447" style="mask-type:luminance" maskUnits="userSpaceOnUse" x="0" y="0" width="351" height="223">
<path d="M150.552 2.58203C179.093 -3.34598 241.739 4.29434 256.478 37.8196C271.212 71.3449 277.086 76.3367 315.136 87.3315C364.593 101.621 364.409 173.608 305.143 181.173C280.891 184.267 319.708 202.382 309.785 212.035C299.793 221.758 251.717 228.102 211.164 214.699C183.431 205.531 165.252 195.518 115.106 199.173C64.9599 202.828 4.02408 199.523 0.164791 146.882C-2.69726 107.834 32.0912 40.9288 75.7001 21.4225C119.304 1.91613 112.393 10.5077 150.552 2.58203Z" fill="white"/>
</mask>
<g mask="url(#mask2_500_2447)">
<path d="M314.761 178.014C320.382 178.014 324.938 177.676 324.938 177.258C324.938 176.84 320.382 176.502 314.761 176.502C309.141 176.502 304.584 176.84 304.584 177.258C304.584 177.676 309.141 178.014 314.761 178.014Z" fill="#F1D6B1"/>
<path d="M312.797 151.493C310.259 152.755 306.774 156.285 304.281 156.46C301.952 156.625 299.14 153.281 297.31 152.114C288.584 146.552 292.169 143.998 296.308 135.992C300.691 127.511 302.072 125.493 310.304 132.377C315.061 136.358 321.802 147.017 312.797 151.493Z" fill="#D0A569"/>
<path d="M311.476 147.042C313.42 149.45 310.264 151.298 312.717 153.14C314.841 154.737 318.531 153.466 320.376 152.264C323.308 150.342 323.368 145.615 327.965 141.374C330.059 139.442 330.288 134.715 326.025 133.729C323.333 133.108 322.525 136.037 320.675 137.069C318.257 138.415 307.043 141.545 311.476 147.042Z" fill="#F3CD6B"/>
<path d="M308.175 146.351C304.48 145.535 301.892 142.611 298.098 141.755C293.64 140.749 295.824 142.176 292.778 139.662C292.648 139.557 288.265 134.435 288.116 134.095C287.058 131.666 288.31 130.194 288.754 127.836C289.252 125.208 289.153 120.692 291.072 118.664C292.528 117.122 295.585 117.953 297.345 117.097C303.164 114.263 304.375 108.385 312.159 111.459C314.193 112.265 314.951 113.692 317.334 114.268C320.89 115.134 323.502 113.497 326 117.442C327.935 120.501 326.359 121.598 326.509 124.812C326.654 127.951 329.506 130.61 329.426 133.309C329.341 136.182 321.957 145.545 319.568 146.291C317.215 147.027 316.472 144.409 314.707 144.449C312.189 144.514 310.763 146.922 308.175 146.351Z" fill="#F3B658"/>
<path d="M308.917 144.149L313.884 138.396L319.014 130.926L319.428 130.906L315.145 138.716L318.561 137.069L318.476 137.51L314.407 140.369L309.69 146.527L308.917 144.149Z" fill="#9E6652"/>
<path d="M309.157 150.247L296.587 139.367L296.178 139.432L308.882 152.73L309.157 150.247Z" fill="#9E6652"/>
<path d="M303.069 123.526L302.516 123.48L308.175 133.644L308.349 131.672L303.069 123.526Z" fill="#9E6652"/>
<path d="M309.416 132.958L311.805 119.069L311.062 119.265L308.349 131.015L308.115 133.644L307.706 155.499L307.163 177.503L311.84 177.398L310.683 155.423L309.416 132.958Z" fill="#9E6652"/>
<path d="M317.364 126.429C316.666 129.088 313.988 128.217 313.016 130.405C312.612 131.321 313.889 132.998 313.669 134.11C313.455 135.196 311.824 136.202 311.839 137.184C311.924 141.88 319.912 142.17 323.278 138.46C326.05 135.406 323.412 136.102 323.472 133.068C323.512 131.115 324.848 130.349 324.928 128.938C325.242 123.315 319.299 119.024 317.364 126.429Z" fill="#F6DE82"/>
<path d="M289.576 137.184C289.651 137.495 289.726 137.79 289.796 138.065C290.16 139.572 290.095 141.184 290.798 142.601C291.695 144.409 293.57 145.395 294.687 147.032C295.934 148.855 296.836 151.829 299.534 149.896C300.606 149.125 301.284 147.919 302.381 147.178C304.629 145.651 308.982 145.4 308.922 141.835C308.868 138.561 303.393 137.429 301.199 136.128C299.16 134.921 297.883 132.383 295.57 131.692C293.61 131.106 291.092 131.817 289.825 133.459C289.028 134.48 289.272 135.927 289.576 137.184Z" fill="#F3CD6B"/>
<path d="M303.059 115.85C300.945 116 301.399 119.5 300.691 120.581C299.115 122.969 298.098 124.016 299.544 126.74C300.371 128.297 301.817 129.368 303.548 129.689C308.863 130.67 305.961 126.96 305.407 124.066C304.879 121.317 307.237 115.554 303.059 115.85Z" fill="#F6DEAF"/>
</g>
<path d="M220.887 94.7817H124.933V178.089H220.887V94.7817Z" fill="#F4DCC9"/>
<path d="M220.887 151.844H124.933V178.095H220.887V151.844Z" fill="#E0C7A5"/>
<path d="M186.174 133.369H174.287V161.197H186.174V133.369Z" fill="#E6CFC1"/>
<path d="M185.54 132.283H173.653V160.11H185.54V132.283Z" fill="white"/>
<path d="M184.159 133.634H175.044V158.763H184.159V133.634Z" fill="#7CC7E0"/>
<path opacity="0.49" d="M184.159 133.634H175.044V149.22H184.159V133.634Z" fill="white"/>
<path d="M185.54 132.283H173.653V134.946H185.54V132.283Z" fill="#E6CFC1"/>
<path d="M173.653 152.25H185.545" stroke="white" stroke-width="0.3444" stroke-miterlimit="10"/>
<path d="M172.911 133.918H186.174V131.024H172.911V133.918Z" fill="#FF9029"/>
<path d="M245.184 173.608H124.933V178.094H245.184V173.608Z" fill="#E6CFC1"/>
<path d="M220.887 111.955H124.933V116.686H220.887V111.955Z" fill="#E6CFC1"/>
<path d="M233.671 79.1406H119.872V115.355H233.671V79.1406Z" fill="#FF9029"/>
<path d="M233.671 79.1406L119.872 82.0596V79.1406H233.671Z" fill="#FFB675"/>
<path d="M233.671 110.728H119.872V115.359H233.671V110.728Z" fill="#DB7C27"/>
<path opacity="0.74" d="M186.138 110.728C187.026 112.275 187.908 113.822 188.831 115.359H233.671V110.728H186.138Z" fill="#E6CFC1"/>
<path d="M166.852 132.563H146.299V173.709H166.852V132.563Z" fill="white"/>
<path d="M165.531 133.845H147.615V172.432H165.531V133.845Z" fill="#7CC7E0"/>
<path opacity="0.49" d="M165.531 133.845H147.615V148.891H165.531V133.845Z" fill="white"/>
<path d="M166.852 132.563H146.299V134.827H166.852V132.563Z" fill="#E6CFC1"/>
<path d="M156.665 132.563V173.709" stroke="white" stroke-width="0.4201" stroke-miterlimit="10"/>
<path d="M145.591 134.115H167.451V131.367H145.591V134.115Z" fill="#FF9029"/>
<path d="M146.299 162.404H166.852" stroke="white" stroke-width="0.4201" stroke-miterlimit="10"/>
<path d="M150.338 151.629H149.411V155.169H150.338V151.629Z" fill="white"/>
<path d="M272.798 110.588V178.089H194.55V110.588L233.671 86.9707L272.798 110.588Z" fill="#FCEFE5"/>
<path d="M272.798 145.255H194.55V178.089H272.798V145.255Z" fill="#F1D6B1"/>
<path d="M272.798 110.588V114.723L233.671 89.1136L194.55 114.733V110.588L233.671 86.9707L272.798 110.588Z" fill="#E6CFC1"/>
<path d="M279.036 108.896L233.672 79.2007L188.312 108.896L191.17 114.804L233.672 86.9762L276.179 114.804L279.036 108.896Z" fill="#DB7C27"/>
<path d="M259.031 133.369H210.516V161.197H259.031V133.369Z" fill="#E6CFC1"/>
<path d="M258.398 132.283H209.882V160.11H258.398V132.283Z" fill="white"/>
<path d="M257.011 133.634H211.273V158.763H257.011V133.634Z" fill="#7CC7E0"/>
<path opacity="0.49" d="M257.011 133.634H211.273V149.721H257.011V133.634Z" fill="white"/>
<path d="M258.398 132.283H209.882V134.946H258.398V132.283Z" fill="#E6CFC1"/>
<path d="M209.882 152.25H258.398" stroke="white" stroke-width="0.3444" stroke-miterlimit="10"/>
<path d="M243.633 132.283V160.11" stroke="white" stroke-width="0.3444" stroke-miterlimit="10"/>
<path d="M224.542 132.283V160.11" stroke="white" stroke-width="0.3444" stroke-miterlimit="10"/>
<path d="M209.141 133.918H259.032V131.024H209.141V133.918Z" fill="#FF9029"/>
<path d="M150.357 118.504H139.328V178.089H124.933V115.36H119.872V79.1406H139.323V97.4403H143.182L148.124 111.955L148.223 112.23L149.285 115.36L149.734 116.686L150.357 118.504Z" fill="#E6CFC1"/>
<path d="M121.707 26.9756H109.177V44.8748H121.707V26.9756Z" fill="#FCEFE5"/>
<path d="M121.707 26.9756H109.177V30.9309H121.707V26.9756Z" fill="#E6CFC1"/>
<path d="M123.816 24.7222H107.093V29.058H123.816V24.7222Z" fill="#E98730"/>
<path d="M128.458 54.7775V131.036H50.2104V54.7775L89.3368 31.1606L128.458 54.7775Z" fill="#FCEFE5"/>
<path d="M128.458 54.7775V58.9131L89.3368 33.3035L50.2104 58.9231V54.7775L89.3368 31.1606L128.458 54.7775Z" fill="#E6CFC1"/>
<path d="M134.696 53.0852L89.3372 23.3901L43.9731 53.0852L46.8302 58.9932L89.3372 31.1656L131.839 58.9932L134.696 53.0852Z" fill="#DB7C27"/>
<path d="M113.575 60.9058H95.8643V88.7334H113.575V60.9058Z" fill="#E6CFC1"/>
<path d="M112.942 59.8193H95.231V87.6469H112.942V59.8193Z" fill="white"/>
<path d="M111.556 61.166H96.6172V86.295H111.556V61.166Z" fill="#7CC7E0"/>
<path opacity="0.49" d="M111.556 61.166H96.6172V77.2527H111.556V61.166Z" fill="white"/>
<path d="M112.942 59.8193H95.231V62.4829H112.942V59.8193Z" fill="#E6CFC1"/>
<path d="M95.231 79.7812H112.942" stroke="white" stroke-width="0.3444" stroke-miterlimit="10"/>
<path d="M104.086 59.8193V87.6419" stroke="white" stroke-width="0.3444" stroke-miterlimit="10"/>
<path d="M94.4906 61.4521H113.578V58.5582H94.4906V61.4521Z" fill="#E98730"/>
<path d="M83.1293 60.9058H65.4185V88.7334H83.1293V60.9058Z" fill="#E6CFC1"/>
<path d="M82.496 59.8193H64.7852V87.6469H82.496V59.8193Z" fill="white"/>
<path d="M81.1099 61.166H66.1714V86.295H81.1099V61.166Z" fill="#7CC7E0"/>
<path opacity="0.49" d="M81.1099 61.166H66.1714V77.2527H81.1099V61.166Z" fill="white"/>
<path d="M82.496 59.8193H64.7852V62.4829H82.496V59.8193Z" fill="#E6CFC1"/>
<path d="M64.7852 79.7812H82.496" stroke="white" stroke-width="0.3444" stroke-miterlimit="10"/>
<path d="M73.6401 59.8193V87.6419" stroke="white" stroke-width="0.3444" stroke-miterlimit="10"/>
<path d="M64.0438 61.4521H83.1309V58.5582H64.0438V61.4521Z" fill="#E98730"/>
<path d="M128.459 101.831H41.1362V178.084H128.459V101.831Z" fill="#FCEFE5"/>
<path d="M128.459 101.831H41.1362V123.385H128.459V101.831Z" fill="#E6CFC1"/>
<path d="M128.459 146.111H41.1362V178.09H128.459V146.111Z" fill="#F1D6B1"/>
<path d="M128.459 176.907H41.1362V178.089H128.459V176.907Z" fill="#E6CFC1"/>
<path d="M112.219 141.334H55.6904V178.089H112.219V141.334Z" fill="white"/>
<path d="M109.82 143.006H58.0889V178.089H109.82V143.006Z" fill="#B7B0A8"/>
<path d="M109.82 175.14H58.0889V176.322H109.82V175.14Z" fill="#D6CEC5"/>
<path d="M109.82 172.552H58.0889V173.733H109.82V172.552Z" fill="#D6CEC5"/>
<path d="M109.82 169.963H58.0889V171.145H109.82V169.963Z" fill="#D6CEC5"/>
<path d="M109.82 167.375H58.0889V168.556H109.82V167.375Z" fill="#D6CEC5"/>
<path d="M109.82 164.786H58.0889V165.968H109.82V164.786Z" fill="#D6CEC5"/>
<path d="M109.82 162.197H58.0889V163.379H109.82V162.197Z" fill="#D6CEC5"/>
<path d="M109.82 159.609H58.0889V160.79H109.82V159.609Z" fill="#D6CEC5"/>
<path d="M109.82 157.021H58.0889V158.203H109.82V157.021Z" fill="#D6CEC5"/>
<path d="M109.82 154.432H58.0889V155.614H109.82V154.432Z" fill="#D6CEC5"/>
<path d="M109.82 151.844H58.0889V153.025H109.82V151.844Z" fill="#D6CEC5"/>
<path d="M109.82 149.25H58.0889V150.432H109.82V149.25Z" fill="#D6CEC5"/>
<path d="M109.82 146.662H58.0889V147.843H109.82V146.662Z" fill="#D6CEC5"/>
<path d="M109.82 144.073H58.0889V145.254H109.82V144.073Z" fill="#D6CEC5"/>
<path d="M116.357 136.963H52.0454V141.334H116.357V136.963Z" fill="#FF9029"/>
<path d="M139.493 118.504H32.0112L39.1863 92.3833H50.2107V97.4401H132.318L139.493 118.504Z" fill="#FF9029"/>
<path d="M140.794 117.502H29.8174V122.234H140.794V117.502Z" fill="#DB7C27"/>
<path opacity="0.4" d="M291.441 213.727C291.441 214.143 286.066 214.483 279.434 214.483C272.803 214.483 267.428 214.148 267.428 213.727C267.428 213.307 272.803 212.971 279.434 212.971C286.066 212.971 291.441 213.307 291.441 213.727Z" fill="#F1D6B1"/>
<path d="M277.649 185.344H275.58V213.722H277.649V185.344Z" fill="#9E6652"/>
<path d="M290.219 193.084H261.21C260.417 193.084 259.654 192.774 259.091 192.218L252.265 185.524C251.043 184.328 251.043 182.36 252.265 181.163L259.091 174.469C259.659 173.913 260.417 173.603 261.21 173.603H290.219C291.895 173.603 293.256 174.97 293.256 176.652V190.035C293.256 191.723 291.9 193.084 290.219 193.084Z" fill="#FF9029"/>
<path d="M264.401 181.168L265.952 177.113H266.71L268.256 181.168H267.268L266.954 180.262H265.698L265.389 181.168H264.401ZM266.331 178.109L265.847 179.616H266.8L266.331 178.109Z" fill="white"/>
<path d="M269.776 181.168V177.113H270.709V180.347H272.663V181.168H269.776Z" fill="white"/>
<path d="M274.698 181.203C274.409 181.203 274.15 181.143 273.915 181.028C273.681 180.913 273.476 180.752 273.312 180.562C273.142 180.372 273.013 180.152 272.918 179.901C272.823 179.651 272.778 179.401 272.778 179.135C272.778 178.87 272.828 178.609 272.923 178.364C273.018 178.119 273.152 177.899 273.327 177.708C273.501 177.518 273.706 177.368 273.94 177.258C274.174 177.147 274.434 177.087 274.718 177.087C275.007 177.087 275.266 177.147 275.501 177.263C275.735 177.383 275.94 177.538 276.104 177.733C276.274 177.929 276.403 178.149 276.493 178.394C276.583 178.64 276.628 178.895 276.628 179.15C276.628 179.416 276.578 179.676 276.483 179.921C276.388 180.167 276.254 180.387 276.084 180.577C275.915 180.767 275.71 180.918 275.471 181.033C275.237 181.148 274.977 181.203 274.698 181.203ZM273.726 179.15C273.726 179.305 273.746 179.456 273.791 179.606C273.835 179.751 273.895 179.881 273.98 179.996C274.06 180.111 274.164 180.202 274.289 180.272C274.414 180.342 274.553 180.377 274.713 180.377C274.877 180.377 275.017 180.342 275.142 180.267C275.261 180.197 275.366 180.101 275.446 179.986C275.526 179.871 275.591 179.741 275.63 179.591C275.67 179.441 275.69 179.295 275.69 179.14C275.69 178.985 275.67 178.835 275.625 178.685C275.581 178.539 275.521 178.409 275.436 178.294C275.351 178.179 275.251 178.094 275.127 178.024C275.007 177.959 274.868 177.924 274.713 177.924C274.548 177.924 274.409 177.959 274.284 178.029C274.164 178.099 274.06 178.189 273.98 178.304C273.9 178.419 273.835 178.549 273.796 178.695C273.746 178.845 273.726 178.995 273.726 179.15Z" fill="white"/>
<path d="M278.906 180.372C279.065 180.372 279.2 180.337 279.31 180.272C279.419 180.207 279.509 180.117 279.579 180.007C279.649 179.896 279.693 179.771 279.723 179.626C279.753 179.481 279.768 179.336 279.768 179.19V177.118H280.701V179.19C280.701 179.471 280.666 179.736 280.596 179.977C280.526 180.217 280.416 180.432 280.272 180.617C280.127 180.803 279.938 180.943 279.713 181.048C279.489 181.153 279.22 181.203 278.911 181.203C278.587 181.203 278.312 181.148 278.088 181.038C277.859 180.928 277.674 180.783 277.534 180.597C277.39 180.412 277.285 180.197 277.22 179.957C277.156 179.716 277.121 179.456 277.121 179.19V177.118H278.053V179.19C278.053 179.346 278.068 179.496 278.098 179.636C278.128 179.776 278.178 179.901 278.247 180.012C278.317 180.122 278.402 180.212 278.512 180.272C278.611 180.337 278.746 180.372 278.906 180.372Z" fill="white"/>
<path d="M284.251 180.347V181.168H281.414V177.113H284.201V177.934H282.346V178.72H283.937V179.481H282.346V180.342H284.251V180.347Z" fill="white"/>
<path d="M284.834 181.168V177.113H286.654C286.844 177.113 287.018 177.153 287.178 177.233C287.338 177.313 287.477 177.418 287.597 177.548C287.716 177.679 287.806 177.824 287.871 177.989C287.936 178.154 287.971 178.319 287.971 178.485C287.971 178.61 287.956 178.73 287.926 178.845C287.896 178.96 287.851 179.07 287.796 179.176C287.741 179.281 287.672 179.371 287.587 179.451C287.507 179.531 287.412 179.601 287.313 179.661L288.24 181.168H287.188L286.375 179.862H285.767V181.168H284.834ZM285.767 179.045H286.619C286.729 179.045 286.824 178.995 286.904 178.89C286.983 178.785 287.023 178.65 287.023 178.49C287.023 178.324 286.979 178.189 286.889 178.089C286.799 177.989 286.699 177.939 286.595 177.939H285.772V179.045H285.767Z" fill="white"/>
<path d="M289.048 189.855H264.117C263.863 189.855 263.658 189.649 263.658 189.394V184.763C263.658 184.508 263.863 184.302 264.117 184.302H289.048C289.302 184.302 289.506 184.508 289.506 184.763V189.394C289.506 189.649 289.302 189.855 289.048 189.855Z" fill="white"/>
<defs>
<linearGradient id="paint0_linear_500_2447" x1="180.301" y1="169.695" x2="178.293" y2="25.7239" gradientUnits="userSpaceOnUse">
<stop offset="0.005248" stop-color="#9AE8D7"/>
<stop offset="0.9983" stop-color="#F5F1E9"/>
</linearGradient>
<linearGradient id="paint1_linear_500_2447" x1="177.867" y1="167.518" x2="177.867" y2="90.7663" gradientUnits="userSpaceOnUse">
<stop offset="0.005248" stop-color="#9AE8D7"/>
<stop offset="0.9983" stop-color="#F5F1E9"/>
</linearGradient>
<linearGradient id="paint2_linear_500_2447" x1="123.93" y1="193.345" x2="123.93" y2="113.552" gradientUnits="userSpaceOnUse">
<stop offset="0.005248" stop-color="#9AE8D7"/>
<stop offset="0.9983" stop-color="#F5F1E9"/>
</linearGradient>
<linearGradient id="paint3_linear_500_2447" x1="172.216" y1="240.537" x2="172.216" y2="174.322" gradientUnits="userSpaceOnUse">
<stop offset="0.00172276" stop-color="#FF9248"/>
<stop offset="0.9805" stop-color="#FFF085"/>
</linearGradient>
<linearGradient id="paint4_linear_500_2447" x1="40.1002" y1="106.199" x2="40.1002" y2="123.598" gradientUnits="userSpaceOnUse">
<stop offset="0.005248" stop-color="white"/>
<stop offset="0.9983" stop-color="white" stop-opacity="0"/>
</linearGradient>
<linearGradient id="paint5_linear_500_2447" x1="207.819" y1="22.0792" x2="207.819" y2="46.4337" gradientUnits="userSpaceOnUse">
<stop offset="0.005248" stop-color="white"/>
<stop offset="0.9983" stop-color="white" stop-opacity="0"/>
</linearGradient>
<linearGradient id="paint6_linear_500_2447" x1="288.601" y1="93.4659" x2="288.601" y2="111.909" gradientUnits="userSpaceOnUse">
<stop offset="0.005248" stop-color="white"/>
<stop offset="0.9983" stop-color="white" stop-opacity="0"/>
</linearGradient>
<linearGradient id="paint7_linear_500_2447" x1="124.825" y1="50.3113" x2="124.825" y2="68.754" gradientUnits="userSpaceOnUse">
<stop offset="0.005248" stop-color="white"/>
<stop offset="0.9983" stop-color="white" stop-opacity="0"/>
</linearGradient>
</defs>
</svg>
