<svg width="353" height="209" viewBox="0 0 353 209" fill="none" xmlns="http://www.w3.org/2000/svg">
<path d="M52.776 95.8357C54.3508 109.565 50.3445 123.25 46.3194 136.468C42.2942 149.686 38.1557 163.308 39.4596 177.062C40.7257 190.343 48.3981 203.921 60.8515 208.316H334.934C340.805 197.898 345.995 187.089 347.91 175.353C350.392 160.142 346.14 142.806 333.561 133.914C326.411 128.862 317 126.699 311.677 119.743C301.989 107.067 312.024 88.2617 307.356 73.0066C303.665 60.9299 291.079 53.3623 278.582 51.6343C266.084 49.9064 253.473 52.8578 241.146 55.5191C218.04 60.5011 193.43 64.4363 171.213 56.3515C154.81 50.3857 141.405 38.4477 127.994 27.2539C114.59 16.0601 100.089 5.04915 82.9804 1.57434C65.8719 -1.90047 45.5509 4.45004 38.1935 20.3043C32.6628 32.2233 35.5352 46.3244 40.1966 58.6092C44.8643 70.894 51.2768 82.7752 52.776 95.8357Z" fill="#FFF3E6"/>
<path d="M346.379 131.902C347.664 131.87 349.012 131.732 350.07 131.006C351.387 130.105 352.01 128.427 351.979 126.832C351.947 125.236 351.355 123.71 350.65 122.278C346.404 113.639 337.686 107.358 328.156 106.077C324.067 105.529 318.178 106.828 318.367 112.125C318.493 115.657 322.316 120.103 324.609 122.518C330.197 128.408 338.215 132.091 346.379 131.902Z" fill="#CEE8F0"/>
<path d="M44.8263 110.864C43.8625 114.036 42.0609 117.574 38.7917 118.091C35.8626 118.557 33.1035 116.205 31.976 113.456C30.8484 110.712 30.9303 107.647 30.8295 104.677C30.4705 94.3662 27.6233 84.1562 22.5966 75.157C21.4438 73.0885 20.1525 71.0326 19.6864 68.7055C19.2265 66.3785 19.7934 63.6668 21.7399 62.3109C24.4737 60.4064 28.2469 62.0208 30.9114 64.0136C45.8593 75.1696 50.0923 93.5463 44.8263 110.864Z" fill="#CEE8F0"/>
<path d="M261.001 28.7675H310.449C312.314 28.7675 312.938 26.1819 311.243 25.4125C311.23 25.4062 311.218 25.3999 311.205 25.3936C309.687 24.7378 307.955 25.154 306.311 25.299C304.667 25.4441 302.701 25.1161 301.952 23.6405C301.416 22.5873 301.675 21.2377 301.045 20.235C300.245 18.9674 298.424 18.8602 296.975 19.226C295.527 19.5918 294.103 20.3044 292.616 20.1593C290.349 19.9386 288.761 17.8638 287.665 15.8647C286.21 13.2097 284.894 10.1196 281.215 9.89256C280.629 9.85472 280.037 9.91779 279.464 10.0691C276.415 10.87 274.494 13.4178 273.417 16.1737C272.799 17.7503 272.409 19.4467 271.502 20.8783C270.595 22.3098 268.951 23.4639 267.288 23.1486C265.228 22.7576 263.918 20.317 261.436 21.1179C259.968 21.5972 258.979 22.9657 258.834 24.5044C258.721 25.6774 258.954 26.7432 259.401 27.7333C259.672 28.3639 260.308 28.7675 261.001 28.7675Z" fill="#CEE8F0"/>
<path d="M82.9434 47.2641H132.392C134.256 47.2641 134.88 44.6785 133.185 43.9091C133.173 43.9028 133.16 43.8965 133.148 43.8902C131.63 43.2343 129.897 43.6506 128.253 43.7956C126.609 43.9407 124.644 43.6127 123.894 42.137C123.359 41.0839 123.617 39.7343 122.987 38.7316C122.187 37.464 120.367 37.3568 118.918 37.7226C117.469 38.0947 116.045 38.801 114.559 38.6559C112.291 38.4352 110.704 36.3604 109.608 34.3613C108.153 31.7063 106.836 28.6162 103.157 28.3891C102.572 28.3513 101.979 28.4144 101.406 28.5657C98.3574 29.3666 96.4362 31.9144 95.359 34.6703C94.7417 36.2469 94.3512 37.9433 93.4441 39.3748C92.537 40.8064 90.8929 41.9605 89.2299 41.6451C87.1701 41.2541 85.8599 38.8136 83.378 39.6145C81.9103 40.0938 80.9214 41.4623 80.7765 43.001C80.6631 44.174 80.8962 45.2398 81.3434 46.2299C81.6143 46.8605 82.2505 47.2641 82.9434 47.2641Z" fill="white"/>
<path d="M332.528 39.9806C332.439 39.8293 332.332 39.6905 332.213 39.5707C331.507 38.8959 330.48 38.6941 329.529 38.4671C328.578 38.2401 327.558 37.8869 327.035 37.0608C326.443 36.1148 326.65 34.7652 325.895 33.9391C325.076 33.0436 323.608 33.2769 322.499 33.7625C321.391 34.2481 320.244 34.9355 319.047 34.7085C317.189 34.3616 316.446 32.1544 315.148 30.7733C312.899 28.3832 308.333 29.0138 306.808 31.9148C305.926 33.5923 305.838 35.8941 304.188 36.8211C303.129 37.4202 301.819 37.1806 300.622 36.9725C299.426 36.7644 298.065 36.6509 297.114 37.4076C296.578 37.8365 296.433 39.0158 296.622 39.9743H332.528V39.9806Z" fill="#CEE8F0"/>
<path d="M38.9685 138.536C38.874 138.372 38.7607 138.221 38.6284 138.095C37.8599 137.363 36.7512 137.149 35.7245 136.897C34.6914 136.651 33.5891 136.272 33.0221 135.371C32.3796 134.343 32.6064 132.88 31.7875 131.984C30.8993 131.013 29.3119 131.271 28.1088 131.795C26.9057 132.325 25.6647 133.062 24.3734 132.823C22.3577 132.451 21.5577 130.054 20.153 128.56C17.7152 125.974 12.7704 126.649 11.12 129.796C10.1688 131.612 10.068 134.103 8.28538 135.112C7.13893 135.755 5.71532 135.503 4.4177 135.276C3.12007 135.055 1.64607 134.923 0.619307 135.749C0.0397857 136.216 -0.12399 137.489 0.0901813 138.53H38.9685V138.536Z" fill="#CEE8F0"/>
<path d="M71.5353 67.2748C71.5353 64.1972 69.0471 61.7062 65.9731 61.7062C69.0471 61.7062 71.5353 59.2152 71.5353 56.1377C71.5353 59.2152 74.0235 61.7062 77.0974 61.7062C74.0235 61.7062 71.5353 64.1972 71.5353 67.2748Z" fill="white"/>
<path d="M289.801 66.8514C289.801 64.3541 287.779 62.3298 285.284 62.3298C287.779 62.3298 289.801 60.3054 289.801 57.8081C289.801 60.3054 291.823 62.3298 294.317 62.3298C291.823 62.3361 289.801 64.3604 289.801 66.8514Z" fill="white"/>
<path d="M326.336 138.114C326.336 135.616 324.314 133.592 321.819 133.592C324.314 133.592 326.336 131.568 326.336 129.07C326.336 131.568 328.358 133.592 330.852 133.592C328.358 133.598 326.336 135.623 326.336 138.114Z" fill="white"/>
<path d="M330.588 140.876C330.588 139.426 329.41 138.246 327.961 138.246C329.41 138.246 330.588 137.067 330.588 135.617C330.588 137.067 331.766 138.246 333.214 138.246C331.759 138.246 330.588 139.426 330.588 140.876Z" fill="white"/>
<path d="M85.7079 173.745C85.7079 171.248 83.6859 169.224 81.1914 169.224C83.6859 169.224 85.7079 167.199 85.7079 164.702C85.7079 167.199 87.7299 169.224 90.2244 169.224C87.7299 169.23 85.7079 171.254 85.7079 173.745Z" fill="white"/>
<path d="M121.298 61.4916C121.298 58.9943 119.276 56.9699 116.781 56.9699C119.276 56.9699 121.298 54.9456 121.298 52.4482C121.298 54.9456 123.32 56.9699 125.814 56.9699C123.32 56.9762 121.298 59.0006 121.298 61.4916Z" fill="white"/>
<path d="M118.249 64.8592C118.249 63.6989 117.311 62.7592 116.152 62.7592C117.311 62.7592 118.249 61.8196 118.249 60.6592C118.249 61.8196 119.188 62.7592 120.347 62.7592C119.194 62.7529 118.249 63.6989 118.249 64.8592Z" fill="white"/>
<path d="M76.467 69.1662C76.467 67.4257 75.0559 66.013 73.3174 66.013C75.0559 66.013 76.467 64.6004 76.467 62.8599C76.467 64.6004 77.878 66.013 79.6165 66.013C77.878 66.013 76.467 67.4257 76.467 69.1662Z" fill="white"/>
<path d="M194.929 161.782C193.241 155.986 193.839 149.257 197.675 144.597C201.732 139.671 208.447 137.918 213.555 134.09C218.708 130.231 222.129 124.132 222.733 117.719C223.477 109.924 220.535 101.013 225.373 94.8583C230.632 88.1672 241.732 89.4096 247.772 83.4185C250.834 80.3852 252.056 75.9896 254.412 72.3824C256.768 68.7688 261.46 65.8048 265.24 67.8607C268.396 69.576 269.114 73.8455 268.578 77.4023C268.049 80.9591 266.638 84.4402 266.966 88.0222C267.363 92.4051 270.26 96.088 272.774 99.6953C275.287 103.309 277.618 107.603 276.673 111.904C275.778 115.997 272.163 118.892 268.528 120.96C264.893 123.029 260.894 124.719 258.128 127.86C255.098 131.297 253.971 136.033 253.738 140.611C253.505 145.189 254.059 149.774 253.895 154.353C253.605 162.475 250.941 170.61 245.776 176.879C240.61 183.147 232.85 187.392 224.736 187.638C210.74 188.066 198.626 174.464 194.929 161.782Z" fill="#21B789"/>
<path d="M263.394 70.7422L214.632 179.742" stroke="#0E293A" stroke-miterlimit="10" stroke-linecap="round" stroke-linejoin="round"/>
<path d="M243.079 88.5576L247.016 107.319" stroke="#0E293A" stroke-miterlimit="10" stroke-linecap="round" stroke-linejoin="round"/>
<path d="M271.268 102.199L241.744 119.459" stroke="#0E293A" stroke-miterlimit="10" stroke-linecap="round" stroke-linejoin="round"/>
<path d="M223.162 123.956C223.244 124.195 229.228 146.659 229.228 146.659" stroke="#0E293A" stroke-miterlimit="10" stroke-linecap="round" stroke-linejoin="round"/>
<path d="M251.35 149.339L221.347 164.707" stroke="#0E293A" stroke-miterlimit="10" stroke-linecap="round" stroke-linejoin="round"/>
<path d="M263.388 169.191C267.13 163.301 269.864 156.925 271.615 150.291L265.517 151.212L272.333 147.333C273.958 139.904 274.387 132.198 273.656 124.511C273.543 123.287 272.138 122.656 271.136 123.363C266.191 126.882 261.555 130.804 257.234 135.048L257.776 140.749L255.281 137.022C249.669 142.799 244.617 149.137 240.151 155.878L244.327 161.031L238.633 158.212C235.867 162.563 233.348 167.072 231.074 171.695L237.379 179.294L229.833 174.28C225.222 184.244 221.94 195.445 224.466 205.894C224.756 207.08 226.211 207.528 227.105 206.701C239.792 194.972 254.173 183.696 263.388 169.191Z" fill="#3BDBAA"/>
<path d="M129.418 207.281C123.402 207.691 116.964 205.667 113.235 200.918C109.292 195.898 109.021 188.955 106.376 183.141C103.711 177.276 98.4954 172.628 92.3663 170.66C84.9207 168.27 75.5979 169.241 70.6279 163.194C65.2232 156.622 68.8138 146.028 64.2532 138.838C61.9477 135.2 57.9225 133.062 54.8989 129.984C51.8753 126.913 49.9856 121.685 52.8076 118.425C55.1572 115.707 59.4784 115.915 62.8296 117.195C66.1807 118.475 69.2862 120.594 72.8452 121.042C77.2105 121.59 81.4184 119.547 85.4813 117.857C89.5443 116.173 94.2371 114.811 98.2308 116.653C102.029 118.399 104.083 122.555 105.33 126.554C106.577 130.552 107.365 134.821 109.84 138.201C112.542 141.897 116.927 144.016 121.342 145.22C125.758 146.425 130.35 146.866 134.785 148.008C142.646 150.026 150.016 154.371 155.03 160.766C160.044 167.16 162.526 175.655 161.033 183.645C158.451 197.437 142.583 206.38 129.418 207.281Z" fill="#21B789"/>
<path d="M55.7368 121.092L149.462 194.505" stroke="#0E293A" stroke-miterlimit="10" stroke-linecap="round" stroke-linejoin="round"/>
<path d="M80.0894 123.325L85.6011 144.369" stroke="#0E293A" stroke-miterlimit="10" stroke-linecap="round" stroke-linejoin="round"/>
<path d="M72.2969 158.798L98.0415 154.144" stroke="#0E293A" stroke-miterlimit="10" stroke-linecap="round" stroke-linejoin="round"/>
<path d="M118.596 147.996L121.903 172.83" stroke="#0E293A" stroke-miterlimit="10" stroke-linecap="round" stroke-linejoin="round"/>
<path d="M116.234 188.672C116.474 188.754 137.179 184.806 137.179 184.806" stroke="#0E293A" stroke-miterlimit="10" stroke-linecap="round" stroke-linejoin="round"/>
<path d="M119.925 124.063C116.908 113.916 112.329 104.45 106.483 95.8479L101.475 103.762L103.806 92.0893C96.921 82.8441 88.5242 74.69 79.0125 67.8917C77.5007 66.8133 75.3779 67.7908 75.2015 69.6449C74.3133 78.808 74.1936 88.0217 74.7606 97.2037L81.8156 102.249L75.0692 101.404C76.1023 113.581 78.3322 125.677 81.6014 137.495L91.6486 137.829L82.7668 141.556C85.003 149.055 87.6549 156.421 90.6785 163.622L105.639 163.95L92.3982 167.614C99.2138 182.806 108.77 197.696 123.233 205.188C124.877 206.039 126.836 204.809 126.779 202.962C125.979 176.746 127.365 149.055 119.925 124.063Z" fill="#3BDBAA"/>
<path d="M79.6733 73.1641L114.634 183.526" stroke="#0E293A" stroke-miterlimit="10" stroke-linecap="round" stroke-linejoin="round"/>
<path d="M77.6201 108.057L94.5018 120.405" stroke="#0E293A" stroke-miterlimit="10" stroke-linecap="round" stroke-linejoin="round"/>
<path d="M110.408 110.788C110.326 111.103 101.822 142.874 101.822 142.874" stroke="#0E293A" stroke-miterlimit="10" stroke-linecap="round" stroke-linejoin="round"/>
<path d="M88.5933 150.833L106.47 157.695" stroke="#0E293A" stroke-miterlimit="10" stroke-linecap="round" stroke-linejoin="round"/>
<path d="M121.191 150.045L111.824 174.249" stroke="#0E293A" stroke-miterlimit="10" stroke-linecap="round" stroke-linejoin="round"/>
<path d="M224.34 208.31H126.508C120.397 208.31 115.446 203.353 115.446 197.236V12.4212C115.446 6.30398 120.397 1.34717 126.508 1.34717H224.34C230.45 1.34717 235.401 6.30398 235.401 12.4212V197.236C235.401 203.353 230.45 208.31 224.34 208.31Z" fill="#0E293A"/>
<path d="M230.872 16.2559H119.976V193.408H230.872V16.2559Z" fill="white"/>
<path d="M173.235 117.044C173.229 117.044 173.216 117.044 173.21 117.044C171.717 116.969 170.218 116.823 168.744 116.596C168.447 116.552 168.24 116.275 168.284 115.972C168.328 115.676 168.611 115.468 168.907 115.512C170.344 115.726 171.805 115.877 173.26 115.947C173.562 115.959 173.795 116.218 173.777 116.521C173.764 116.817 173.525 117.044 173.235 117.044ZM177.663 117.038C177.373 117.038 177.134 116.811 177.115 116.521C177.102 116.218 177.329 115.959 177.632 115.947C179.087 115.871 180.554 115.726 181.984 115.505C182.28 115.461 182.564 115.663 182.608 115.966C182.652 116.262 182.45 116.546 182.148 116.59C180.68 116.817 179.175 116.969 177.682 117.044C177.682 117.038 177.669 117.038 177.663 117.038ZM164.485 115.714C164.441 115.714 164.397 115.707 164.347 115.695C162.904 115.323 161.462 114.868 160.063 114.351C159.78 114.244 159.635 113.929 159.742 113.645C159.849 113.361 160.164 113.216 160.448 113.323C161.808 113.828 163.213 114.269 164.624 114.629C164.914 114.705 165.09 115.001 165.014 115.297C164.945 115.55 164.725 115.714 164.485 115.714ZM186.413 115.701C186.167 115.701 185.947 115.537 185.884 115.291C185.808 115.001 185.984 114.698 186.274 114.623C187.685 114.257 189.09 113.815 190.45 113.311C190.734 113.204 191.049 113.349 191.156 113.632C191.263 113.916 191.118 114.232 190.835 114.339C189.436 114.856 188 115.31 186.551 115.682C186.501 115.695 186.457 115.701 186.413 115.701ZM156.177 112.642C156.095 112.642 156.013 112.623 155.937 112.586C154.596 111.93 153.279 111.192 152.013 110.404C151.755 110.246 151.679 109.905 151.837 109.647C151.994 109.388 152.334 109.313 152.593 109.47C153.827 110.24 155.112 110.959 156.416 111.595C156.687 111.728 156.8 112.056 156.668 112.327C156.574 112.529 156.378 112.642 156.177 112.642ZM194.709 112.623C194.507 112.623 194.312 112.51 194.217 112.314C194.085 112.043 194.198 111.715 194.469 111.583C195.773 110.94 197.058 110.221 198.293 109.451C198.551 109.294 198.885 109.369 199.049 109.628C199.206 109.886 199.131 110.221 198.872 110.385C197.606 111.173 196.29 111.911 194.954 112.567C194.872 112.604 194.79 112.623 194.709 112.623ZM148.668 107.957C148.548 107.957 148.435 107.919 148.334 107.843C147.156 106.929 146.01 105.945 144.926 104.917C144.706 104.709 144.7 104.362 144.908 104.141C145.115 103.921 145.462 103.914 145.682 104.122C146.734 105.125 147.856 106.084 149.002 106.973C149.241 107.156 149.285 107.503 149.096 107.742C148.989 107.881 148.832 107.957 148.668 107.957ZM202.217 107.925C202.053 107.925 201.89 107.849 201.783 107.711C201.6 107.471 201.644 107.131 201.877 106.941C203.023 106.052 204.138 105.087 205.197 104.085C205.417 103.876 205.764 103.883 205.971 104.103C206.179 104.324 206.173 104.671 205.953 104.879C204.869 105.907 203.729 106.891 202.551 107.805C202.45 107.887 202.337 107.925 202.217 107.925ZM142.249 101.852C142.098 101.852 141.941 101.789 141.834 101.663C140.857 100.528 139.931 99.3359 139.081 98.1124C138.911 97.8665 138.967 97.526 139.213 97.3494C139.459 97.1791 139.799 97.2359 139.975 97.4818C140.807 98.6737 141.708 99.8341 142.659 100.944C142.854 101.171 142.829 101.518 142.602 101.713C142.501 101.808 142.375 101.852 142.249 101.852ZM208.63 101.821C208.504 101.821 208.378 101.776 208.271 101.688C208.044 101.493 208.012 101.146 208.214 100.919C209.159 99.8152 210.066 98.6485 210.897 97.4566C211.068 97.2106 211.408 97.1476 211.66 97.3178C211.905 97.4881 211.968 97.835 211.798 98.0809C210.948 99.3044 210.022 100.503 209.052 101.631C208.938 101.751 208.781 101.821 208.63 101.821ZM137.178 94.5872C136.99 94.5872 136.801 94.4863 136.7 94.3034C135.975 92.998 135.308 91.6421 134.716 90.2736C134.596 89.9961 134.722 89.6745 134.999 89.5547C135.276 89.4349 135.597 89.561 135.717 89.8385C136.29 91.1691 136.939 92.4935 137.651 93.7674C137.796 94.0322 137.701 94.3665 137.437 94.5115C137.361 94.562 137.267 94.5872 137.178 94.5872ZM213.694 94.5493C213.606 94.5493 213.512 94.5241 213.43 94.48C213.165 94.3349 213.071 94.0007 213.216 93.7358C213.921 92.4619 214.57 91.1376 215.143 89.8007C215.263 89.5232 215.584 89.397 215.861 89.5169C216.138 89.6367 216.264 89.9583 216.151 90.2358C215.565 91.6043 214.897 92.9601 214.173 94.2656C214.072 94.4421 213.883 94.5493 213.694 94.5493ZM133.676 86.452C133.443 86.452 133.229 86.3006 133.153 86.0673C132.706 84.642 132.328 83.179 132.026 81.7159C131.963 81.4195 132.158 81.1294 132.454 81.0663C132.75 81.0033 133.04 81.1988 133.103 81.4952C133.393 82.9204 133.764 84.3456 134.199 85.733C134.287 86.0231 134.13 86.3258 133.84 86.4204C133.79 86.4394 133.733 86.452 133.676 86.452ZM217.184 86.4015C217.127 86.4015 217.077 86.3952 217.02 86.3763C216.73 86.288 216.573 85.979 216.661 85.6889C217.096 84.3015 217.461 82.8763 217.757 81.4447C217.82 81.1483 218.104 80.9591 218.4 81.0159C218.696 81.0789 218.885 81.3627 218.828 81.6591C218.532 83.1222 218.154 84.5853 217.707 86.0105C217.631 86.2565 217.417 86.4015 217.184 86.4015ZM131.893 77.7681C131.616 77.7681 131.377 77.56 131.352 77.2762C131.201 75.8005 131.125 74.287 131.125 72.7924C131.125 72.4897 131.371 72.2437 131.673 72.2437C131.975 72.2437 132.221 72.4897 132.221 72.7924C132.221 74.2554 132.297 75.7248 132.442 77.169C132.473 77.4717 132.253 77.7366 131.95 77.7681C131.931 77.7681 131.912 77.7681 131.893 77.7681ZM218.96 77.724C218.941 77.724 218.923 77.724 218.904 77.724C218.601 77.6924 218.387 77.4275 218.412 77.1248C218.557 75.6807 218.633 74.2113 218.633 72.7482V72.6473C218.633 72.3446 218.878 72.0987 219.181 72.0987C219.483 72.0987 219.729 72.3446 219.729 72.6473V72.7356C219.729 74.2428 219.653 75.7501 219.508 77.2257C219.471 77.5095 219.237 77.724 218.96 77.724ZM131.887 68.9139C131.868 68.9139 131.849 68.9139 131.831 68.9139C131.528 68.8824 131.308 68.6175 131.339 68.3148C131.484 66.8265 131.711 65.3319 132.007 63.8752C132.07 63.5788 132.353 63.3896 132.649 63.4463C132.945 63.5094 133.134 63.7932 133.078 64.0896C132.788 65.5148 132.568 66.9716 132.423 68.4221C132.404 68.6995 132.164 68.9139 131.887 68.9139ZM218.948 68.7626C218.671 68.7626 218.431 68.5545 218.406 68.2707C218.261 66.8265 218.034 65.3698 217.738 63.9445C217.675 63.6481 217.864 63.358 218.16 63.295C218.456 63.2319 218.746 63.4274 218.809 63.7175C219.112 65.1806 219.338 66.6752 219.489 68.1572C219.521 68.4599 219.3 68.7248 218.998 68.7563C218.986 68.7626 218.967 68.7626 218.948 68.7626ZM133.651 60.2301C133.594 60.2301 133.544 60.2238 133.487 60.2048C133.197 60.1166 133.04 59.8075 133.128 59.5174C133.575 58.0922 134.098 56.6733 134.684 55.3048C134.804 55.0273 135.125 54.8949 135.402 55.0147C135.679 55.1345 135.812 55.4561 135.692 55.7336C135.119 57.0706 134.608 58.4517 134.18 59.8454C134.098 60.0787 133.884 60.2301 133.651 60.2301ZM217.159 60.085C216.926 60.085 216.712 59.9337 216.636 59.7003C216.195 58.3129 215.685 56.9318 215.105 55.5949C214.986 55.3174 215.112 54.9958 215.389 54.876C215.666 54.7561 215.987 54.8823 216.107 55.1597C216.699 56.5282 217.222 57.9472 217.675 59.3661C217.764 59.6562 217.606 59.9589 217.316 60.0535C217.266 60.0787 217.209 60.085 217.159 60.085ZM137.134 52.0822C137.046 52.0822 136.952 52.057 136.87 52.0129C136.605 51.8678 136.511 51.5336 136.656 51.2687C137.38 49.9633 138.174 48.6831 139.03 47.4534C139.201 47.2074 139.541 47.1444 139.793 47.3146C140.038 47.4849 140.101 47.8254 139.931 48.0777C139.1 49.2759 138.325 50.5246 137.619 51.7985C137.512 51.9813 137.323 52.0822 137.134 52.0822ZM213.644 51.9498C213.455 51.9498 213.266 51.8489 213.165 51.6723C212.453 50.3984 211.672 49.1498 210.841 47.9642C210.664 47.7182 210.727 47.3777 210.973 47.2011C211.219 47.0245 211.559 47.0876 211.735 47.3335C212.592 48.557 213.392 49.8372 214.123 51.1363C214.267 51.4012 214.173 51.7354 213.915 51.8804C213.827 51.9309 213.738 51.9498 213.644 51.9498ZM142.186 44.8047C142.06 44.8047 141.934 44.7605 141.834 44.6723C141.607 44.4768 141.575 44.1299 141.777 43.9029C142.747 42.7677 143.786 41.6704 144.863 40.6425C145.084 40.4344 145.43 40.4407 145.638 40.6614C145.846 40.8821 145.84 41.229 145.619 41.4371C144.567 42.4398 143.553 43.5119 142.608 44.6155C142.495 44.7416 142.337 44.8047 142.186 44.8047ZM208.567 44.6912C208.416 44.6912 208.258 44.6281 208.151 44.502C207.2 43.3984 206.186 42.3326 205.127 41.3299C204.907 41.1218 204.901 40.7749 205.109 40.5542C205.316 40.3335 205.663 40.3272 205.883 40.5353C206.967 41.5632 208.006 42.6542 208.982 43.7831C209.178 44.0101 209.153 44.3569 208.926 44.5524C208.819 44.6533 208.693 44.6912 208.567 44.6912ZM148.593 38.6875C148.429 38.6875 148.265 38.6118 148.158 38.4731C147.975 38.2334 148.013 37.8929 148.252 37.7037C149.43 36.783 150.671 35.919 151.931 35.1307C152.189 34.973 152.523 35.0487 152.687 35.301C152.844 35.5595 152.769 35.8938 152.517 36.0577C151.289 36.8271 150.079 37.6722 148.933 38.5677C148.826 38.6497 148.712 38.6875 148.593 38.6875ZM202.142 38.5992C202.028 38.5992 201.909 38.5614 201.808 38.4857C200.655 37.5965 199.446 36.7514 198.211 35.9884C197.953 35.8307 197.877 35.4902 198.035 35.2316C198.192 34.9731 198.532 34.8974 198.79 35.055C200.057 35.8433 201.291 36.701 202.475 37.6154C202.715 37.7983 202.759 38.1452 202.576 38.3848C202.469 38.5235 202.305 38.5992 202.142 38.5992ZM156.095 33.983C155.893 33.983 155.698 33.8694 155.604 33.6802C155.471 33.4091 155.578 33.0811 155.849 32.9487C157.185 32.2865 158.57 31.6874 159.969 31.1703C160.252 31.0631 160.567 31.2081 160.674 31.4919C160.781 31.7757 160.637 32.091 160.353 32.1982C158.992 32.7028 157.638 33.2893 156.334 33.9325C156.259 33.964 156.177 33.983 156.095 33.983ZM194.62 33.9199C194.539 33.9199 194.457 33.901 194.381 33.8631C193.077 33.2262 191.723 32.646 190.356 32.1415C190.072 32.0343 189.928 31.719 190.035 31.4415C190.142 31.1577 190.457 31.0126 190.734 31.1199C192.132 31.637 193.518 32.2298 194.86 32.8856C195.131 33.0181 195.244 33.346 195.112 33.6172C195.017 33.8064 194.828 33.9199 194.62 33.9199ZM164.385 30.8928C164.139 30.8928 163.918 30.7289 163.855 30.4829C163.78 30.1928 163.956 29.8901 164.246 29.8144C165.688 29.4424 167.169 29.1334 168.643 28.9063C168.939 28.8622 169.222 29.064 169.266 29.3667C169.31 29.6631 169.109 29.9469 168.807 29.991C167.37 30.2117 165.928 30.5081 164.523 30.8739C164.479 30.8865 164.435 30.8928 164.385 30.8928ZM186.318 30.855C186.274 30.855 186.23 30.8487 186.18 30.8361C184.775 30.4766 183.332 30.1802 181.89 29.9658C181.594 29.9216 181.386 29.6442 181.43 29.3415C181.474 29.0451 181.758 28.8369 182.054 28.8811C183.528 29.1018 185.008 29.4045 186.45 29.7703C186.74 29.846 186.917 30.1424 186.847 30.4388C186.784 30.691 186.564 30.855 186.318 30.855ZM173.134 29.5433C172.844 29.5433 172.605 29.3162 172.586 29.0261C172.573 28.7234 172.8 28.4649 173.103 28.4523C173.871 28.4144 174.646 28.3955 175.408 28.3955C175.414 28.3955 175.414 28.3955 175.421 28.3955C176.145 28.3955 176.869 28.4144 177.588 28.446C177.89 28.4586 178.123 28.7171 178.11 29.0198C178.098 29.3225 177.84 29.5559 177.537 29.5433C176.838 29.5117 176.126 29.4928 175.421 29.4928C175.414 29.4928 175.414 29.4928 175.408 29.4928C174.665 29.4928 173.909 29.5117 173.159 29.5496C173.153 29.5433 173.147 29.5433 173.134 29.5433Z" fill="#CCE2FF"/>
<path d="M124.751 65.3629C124.152 65.1611 124.051 64.2719 124.442 63.7737C124.832 63.2755 125.506 63.0989 126.13 63.0296C126.76 62.9602 127.415 62.9539 127.982 62.6764C128.939 62.2161 129.399 61.1377 130.023 60.28C131.188 58.6908 133.557 57.7638 135.163 58.8989C136.536 59.8701 137.04 62.0521 138.697 62.3359C139.787 62.5251 140.776 61.7557 141.727 61.2007C142.678 60.6458 144.083 60.3557 144.75 61.2323C145.053 61.6296 145.109 62.1782 145.412 62.5755C145.884 63.1935 146.785 63.2692 147.547 63.1368C148.309 63.0043 149.072 62.7206 149.84 62.8152C150.609 62.9097 150.936 64.6755 150.766 65.4323L124.751 65.3629Z" fill="#CEE8F0"/>
<path d="M226.639 47.1312C226.576 47.024 226.501 46.9231 226.413 46.8348C225.902 46.3492 225.165 46.2041 224.485 46.0402C223.805 45.8762 223.068 45.624 222.69 45.0248C222.261 44.3438 222.413 43.3726 221.871 42.7798C221.279 42.1365 220.227 42.3068 219.427 42.6537C218.627 43.0005 217.802 43.4987 216.945 43.3347C215.61 43.0888 215.074 41.4933 214.142 40.5032C212.523 38.7878 209.241 39.2356 208.145 41.323C207.509 42.5275 207.446 44.1861 206.262 44.8546C205.499 45.2834 204.555 45.1131 203.692 44.9618C202.829 44.8167 201.852 44.7284 201.166 45.2771C200.781 45.5861 200.674 46.4312 200.813 47.1249H226.639V47.1312Z" fill="#CEE8F0"/>
<path d="M134.048 96.5483H153.525C152.926 94.442 152.983 92.1906 153.122 89.996C153.26 87.6689 153.474 85.3103 153.04 83.0148C152.605 80.7256 151.408 78.4553 149.367 77.3202C147.333 76.185 144.397 76.5571 143.125 78.5058C142.552 79.3886 142.294 80.549 141.393 81.0977C140.429 81.6905 139.075 81.3247 138.142 81.9616C136.933 82.7878 137.21 84.6292 137.689 86.0103C138.168 87.3977 138.646 89.1194 137.62 90.1725C136.643 91.1689 134.886 90.8662 133.79 91.7302C132.895 92.4365 132.7 93.7798 133.059 94.8645C133.267 95.4888 133.626 96.0438 134.048 96.5483Z" fill="#21B789"/>
<path d="M202.954 78.6761C203.729 77.8689 204.881 77.4463 205.99 77.5535C207.099 77.6607 208.151 78.304 208.749 79.2436C209.524 80.4545 209.555 82.0311 210.381 83.204C212.081 85.6194 216.176 85.1527 217.94 87.5239C218.859 88.7663 218.872 90.4438 218.765 91.9825C218.664 93.5213 218.5 95.1546 219.168 96.5483H201.146L202.954 78.6761Z" fill="#21B789"/>
<path d="M141.865 63.4649H187.578L197.096 48.9351H153.701L141.865 63.4649Z" fill="#FF9029"/>
<path d="M165.493 96.5484H144.863V63.4652L155.011 50.5371L165.493 63.4652V96.5484Z" fill="#B5D3DE"/>
<path d="M205.908 63.4648H165.48V96.5481H205.908V63.4648Z" fill="#CEE8F0"/>
<path d="M208.982 63.4649H165.468L153.625 48.9351H197.146L208.982 63.4649Z" fill="#FF9029"/>
<path d="M205.908 89.6616H165.48V96.5482H205.908V89.6616Z" fill="#DBEBFF"/>
<path d="M165.493 89.624H144.863V96.5484H165.493V89.624Z" fill="#A1C5D1"/>
<path d="M189.587 83.9106H181.537V96.5486H189.587V83.9106Z" fill="#0E293A"/>
<path d="M162.898 68.4219H147.547V73.7949H162.898V68.4219Z" fill="#0E293A"/>
<path d="M162.898 78.1587H147.547V83.5317H162.898V78.1587Z" fill="#0E293A"/>
<path d="M178.513 74.8032H167.66V80.5736H178.513V74.8032Z" fill="#0E293A"/>
<path d="M173.317 74.8032H172.851V80.5736H173.317V74.8032Z" fill="#B3D4FF"/>
<path d="M178.589 79.6279H167.578V80.5739H178.589V79.6279Z" fill="#36C2D9"/>
<path d="M202.79 74.8032H191.937V80.5736H202.79V74.8032Z" fill="#0E293A"/>
<path d="M197.6 74.8032H197.134V80.5736H197.6V74.8032Z" fill="#B3D4FF"/>
<path d="M202.872 79.6279H191.861V80.5739H202.872V79.6279Z" fill="#36C2D9"/>
<path d="M178.513 84.6289H167.66V90.3992H178.513V84.6289Z" fill="#0E293A"/>
<path d="M173.317 84.6289H172.851V90.3992H173.317V84.6289Z" fill="#B3D4FF"/>
<path d="M178.589 89.4526H167.578V90.3986H178.589V89.4526Z" fill="#36C2D9"/>
<path d="M202.79 84.6289H191.937V90.3992H202.79V84.6289Z" fill="#0E293A"/>
<path d="M197.6 84.6289H197.134V90.3992H197.6V84.6289Z" fill="#B3D4FF"/>
<path d="M202.872 89.4526H191.861V90.3986H202.872V89.4526Z" fill="#36C2D9"/>
<path d="M190.652 67.6646H179.798V73.4349H190.652V67.6646Z" fill="#0E293A"/>
<path d="M185.455 67.6646H184.989V73.4349H185.455V67.6646Z" fill="#B3D4FF"/>
<path d="M190.734 72.4888H179.723V73.4347H190.734V72.4888Z" fill="#36C2D9"/>
<path d="M154.968 50.5874L165.462 63.4587L165.859 63.938L165.468 64.2533L164.523 64.2344L164.53 63.4398L154.369 51.3442L154.968 50.5874Z" fill="#0E293A"/>
<path d="M205.896 63.4653H165.468V64.2536H205.896V63.4653Z" fill="#0E293A"/>
<path d="M195.445 50.7766H157.997C157.82 50.7766 157.682 50.6379 157.682 50.4613C157.682 50.2847 157.82 50.146 157.997 50.146H195.445C195.621 50.146 195.76 50.2847 195.76 50.4613C195.76 50.6316 195.615 50.7766 195.445 50.7766Z" fill="#0E293A"/>
<path d="M198.173 54.138H160.724C160.548 54.138 160.409 53.9992 160.409 53.8226C160.409 53.6461 160.548 53.5073 160.724 53.5073H198.173C198.349 53.5073 198.488 53.6461 198.488 53.8226C198.488 53.9992 198.343 54.138 198.173 54.138Z" fill="#0E293A"/>
<path d="M200.9 57.4993H163.452C163.275 57.4993 163.137 57.3605 163.137 57.184C163.137 57.0074 163.275 56.8687 163.452 56.8687H200.9C201.076 56.8687 201.215 57.0074 201.215 57.184C201.215 57.3605 201.076 57.4993 200.9 57.4993Z" fill="#0E293A"/>
<path d="M203.634 60.8665H166.186C166.009 60.8665 165.871 60.7277 165.871 60.5512C165.871 60.3746 166.009 60.2358 166.186 60.2358H203.634C203.81 60.2358 203.949 60.3746 203.949 60.5512C203.949 60.7214 203.804 60.8665 203.634 60.8665Z" fill="#0E293A"/>
<path d="M166.659 54.1374C166.558 54.1374 166.457 54.087 166.394 53.9924L164.24 50.7068C164.145 50.5617 164.183 50.3662 164.328 50.2716C164.473 50.177 164.668 50.2149 164.763 50.3599L166.917 53.6455C167.011 53.7906 166.974 53.9861 166.829 54.0807C166.778 54.1185 166.715 54.1374 166.659 54.1374Z" fill="#0E293A"/>
<path d="M174.797 54.1379C174.696 54.1379 174.595 54.0875 174.532 53.9929L172.435 50.7577C172.34 50.6127 172.384 50.4172 172.529 50.3226C172.674 50.228 172.869 50.2658 172.964 50.4172L175.061 53.6523C175.156 53.7974 175.118 53.9929 174.967 54.0875C174.91 54.119 174.854 54.1379 174.797 54.1379Z" fill="#0E293A"/>
<path d="M171.855 57.4995C171.754 57.4995 171.647 57.449 171.59 57.3544L169.493 54.094C169.398 53.949 169.442 53.7535 169.587 53.6589C169.732 53.5643 169.927 53.6084 170.022 53.7535L172.12 57.0139C172.214 57.1589 172.17 57.3544 172.025 57.449C171.975 57.4868 171.912 57.4995 171.855 57.4995Z" fill="#0E293A"/>
<path d="M180.567 57.4995C180.466 57.4995 180.365 57.449 180.302 57.3607L178.205 54.1823C178.11 54.0373 178.148 53.8418 178.293 53.7472C178.438 53.6526 178.633 53.6904 178.727 53.8355L180.825 57.0139C180.92 57.1589 180.882 57.3544 180.737 57.449C180.687 57.4869 180.63 57.4995 180.567 57.4995Z" fill="#0E293A"/>
<path d="M189.279 57.4994C189.178 57.4994 189.077 57.449 189.014 57.3544L186.885 54.0687C186.791 53.9237 186.835 53.7282 186.98 53.6336C187.125 53.539 187.32 53.5769 187.415 53.7282L189.544 57.0138C189.638 57.1589 189.594 57.3544 189.449 57.449C189.399 57.4868 189.342 57.4994 189.279 57.4994Z" fill="#0E293A"/>
<path d="M197.997 57.4995C197.896 57.4995 197.795 57.449 197.732 57.3607L195.635 54.1823C195.54 54.0373 195.578 53.8418 195.723 53.7472C195.868 53.6526 196.063 53.6904 196.158 53.8355L198.255 57.0139C198.35 57.1589 198.312 57.3544 198.167 57.449C198.117 57.4869 198.054 57.4995 197.997 57.4995Z" fill="#0E293A"/>
<path d="M182.929 54.1379C182.828 54.1379 182.727 54.0875 182.664 53.9992L180.485 50.7136C180.39 50.5685 180.428 50.373 180.573 50.2785C180.718 50.1839 180.913 50.2217 181.008 50.3667L183.187 53.6524C183.282 53.7974 183.244 53.9929 183.099 54.0875C183.049 54.119 182.992 54.1379 182.929 54.1379Z" fill="#0E293A"/>
<path d="M191.068 54.1381C190.967 54.1381 190.866 54.0877 190.803 53.9994L188.649 50.739C188.555 50.5939 188.592 50.3984 188.737 50.3038C188.882 50.2092 189.077 50.2471 189.172 50.3921L191.326 53.6525C191.421 53.7976 191.383 53.9931 191.238 54.0877C191.188 54.1192 191.125 54.1381 191.068 54.1381Z" fill="#0E293A"/>
<path d="M169.543 60.8672C169.442 60.8672 169.342 60.8168 169.279 60.7222L167.149 57.487C167.055 57.342 167.093 57.1465 167.238 57.0519C167.383 56.9573 167.578 56.9951 167.672 57.1402L169.801 60.3753C169.896 60.5204 169.858 60.7159 169.713 60.8105C169.663 60.8483 169.606 60.8672 169.543 60.8672Z" fill="#0E293A"/>
<path d="M177.682 60.867C177.581 60.867 177.48 60.8165 177.417 60.7219L175.295 57.4363C175.2 57.2912 175.244 57.0958 175.389 57.0012C175.534 56.9066 175.729 56.9507 175.824 57.0958L177.953 60.3814C178.047 60.5264 178.003 60.7219 177.858 60.8165C177.802 60.848 177.739 60.867 177.682 60.867Z" fill="#0E293A"/>
<path d="M185.814 60.8668C185.713 60.8668 185.612 60.8163 185.549 60.7281L183.395 57.4929C183.301 57.3478 183.338 57.1523 183.483 57.0577C183.628 56.9632 183.823 57.001 183.918 57.146L186.072 60.3812C186.167 60.5263 186.129 60.7217 185.984 60.8163C185.94 60.8479 185.877 60.8668 185.814 60.8668Z" fill="#0E293A"/>
<path d="M193.952 60.8672C193.852 60.8672 193.751 60.8168 193.688 60.7222L191.559 57.487C191.464 57.342 191.502 57.1465 191.647 57.0519C191.792 56.9573 191.987 56.9951 192.082 57.1402L194.211 60.3753C194.305 60.5204 194.267 60.7159 194.122 60.8105C194.072 60.8483 194.015 60.8672 193.952 60.8672Z" fill="#0E293A"/>
<path d="M219.792 96.2954H131.056V96.7999H219.792V96.2954Z" fill="#048FA6"/>
<path d="M141.651 111.684L143.642 115.726C143.68 115.808 143.762 115.865 143.85 115.878L148.303 116.527C148.53 116.559 148.625 116.843 148.455 117L145.229 120.147C145.166 120.21 145.135 120.305 145.147 120.393L145.91 124.833C145.947 125.06 145.708 125.236 145.507 125.123L141.525 123.029C141.444 122.985 141.349 122.985 141.267 123.029L137.286 125.123C137.085 125.23 136.845 125.06 136.883 124.833L137.645 120.393C137.658 120.305 137.633 120.21 137.563 120.147L134.338 117C134.174 116.836 134.263 116.559 134.489 116.527L138.943 115.878C139.031 115.865 139.113 115.808 139.151 115.726L141.141 111.684C141.255 111.476 141.551 111.476 141.651 111.684Z" fill="#FF9029"/>
<path d="M158.666 111.684L160.656 115.726C160.694 115.808 160.776 115.865 160.864 115.878L165.318 116.527C165.544 116.559 165.639 116.843 165.469 117L162.244 120.147C162.181 120.21 162.149 120.305 162.162 120.393L162.924 124.833C162.962 125.06 162.722 125.236 162.521 125.123L158.54 123.029C158.458 122.985 158.363 122.985 158.281 123.029L154.3 125.123C154.099 125.23 153.859 125.06 153.897 124.833L154.659 120.393C154.672 120.305 154.647 120.21 154.577 120.147L151.352 117C151.189 116.836 151.277 116.559 151.503 116.527L155.957 115.878C156.045 115.865 156.127 115.808 156.165 115.726L158.155 111.684C158.269 111.476 158.559 111.476 158.666 111.684Z" fill="#FF9029"/>
<path d="M175.673 111.684L177.664 115.726C177.702 115.808 177.784 115.865 177.872 115.878L182.325 116.527C182.552 116.559 182.647 116.843 182.477 117L179.251 120.147C179.188 120.21 179.157 120.305 179.169 120.393L179.932 124.833C179.969 125.06 179.73 125.236 179.528 125.123L175.547 123.029C175.466 122.985 175.371 122.985 175.289 123.029L171.308 125.123C171.107 125.23 170.867 125.06 170.905 124.833L171.667 120.393C171.68 120.305 171.655 120.21 171.585 120.147L168.36 117C168.196 116.836 168.285 116.559 168.511 116.527L172.965 115.878C173.053 115.865 173.135 115.808 173.173 115.726L175.163 111.684C175.277 111.476 175.573 111.476 175.673 111.684Z" fill="#FF9029"/>
<path d="M192.687 111.684L194.678 115.726C194.715 115.808 194.797 115.865 194.885 115.878L199.339 116.527C199.566 116.559 199.66 116.843 199.49 117L196.265 120.147C196.202 120.21 196.171 120.305 196.183 120.393L196.945 124.833C196.983 125.06 196.744 125.236 196.542 125.123L192.561 123.029C192.479 122.985 192.385 122.985 192.303 123.029L188.322 125.123C188.12 125.23 187.881 125.06 187.919 124.833L188.681 120.393C188.693 120.305 188.668 120.21 188.599 120.147L185.374 117C185.21 116.836 185.298 116.559 185.525 116.527L189.978 115.878C190.067 115.865 190.149 115.808 190.186 115.726L192.177 111.684C192.29 111.476 192.58 111.476 192.687 111.684Z" fill="#FF9029"/>
<path d="M209.695 111.684L211.685 115.726C211.723 115.808 211.805 115.865 211.893 115.878L216.347 116.527C216.574 116.559 216.668 116.843 216.498 117L213.273 120.147C213.21 120.21 213.178 120.305 213.191 120.393L213.953 124.833C213.991 125.06 213.752 125.236 213.55 125.123L209.569 123.029C209.487 122.985 209.393 122.985 209.311 123.029L205.33 125.123C205.128 125.23 204.889 125.06 204.926 124.833L205.689 120.393C205.701 120.305 205.676 120.21 205.607 120.147L202.382 117C202.218 116.836 202.306 116.559 202.533 116.527L206.986 115.878C207.074 115.865 207.156 115.808 207.194 115.726L209.185 111.684C209.298 111.476 209.594 111.476 209.695 111.684Z" fill="#FF9029"/>
<path d="M161.96 142.358L137.141 158.187V175.138L178.785 154.927L161.96 142.358Z" fill="#FFF3E6"/>
<path d="M213.707 177.478V141.046H164.952L213.707 177.478Z" fill="#FFF3E6"/>
<path d="M165.638 164.462L137.141 178.298V181.079H182.923L165.638 164.462Z" fill="#FFF3E6"/>
<path d="M181.342 156.837L168.353 163.144L187.017 181.079H213.707V181.022L181.342 156.837Z" fill="#FFF3E6"/>
<path d="M158.735 141.046H137.141V154.819L158.735 141.046Z" fill="#FFF3E6"/>
<path d="M157.695 140.964C154.709 142.951 153.897 146.98 155.881 149.963C157.865 152.946 165.273 158.874 168.259 156.888C171.244 154.901 168.668 145.77 166.684 142.78C164.7 139.791 160.674 138.978 157.695 140.964ZM162.778 148.62C161.537 149.446 159.856 149.106 159.03 147.863C158.205 146.621 158.545 144.937 159.786 144.111C161.027 143.285 162.709 143.625 163.534 144.868C164.359 146.116 164.019 147.794 162.778 148.62Z" fill="#F16B5F"/>
<path d="M155.573 10.4155C156.355 10.4155 156.99 9.78023 156.99 8.99657C156.99 8.21292 156.355 7.57764 155.573 7.57764C154.79 7.57764 154.155 8.21292 154.155 8.99657C154.155 9.78023 154.79 10.4155 155.573 10.4155Z" fill="#1D5578"/>
<path d="M195.629 10.0564H161.034C160.448 10.0564 159.97 9.57708 159.97 8.99058C159.97 8.40409 160.448 7.9248 161.034 7.9248H195.629C196.215 7.9248 196.694 8.40409 196.694 8.99058C196.694 9.58338 196.215 10.0564 195.629 10.0564Z" fill="#1D5578"/>
<path d="M259.181 146.925C259.181 146.925 236.838 156.176 233.216 164.847C229.827 172.964 249.071 199.873 251.54 203.278C249.657 204.388 245.657 206.413 242.261 205.977C242.003 205.946 241.739 206.034 241.587 206.242C241.468 206.406 241.373 206.627 241.398 206.892H261.871C261.902 206.804 261.934 206.709 261.946 206.608C262.066 205.795 262.135 203.922 261.638 202.213H261.644C261.644 202.213 253.846 174.837 253.373 173.386C253.373 173.386 269.908 172.415 271.011 167.055C272.113 161.694 263.729 146.029 259.181 146.925Z" fill="#C27559"/>
<path d="M256.183 183.11C254.331 182.827 252.46 182.618 250.646 182.177C245.921 181.029 241.6 178.248 238.595 174.42C235.988 171.097 234.533 167.231 234.192 163.088C234.457 162.703 234.753 162.312 235.081 161.927C235.49 165.875 236.939 169.564 239.433 172.743C242.444 176.571 246.759 179.345 251.484 180.493C252.85 180.827 254.249 181.023 255.641 181.225C255.817 181.836 256 182.461 256.183 183.11Z" fill="#0E293A"/>
<path d="M249.701 203.423C249.701 203.423 247.603 201.639 248.176 200.163C248.756 198.694 253.531 198.271 254.003 198.637C254.476 199.003 256.787 204.048 258.148 204.155C259.515 204.262 260.46 201.317 261.613 201.632C262.488 201.872 262.52 205.303 262.482 206.955C262.469 207.447 262.072 207.832 261.581 207.832H241.474C240.907 207.832 240.473 207.314 240.586 206.76C240.743 205.996 241.361 205.088 243.395 204.994C246.973 204.842 249.701 203.423 249.701 203.423Z" fill="white"/>
<path d="M317.725 206.494C317.945 206.545 318.172 206.595 318.399 206.639C318.355 206.482 318.304 206.318 318.26 206.16C316.616 200.585 315.331 194.758 312.673 189.562C312.522 189.265 312.446 188.975 312.408 188.692C311.709 188.786 310.336 188.893 309.076 189.278C308.031 189.177 291.59 187.582 285.039 188.496C285.039 188.496 293.7 171.469 286.298 154.599C286.298 154.599 270.708 154.284 265.669 164.059C265.669 164.059 262.362 197.956 272.125 204.42C281.889 210.884 311.659 198.769 311.659 198.769C311.659 198.769 316.301 202.364 317.725 206.494Z" fill="#C27559"/>
<path d="M285.983 186.295C285.706 186.995 285.467 187.543 285.297 187.922C279.672 189.959 273.272 189.908 267.772 187.512C267.01 187.184 266.267 186.812 265.524 186.427C265.454 185.695 265.398 184.958 265.354 184.22C266.431 184.775 267.502 185.349 268.61 185.834C274.059 188.199 280.396 188.275 285.983 186.295Z" fill="#0E293A"/>
<path d="M274.771 203.366C276.037 203.991 277.524 204.142 278.884 203.782" stroke="#0E293A" stroke-miterlimit="10" stroke-linecap="round" stroke-linejoin="round"/>
<path d="M313.486 200.509C313.486 200.509 312.371 203.032 310.802 202.899C309.228 202.767 307.464 198.302 307.684 197.741C307.905 197.179 312.075 193.528 311.785 192.191C311.495 190.854 308.409 190.785 308.383 189.587C308.365 188.678 311.64 187.669 313.234 187.234C313.706 187.102 314.191 187.379 314.33 187.846L320.056 207.143C320.22 207.686 319.842 208.253 319.281 208.304C318.506 208.373 317.461 208.033 316.793 206.109C315.621 202.729 313.486 200.509 313.486 200.509Z" fill="white"/>
<path d="M257.152 147.271C257.152 147.271 239.987 156.34 234.948 159.493C234.948 164.361 236.428 168.921 239.433 172.749C242.437 176.577 246.759 179.358 251.483 180.506C254.727 181.294 258.141 181.338 261.31 182.41C263.861 183.274 266.141 184.769 268.61 185.847C276.648 189.341 286.626 187.84 293.278 182.133C293.278 182.133 292.125 152.392 281.171 144.124C281.177 144.111 272.27 148.923 257.152 147.271Z" fill="#FBAC4D"/>
<path d="M269.801 156.503C268.358 159.165 266.128 161.296 263.873 163.302C261.618 165.313 259.269 167.275 257.499 169.722C255.722 172.168 254.557 175.221 255.017 178.21" stroke="#0E293A" stroke-miterlimit="10" stroke-linecap="round" stroke-linejoin="round"/>
<path d="M281.845 148.198C282.185 160.136 290.141 171.027 289.675 182.958" stroke="#0E293A" stroke-miterlimit="10" stroke-linecap="round" stroke-linejoin="round"/>
<path d="M236.019 159.429C238.437 164.846 242.003 169.746 246.412 173.707C248.321 175.422 250.444 176.992 252.894 177.762C255.244 178.5 257.77 178.462 260.163 179.023C263.332 179.767 266.166 181.52 269.265 182.517C273.662 183.929 278.45 183.747 282.953 182.731C286.242 181.987 289.41 180.82 292.528 179.528" stroke="#0E293A" stroke-miterlimit="10" stroke-linecap="round" stroke-linejoin="round"/>
<path d="M250.834 132.217C248.932 130.174 246.954 128.137 245.014 126.05C242.154 128.825 238.708 132.041 235.156 135.308C224.561 134.841 215.477 134.317 214.992 134.286C214.986 134.286 214.986 134.286 214.986 134.286C213.896 132.545 212.693 131.707 212.082 131.297C211.616 130.988 211.345 131.271 211.206 131.511C211.137 131.631 211.162 131.789 211.25 131.858C211.672 132.192 212.403 133.05 212.321 133.567C212.227 134.147 208.58 132.64 208.315 133.346C208.208 133.63 210.747 134.816 210.747 134.816C210.747 134.816 207.83 134.292 207.899 134.822C207.969 135.352 210.469 136.317 210.469 136.317C210.469 136.317 207.509 136.26 207.736 136.745C207.962 137.231 210.236 137.761 210.236 137.761C209.14 137.899 208.699 138.177 208.523 138.372C208.441 138.467 208.46 138.631 208.554 138.669C209.764 139.148 212.756 138.442 214.022 138.101L214.016 138.12C217.386 140.687 221.241 142.673 225.316 144.212C228.712 145.492 232.264 146.464 235.811 147.201C238.249 147.706 240.793 147.126 242.784 145.625C247.143 142.327 251.004 138.89 254.154 135.938C254.167 135.926 254.179 135.919 254.192 135.907C253.077 134.671 251.968 133.435 250.834 132.217Z" fill="#C27559"/>
<path d="M243.137 127.406C243.137 127.406 247.231 135.528 252.825 137.496C252.825 137.496 264.478 129.531 263.458 122.203C262.437 114.875 255.659 116.761 254.557 117.234C253.455 117.707 243.137 127.406 243.137 127.406Z" fill="#F16B5F"/>
<path d="M250.041 139.678C249.631 140.037 249.222 140.397 248.8 140.756L246.626 139.4L247.137 138.58L237.877 132.791C238.274 132.419 238.671 132.053 239.068 131.688L248.277 137.439L247.767 138.252L250.041 139.678Z" fill="#0E293A"/>
<path d="M253.688 133.239C253.99 133.971 254.311 134.98 254.633 136.128C254.211 136.468 253.839 136.746 253.549 136.967C253.518 136.84 253.486 136.714 253.455 136.594C253.688 136.374 253.921 136.159 254.148 135.945C254.16 135.932 254.173 135.92 254.185 135.907C253.719 135.39 253.259 134.873 252.787 134.356C252.648 133.939 252.51 133.561 252.377 133.239C250.878 129.607 249.385 128.112 250.33 122.519C250.481 121.617 250.67 120.879 250.897 120.267C252.68 118.672 254.173 117.398 254.551 117.234C254.689 117.177 254.91 117.095 255.199 117.013C253.455 117.915 252.245 118.943 251.64 122.519C250.696 128.112 252.195 129.607 253.688 133.239Z" fill="#0E293A"/>
<path d="M281.888 120.399C281.819 116.401 280.194 114.516 278.613 113.608C277.492 112.964 276.118 112.725 274.789 112.826C273.378 112.939 272.251 112.788 271.337 112.517C269.901 108.436 270.248 101.461 270.304 100.522C270.311 100.484 270.311 100.452 270.311 100.421L260.49 107.534C260.698 107.812 260.843 108.197 260.937 108.657V108.663C261.114 109.471 261.139 110.492 261.101 111.476C261.095 111.621 261.089 111.766 261.082 111.905C261.051 112.491 260.994 113.04 260.937 113.513C259.917 115.102 258.241 115.663 255.684 117.259C252.138 119.479 251.867 125.028 253.492 130.717C255.237 136.847 259.18 146.918 259.18 146.918L281.177 144.099C279.337 137.893 282.046 129.077 281.888 120.399Z" fill="#C27559"/>
<path d="M265.221 107.421C265.221 107.421 263.697 110.512 261.095 111.476C261.133 110.493 261.108 109.471 260.932 108.664C260.932 108.664 263.609 108.916 265.221 107.421Z" fill="#0E293A"/>
<path d="M258.651 115.16C258.651 115.16 265.265 118.811 271.879 112.429C271.879 112.429 277.234 112.271 278.021 112.744C278.808 113.217 282.43 114.636 282.745 122.286C283.06 129.936 281.958 144.043 283.533 146.408C283.533 146.408 269.202 149.246 257.158 147.278C257.158 147.278 255.187 136.873 253.694 133.246C252.201 129.62 250.702 128.119 251.646 122.526C252.591 116.932 255.029 117.581 258.651 115.16Z" fill="white"/>
<path d="M257.466 116.055C257.466 116.055 264.868 120.942 273.057 112.82" stroke="#0E293A" stroke-miterlimit="10" stroke-linecap="round" stroke-linejoin="round"/>
<path d="M177.802 89.8511C168.964 104.028 173.279 122.688 187.433 131.536C201.594 140.384 220.233 136.064 229.071 121.894C237.908 107.717 233.594 89.0565 219.439 80.2086C205.279 71.3608 186.64 75.6807 177.802 89.8511ZM224.957 119.321C217.537 131.221 201.89 134.841 190.01 127.418C178.123 119.989 174.508 104.324 181.922 92.4304C189.342 80.5303 204.989 76.9104 216.869 84.333C228.756 91.7556 232.372 107.421 224.957 119.321Z" fill="#B7E3F0"/>
<path opacity="0.31" d="M215.234 128.345C227.636 121.823 232.41 106.47 225.895 94.0528C219.381 81.6359 204.045 76.857 191.643 83.379C179.24 89.9009 174.467 105.254 180.981 117.671C187.496 130.088 202.831 134.867 215.234 128.345Z" fill="#CEE8F0"/>
<path d="M228.392 117.92L225.21 123.024L271.336 151.848L274.518 146.745L228.392 117.92Z" fill="#B7E3F0"/>
<path d="M251.966 131.522L247.767 138.257L270.829 152.669L275.029 145.934L251.966 131.522Z" fill="#0E293A"/>
<path d="M275.029 112.818C265.19 114.792 274.002 137.495 274.002 137.495L254.702 139.387C254.702 139.387 252.113 136.467 250.891 136.745C249.669 137.022 252.069 138.536 251.974 139.078C251.974 139.078 250.658 139.387 249.203 139.147L248.692 138.75C248.692 138.75 248.85 140.131 250.267 140.447C250.267 140.447 249.637 141.197 250.267 142.105C250.267 142.105 250.229 143.209 250.821 143.366C250.821 143.366 251.256 144.193 251.924 144.312C252.409 144.401 253.864 143.789 254.645 143.442C257.625 144.426 280.931 151.811 285.429 144.514C290.223 136.707 284.868 110.851 275.029 112.818Z" fill="#C27559"/>
<path d="M287.098 132.999C280.956 134.456 274.449 133.775 272.799 133.567C274.411 133.491 280.994 133.049 286.833 130.527C286.947 131.353 287.035 132.185 287.098 132.999Z" fill="#0E293A"/>
<path d="M282.431 144.981C282.72 144.666 283.01 144.35 283.3 144.035" stroke="#0E293A" stroke-miterlimit="10" stroke-linecap="round" stroke-linejoin="round"/>
<path d="M254.702 139.388C254.702 139.388 275.817 137.023 278.57 137.496" stroke="#0E293A" stroke-miterlimit="10" stroke-linecap="round" stroke-linejoin="round"/>
<path d="M272.428 133.579C272.428 133.579 280.302 133.422 287.073 130.426C287.073 130.426 286.128 122.436 283.243 118.078C280.358 113.714 278.254 111.879 275.004 112.56C271.747 113.241 269.965 116.766 269.7 119.762C269.436 122.751 272.428 133.579 272.428 133.579Z" fill="#F16B5F"/>
<path d="M272.509 131.58C272.509 131.58 281.851 131.239 286.21 128.187" stroke="#0E293A" stroke-miterlimit="10" stroke-linecap="round" stroke-linejoin="round"/>
<path d="M266.992 88.1109C262.034 84.7055 255.729 86.8244 254.765 90.5073C254.311 92.2479 254.129 94.1209 254.104 96.0191C254.022 96.8137 253.795 97.5957 253.423 98.3083C253.278 98.5858 253.108 98.857 253.014 99.1597C252.919 99.4624 252.907 99.8029 253.058 100.08C253.291 100.49 253.877 100.787 254.318 100.654C254.356 101.039 254.381 101.436 254.425 101.815C254.437 101.934 254.45 102.048 254.463 102.162C254.494 102.414 254.519 102.666 254.551 102.912C254.557 102.956 254.563 103 254.563 103.044C254.589 103.234 254.608 103.423 254.633 103.606C254.652 103.738 254.664 103.864 254.683 103.997C254.752 104.552 254.841 105.119 255.086 105.63C256.031 107.572 259.067 108.493 261.064 108.676C263.628 108.909 266.078 107.957 267.855 106.097C269.322 104.564 270.135 102.527 270.299 100.415C270.576 96.9777 270.544 90.5515 266.992 88.1109Z" fill="#C27559"/>
<path d="M261.473 100.238C261.599 101.348 260.806 102.344 259.697 102.477C258.588 102.603 257.593 101.808 257.461 100.698C257.335 99.5883 258.129 98.5919 259.237 98.4594C260.352 98.3333 261.347 99.1279 261.473 100.238Z" fill="#D17858"/>
<path d="M255.969 96.9269C256.044 97.5828 256.365 98.081 256.68 98.0431C257.002 98.0053 257.197 97.444 257.121 96.7882C257.046 96.1323 256.724 95.6341 256.409 95.6719C256.095 95.7098 255.893 96.2711 255.969 96.9269Z" fill="#0E293A"/>
<path d="M257.424 95.1047C257.209 95.42 256.876 95.6597 256.548 95.6786C256.428 95.6849 256.34 95.7921 256.347 95.9119C256.353 96.0318 256.46 96.12 256.58 96.1137C256.598 96.1137 256.617 96.1074 256.636 96.1011L256.649 96.0948C256.876 96.0128 257.071 95.8741 257.216 95.7101C257.367 95.5462 257.474 95.3633 257.55 95.1615C257.562 95.1236 257.543 95.0858 257.512 95.0732C257.48 95.0606 257.443 95.0732 257.424 95.1047Z" fill="#0E293A"/>
<path d="M256.623 100.484C256.522 100.679 256.409 100.869 256.296 101.058C256.151 101.228 256.019 101.417 255.848 101.562C255.515 101.878 255.074 102.092 254.608 102.155C254.563 102.161 254.513 102.168 254.469 102.161C254.456 102.048 254.444 101.934 254.431 101.815C254.475 101.815 254.519 101.808 254.563 101.802C254.96 101.751 255.338 101.594 255.672 101.348C255.848 101.234 255.993 101.077 256.163 100.944C256.315 100.793 256.459 100.635 256.623 100.484Z" fill="#0E293A"/>
<path d="M255.3 102.767C255.149 102.925 254.935 103.007 254.715 103.038C254.664 103.045 254.62 103.045 254.57 103.045C254.57 103 254.563 102.956 254.557 102.912C254.608 102.918 254.652 102.912 254.696 102.906C254.904 102.887 255.093 102.824 255.3 102.767Z" fill="#0E293A"/>
<path d="M255.017 92.8655C255.256 92.5944 255.559 92.4808 255.874 92.4304C256.189 92.3862 256.523 92.3862 256.844 92.4556C257.165 92.5124 257.474 92.6574 257.738 92.8403C258.015 93.0169 258.217 93.2628 258.4 93.5088C258.488 93.6349 258.463 93.8115 258.337 93.8998C258.236 93.9691 258.104 93.9691 258.009 93.8998L257.984 93.8809C257.776 93.7295 257.575 93.5845 257.36 93.4899C257.153 93.3827 256.926 93.3322 256.699 93.3007C256.472 93.2754 256.239 93.2754 256.006 93.3133C255.779 93.3448 255.534 93.389 255.269 93.3574L255.193 93.3511C255.036 93.3322 254.923 93.1872 254.942 93.0232C254.954 92.9664 254.979 92.9097 255.017 92.8655Z" fill="#0E293A"/>
<path d="M266.778 97.6461C266.753 97.3749 266.646 97.0785 266.381 96.8956C266.104 96.719 265.739 96.7758 265.48 96.9145C265.197 97.047 264.983 97.2803 264.819 97.5263C264.649 97.7785 264.542 98.0371 264.46 98.3335C264.428 98.4407 264.491 98.5479 264.598 98.5794C264.68 98.6046 264.762 98.5731 264.806 98.51L264.819 98.4974C264.989 98.2767 265.209 98.0434 265.43 97.9488C265.543 97.9046 265.625 97.8983 265.713 97.9488C265.801 97.9992 265.877 98.1127 265.946 98.2326C266.079 98.4785 266.173 98.7812 265.965 98.9263C265.751 99.0839 265.405 99.0902 265.096 99.0839C265.398 99.1785 265.726 99.2479 266.072 99.1028C266.249 99.0209 266.368 98.8001 266.362 98.6109C266.356 98.4218 266.312 98.2515 266.249 98.0938C266.179 97.9362 266.091 97.7659 265.915 97.6398C265.732 97.5136 265.474 97.5073 265.298 97.583C264.939 97.7407 264.705 97.9866 264.504 98.2641L264.863 98.4281C264.995 97.9551 265.235 97.4443 265.644 97.1857C265.846 97.0596 266.098 96.9776 266.312 97.0659C266.513 97.1479 266.671 97.3938 266.778 97.6461Z" fill="#0E293A"/>
<path d="M268.415 107.774C265.788 108.298 264.188 100.68 264.188 100.68C264.188 100.68 268.705 99.5256 267.332 96.9148C265.958 94.3103 263.823 96.5427 263.823 96.5427C263.477 97.2616 263.023 98.0689 262.236 98.2076C261.757 98.2896 261.259 98.0878 260.9 97.7535C260.541 97.4193 260.314 96.9779 260.138 96.5238C259.666 95.3004 259.552 93.9382 259.817 92.6517C258.941 92.1156 257.977 91.8697 256.951 91.9454C255.924 92.021 255.055 92.6138 254.261 93.2697C253.14 92.5949 251.861 91.9895 251.074 90.9426C250.28 89.9021 249.902 88.439 250.462 87.2534C251.011 86.093 252.308 85.4687 253.568 85.2354C254.828 85.002 256.132 85.0714 257.392 84.8381C259.067 84.5354 260.61 83.7155 262.267 83.3372C264.025 82.9399 265.914 83.0534 267.571 83.766C269.228 84.4786 270.632 85.8093 271.338 87.4678C271.924 88.8426 272.024 90.3688 272.308 91.8318C272.604 93.3706 273.442 98.4725 273.536 100.036C273.631 101.619 271.042 107.251 268.415 107.774Z" fill="#0E293A"/>
<path d="M352.37 208.776H0.877473C0.53102 208.776 0.247559 208.493 0.247559 208.146C0.247559 207.799 0.53102 207.515 0.877473 207.515H352.37C352.716 207.515 353 207.799 353 208.146C353 208.493 352.716 208.776 352.37 208.776Z" fill="#048FA6"/>
</svg>
