<svg width="29" height="29" viewBox="0 0 29 29" fill="none" xmlns="http://www.w3.org/2000/svg">
<g clip-path="url(#clip0_450_14115)">
<path d="M24.4109 22.4206C23.124 20.3471 20.291 18.125 14.5001 18.125C8.70917 18.125 5.87804 20.3453 4.58936 22.4206C5.77669 23.9091 7.28439 25.1107 9.00028 25.936C10.7162 26.7613 12.5961 27.1891 14.5001 27.1875C16.4042 27.1891 18.284 26.7613 19.9999 25.936C21.7158 25.1107 23.2235 23.9091 24.4109 22.4206Z" fill="white"/>
<path fill-rule="evenodd" clip-rule="evenodd" d="M14.5 16.3125C15.9421 16.3125 17.3252 15.7396 18.3449 14.7199C19.3646 13.7002 19.9375 12.3171 19.9375 10.875C19.9375 9.43289 19.3646 8.04984 18.3449 7.03011C17.3252 6.01038 15.9421 5.4375 14.5 5.4375C13.0579 5.4375 11.6748 6.01038 10.6551 7.03011C9.63538 8.04984 9.0625 9.43289 9.0625 10.875C9.0625 12.3171 9.63538 13.7002 10.6551 14.7199C11.6748 15.7396 13.0579 16.3125 14.5 16.3125Z" fill="white"/>
<path fill-rule="evenodd" clip-rule="evenodd" d="M14.5 1.8125C11.1351 1.8125 7.90795 3.14921 5.52858 5.52858C3.14921 7.90795 1.8125 11.1351 1.8125 14.5C1.8125 17.8649 3.14921 21.092 5.52858 23.4714C7.90795 25.8508 11.1351 27.1875 14.5 27.1875C17.8649 27.1875 21.092 25.8508 23.4714 23.4714C25.8508 21.092 27.1875 17.8649 27.1875 14.5C27.1875 11.1351 25.8508 7.90795 23.4714 5.52858C21.092 3.14921 17.8649 1.8125 14.5 1.8125ZM0 14.5C0 10.6544 1.52767 6.96623 4.24695 4.24695C6.96623 1.52767 10.6544 0 14.5 0C18.3456 0 22.0338 1.52767 24.753 4.24695C27.4723 6.96623 29 10.6544 29 14.5C29 18.3456 27.4723 22.0338 24.753 24.753C22.0338 27.4723 18.3456 29 14.5 29C10.6544 29 6.96623 27.4723 4.24695 24.753C1.52767 22.0338 0 18.3456 0 14.5Z" fill="white"/>
</g>
<defs>
<clipPath id="clip0_450_14115">
<rect width="29" height="29" fill="white"/>
</clipPath>
</defs>
</svg>
