<svg width="20" height="21" viewBox="0 0 20 21" fill="none" xmlns="http://www.w3.org/2000/svg">
<g clip-path="url(#clip0_459_14701)">
<path d="M19.0624 0.25H11.5624C11.0474 0.25 10.3262 0.54875 9.96241 0.9125L0.66366 10.2113C0.488326 10.3874 0.389893 10.6258 0.389893 10.8744C0.389893 11.1229 0.488326 11.3613 0.66366 11.5375L8.71241 19.5863C8.88857 19.7616 9.12699 19.86 9.37554 19.86C9.62408 19.86 9.8625 19.7616 10.0387 19.5863L19.3374 10.2875C19.7024 9.9225 19.9999 9.2025 19.9999 8.6875V1.1875C19.9989 0.939164 19.8998 0.70128 19.7242 0.525678C19.5486 0.350077 19.3107 0.250987 19.0624 0.25ZM14.3749 7.75C14.1286 7.74992 13.8847 7.70132 13.6572 7.60699C13.4297 7.51265 13.2229 7.37443 13.0488 7.2002C12.8747 7.02597 12.7366 6.81916 12.6424 6.59157C12.5483 6.36398 12.4998 6.12006 12.4999 5.87375C12.5 5.62744 12.5486 5.38356 12.6429 5.15603C12.7373 4.9285 12.8755 4.72178 13.0497 4.54767C13.2239 4.37356 13.4307 4.23547 13.6583 4.14128C13.8859 4.0471 14.1299 3.99867 14.3762 3.99875C14.8736 3.99892 15.3506 4.19668 15.7022 4.54855C16.0539 4.90041 16.2513 5.37755 16.2512 5.875C16.251 6.37245 16.0532 6.84945 15.7014 7.20108C15.3495 7.55271 14.8724 7.75017 14.3749 7.75Z" fill="#FF9029"/>
</g>
<defs>
<clipPath id="clip0_459_14701">
<rect width="20" height="20" fill="white" transform="translate(0 0.25)"/>
</clipPath>
</defs>
</svg>
