<svg width="36" height="36" viewBox="0 0 36 36" fill="none" xmlns="http://www.w3.org/2000/svg">
<g id="People circle" clip-path="url(#clip0_450_14167)">
<path id="Vector" d="M30.303 27.8325C28.7055 25.2585 25.1888 22.5 18 22.5C10.8113 22.5 7.29677 25.2563 5.69702 27.8325C7.17096 29.6803 9.04258 31.1719 11.1726 32.1965C13.3027 33.221 15.6364 33.752 18 33.75C20.3637 33.752 22.6973 33.221 24.8274 32.1965C26.9575 31.1719 28.8291 29.6803 30.303 27.8325Z" fill="#B1B1B1"/>
<path id="Vector_2" fill-rule="evenodd" clip-rule="evenodd" d="M18 20.25C19.7902 20.25 21.5071 19.5388 22.773 18.273C24.0388 17.0071 24.75 15.2902 24.75 13.5C24.75 11.7098 24.0388 9.9929 22.773 8.72703C21.5071 7.46116 19.7902 6.75 18 6.75C16.2098 6.75 14.4929 7.46116 13.227 8.72703C11.9612 9.9929 11.25 11.7098 11.25 13.5C11.25 15.2902 11.9612 17.0071 13.227 18.273C14.4929 19.5388 16.2098 20.25 18 20.25Z" fill="#B1B1B1"/>
<path id="Vector_3" fill-rule="evenodd" clip-rule="evenodd" d="M18 2.25C13.8228 2.25 9.81677 3.90937 6.86307 6.86307C3.90937 9.81677 2.25 13.8228 2.25 18C2.25 22.1772 3.90937 26.1832 6.86307 29.1369C9.81677 32.0906 13.8228 33.75 18 33.75C22.1772 33.75 26.1832 32.0906 29.1369 29.1369C32.0906 26.1832 33.75 22.1772 33.75 18C33.75 13.8228 32.0906 9.81677 29.1369 6.86307C26.1832 3.90937 22.1772 2.25 18 2.25ZM0 18C0 13.2261 1.89642 8.64773 5.27208 5.27208C8.64773 1.89642 13.2261 0 18 0C22.7739 0 27.3523 1.89642 30.7279 5.27208C34.1036 8.64773 36 13.2261 36 18C36 22.7739 34.1036 27.3523 30.7279 30.7279C27.3523 34.1036 22.7739 36 18 36C13.2261 36 8.64773 34.1036 5.27208 30.7279C1.89642 27.3523 0 22.7739 0 18Z" fill="#B1B1B1"/>
</g>
<defs>
<clipPath id="clip0_450_14167">
<rect width="36" height="36" fill="white"/>
</clipPath>
</defs>
</svg>
