<svg width="20" height="20" viewBox="0 0 20 20" fill="none" xmlns="http://www.w3.org/2000/svg">
<path d="M2.15494 1.31602C2.05032 1.26369 1.93311 1.24177 1.81664 1.25277C1.70018 1.26376 1.58914 1.30721 1.49615 1.37819C1.40316 1.44917 1.33196 1.54482 1.29064 1.65426C1.24933 1.7637 1.23956 1.88255 1.26244 1.99727L3.01619 8.05977C3.04889 8.17275 3.11281 8.2742 3.20059 8.35248C3.28838 8.43076 3.39647 8.48268 3.51244 8.50227L10.6249 9.69352C10.9599 9.75977 10.9599 10.2398 10.6249 10.306L3.51244 11.4973C3.39647 11.5169 3.28838 11.5688 3.20059 11.6471C3.11281 11.7253 3.04889 11.8268 3.01619 11.9398L1.26244 18.0023C1.23956 18.117 1.24933 18.2358 1.29064 18.3453C1.33196 18.4547 1.40316 18.5504 1.49615 18.6213C1.58914 18.6923 1.70018 18.7358 1.81664 18.7468C1.93311 18.7578 2.05032 18.7358 2.15494 18.6835L18.4049 10.5585C18.5086 10.5066 18.5958 10.4268 18.6567 10.3281C18.7176 10.2294 18.7499 10.1157 18.7499 9.99977C18.7499 9.8838 18.7176 9.77012 18.6567 9.67144C18.5958 9.57276 18.5086 9.49298 18.4049 9.44102L2.15494 1.31602Z" fill="white"/>
</svg>
