<svg width="31" height="31" viewBox="0 0 31 31" fill="none" xmlns="http://www.w3.org/2000/svg">
<g clip-path="url(#clip0_496_2245)">
<path d="M0.609102 15.3801C0.608375 17.9847 1.29425 20.5279 2.59843 22.7695L0.484375 30.4285L8.38356 28.3733C10.5684 29.5535 13.0163 30.1719 15.5039 30.1721H15.5104C23.7224 30.1721 30.4071 23.5415 30.4106 15.3918C30.4122 11.4427 28.8637 7.72914 26.0502 4.9353C23.2372 2.14169 19.496 0.602388 15.5098 0.600586C7.29687 0.600586 0.612613 7.23074 0.609223 15.3801" fill="url(#paint0_linear_496_2245)"/>
<path d="M0.12957 15.3097C0.128723 18.008 0.83918 20.6422 2.18986 22.964L0 30.8975L8.18243 28.7687C10.4369 29.9884 12.9753 30.6315 15.5582 30.6324H15.5649C24.0715 30.6324 30.9964 23.7634 31 15.3219C31.0015 11.2309 29.3972 7.38389 26.4832 4.48995C23.5688 1.59638 19.6938 0.00168217 15.5649 0C7.05686 0 0.132961 6.86806 0.12957 15.3097ZM5.00238 22.5642L4.69686 22.0829C3.41254 20.0566 2.73466 17.7151 2.73563 15.3106C2.73841 8.29418 8.49327 2.58574 15.5698 2.58574C18.9967 2.58718 22.2173 3.91273 24.6397 6.31775C27.0619 8.72302 28.3948 11.9203 28.3939 15.321C28.3908 22.3374 22.6358 28.0466 15.5649 28.0466H15.5598C13.2575 28.0454 10.9994 27.4319 9.0302 26.2725L8.56157 25.9967L3.70595 27.2599L5.00238 22.564V22.5642Z" fill="url(#paint1_linear_496_2245)"/>
<path d="M11.7071 8.90938C11.4182 8.27219 11.1141 8.25934 10.8394 8.24816C10.6144 8.23855 10.3572 8.23927 10.1002 8.23927C9.843 8.23927 9.42511 8.33527 9.07188 8.71797C8.71828 9.10102 7.72192 10.0267 7.72192 11.9094C7.72192 13.7922 9.10397 15.6117 9.29663 15.8673C9.48953 16.1224 11.9647 20.1096 15.8847 21.6435C19.1426 22.9183 19.8056 22.6647 20.5127 22.6008C21.2199 22.5371 22.7946 21.6754 23.1158 20.7818C23.4373 19.8883 23.4373 19.1224 23.341 18.9624C23.2446 18.8029 22.9874 18.7072 22.6017 18.5159C22.2159 18.3245 20.3198 17.3987 19.9663 17.271C19.6127 17.1434 19.3556 17.0797 19.0984 17.4629C18.8412 17.8454 18.1027 18.7072 17.8776 18.9624C17.6527 19.2182 17.4276 19.25 17.042 19.0586C16.6561 18.8666 15.414 18.463 13.9405 17.1595C12.7939 16.1451 12.0199 14.8925 11.7949 14.5093C11.5699 14.1267 11.7708 13.9194 11.9642 13.7287C12.1375 13.5572 12.35 13.2818 12.543 13.0584C12.7353 12.835 12.7995 12.6755 12.9281 12.4203C13.0568 12.1649 12.9924 11.9414 12.8961 11.75C12.7995 11.5586 12.0501 9.66599 11.7071 8.90938Z" fill="white"/>
</g>
<defs>
<linearGradient id="paint0_linear_496_2245" x1="1496.8" y1="2983.39" x2="1496.8" y2="0.600586" gradientUnits="userSpaceOnUse">
<stop stop-color="#1FAF38"/>
<stop offset="1" stop-color="#60D669"/>
</linearGradient>
<linearGradient id="paint1_linear_496_2245" x1="1550" y1="3089.75" x2="1550" y2="0" gradientUnits="userSpaceOnUse">
<stop stop-color="#F9F9F9"/>
<stop offset="1" stop-color="white"/>
</linearGradient>
<clipPath id="clip0_496_2245">
<rect width="31" height="31" fill="white"/>
</clipPath>
</defs>
</svg>
